{
  "header": {
    "PPQ": 480,
    "timeSignature": [
      4,
      4
    ],
    "bpm": 85.00016291697892,
    "name": ""
  },
  "startTime": 0,
  "duration": 251.29216541458146,
  "tracks": [
    {
      "startTime": 0,
      "duration": 251.29216541458015,
      "length": 886,
      "notes": [
        {
          "name": "F5",
          "midi": 77,
          "time": 0,
          "velocity": 0.6299212598425197,
          "duration": 0.5279401645833333
        },
        {
          "name": "C#5",
          "midi": 73,
          "time": 0.5294107499999999,
          "velocity": 0.6299212598425197,
          "duration": 0.17499966458333327
        },
        {
          "name": "G#4",
          "midi": 68,
          "time": 0.7058809999999999,
          "velocity": 0.6299212598425197,
          "duration": 1.4102914145833334
        },
        {
          "name": "A#4",
          "midi": 70,
          "time": 2.1176429999999997,
          "velocity": 0.6299212598425197,
          "duration": 0.7044104145833332
        },
        {
          "name": "C5",
          "midi": 72,
          "time": 2.8235239999999995,
          "velocity": 0.6299212598425197,
          "duration": 2.116172414583333
        },
        {
          "name": "C#5",
          "midi": 73,
          "time": 4.941166999999999,
          "velocity": 0.6299212598425197,
          "duration": 0.7044104145833332
        },
        {
          "name": "D#5",
          "midi": 75,
          "time": 5.647047999999999,
          "velocity": 0.6299212598425197,
          "duration": 0.5279401645833337
        },
        {
          "name": "F#4",
          "midi": 66,
          "time": 5.647047999999999,
          "velocity": 0.6299212598425197,
          "duration": 0.5279401645833337
        },
        {
          "name": "F5",
          "midi": 77,
          "time": 6.176458749999999,
          "velocity": 0.6299212598425197,
          "duration": 0.17499966458333294
        },
        {
          "name": "G#4",
          "midi": 68,
          "time": 6.176458749999999,
          "velocity": 0.6299212598425197,
          "duration": 0.17499966458333294
        },
        {
          "name": "F#5",
          "midi": 78,
          "time": 6.352928999999999,
          "velocity": 0.6299212598425197,
          "duration": 1.410291414583333
        },
        {
          "name": "A#4",
          "midi": 70,
          "time": 6.352928999999999,
          "velocity": 0.6299212598425197,
          "duration": 1.410291414583333
        },
        {
          "name": "F5",
          "midi": 77,
          "time": 7.764690999999998,
          "velocity": 0.6299212598425197,
          "duration": 0.7044104145833332
        },
        {
          "name": "G#4",
          "midi": 68,
          "time": 7.764690999999998,
          "velocity": 0.6299212598425197,
          "duration": 0.7044104145833332
        },
        {
          "name": "F5",
          "midi": 77,
          "time": 8.470571999999999,
          "velocity": 0.6299212598425197,
          "duration": 1.057350914583333
        },
        {
          "name": "D#5",
          "midi": 75,
          "time": 9.5293935,
          "velocity": 0.6299212598425197,
          "duration": 0.3514699145833333
        },
        {
          "name": "C#5",
          "midi": 73,
          "time": 9.882334,
          "velocity": 0.6299212598425197,
          "duration": 0.7044104145833341
        },
        {
          "name": "D#5",
          "midi": 75,
          "time": 10.563215047916668,
          "velocity": 0.6299212598425197,
          "duration": 0.023529366666666718
        },
        {
          "name": "D#5",
          "midi": 75,
          "time": 10.588215000000002,
          "velocity": 0.6299212598425197,
          "duration": 0.09852922291666744
        },
        {
          "name": "F5",
          "midi": 77,
          "time": 10.688214808333337,
          "velocity": 0.6299212598425197,
          "duration": 0.09852922291666744
        },
        {
          "name": "D#5",
          "midi": 75,
          "time": 10.788214616666671,
          "velocity": 0.6299212598425197,
          "duration": 0.09852922291666744
        },
        {
          "name": "D5",
          "midi": 74,
          "time": 10.888214425000006,
          "velocity": 0.6299212598425197,
          "duration": 0.09852922291666744
        },
        {
          "name": "D#5",
          "midi": 75,
          "time": 10.988214233333341,
          "velocity": 0.6299212598425197,
          "duration": 0.09852922291666744
        },
        {
          "name": "F5",
          "midi": 77,
          "time": 11.088214041666676,
          "velocity": 0.6299212598425197,
          "duration": 0.09852922291666744
        },
        {
          "name": "F#5",
          "midi": 78,
          "time": 11.188213850000011,
          "velocity": 0.6299212598425197,
          "duration": 0.09852922291666744
        },
        {
          "name": "F5",
          "midi": 77,
          "time": 11.294096000000012,
          "velocity": 0.6299212598425197,
          "duration": 0.5279401645833328
        },
        {
          "name": "C#5",
          "midi": 73,
          "time": 11.823506750000012,
          "velocity": 0.6299212598425197,
          "duration": 0.17499966458333382
        },
        {
          "name": "G#4",
          "midi": 68,
          "time": 11.999977000000014,
          "velocity": 0.6299212598425197,
          "duration": 1.4102914145833338
        },
        {
          "name": "A#4",
          "midi": 70,
          "time": 13.411739000000015,
          "velocity": 0.6299212598425197,
          "duration": 0.7044104145833341
        },
        {
          "name": "C5",
          "midi": 72,
          "time": 14.117620000000016,
          "velocity": 0.6299212598425197,
          "duration": 2.116172414583332
        },
        {
          "name": "C#5",
          "midi": 73,
          "time": 16.235263000000014,
          "velocity": 0.6299212598425197,
          "duration": 0.7044104145833323
        },
        {
          "name": "D#5",
          "midi": 75,
          "time": 16.941144000000012,
          "velocity": 0.6299212598425197,
          "duration": 0.5279401645833346
        },
        {
          "name": "F#4",
          "midi": 66,
          "time": 16.941144000000012,
          "velocity": 0.6299212598425197,
          "duration": 0.5279401645833346
        },
        {
          "name": "F5",
          "midi": 77,
          "time": 17.470554750000012,
          "velocity": 0.6299212598425197,
          "duration": 0.17499966458333205
        },
        {
          "name": "G#4",
          "midi": 68,
          "time": 17.470554750000012,
          "velocity": 0.6299212598425197,
          "duration": 0.17499966458333205
        },
        {
          "name": "F#5",
          "midi": 78,
          "time": 17.64702500000001,
          "velocity": 0.6299212598425197,
          "duration": 1.4102914145833338
        },
        {
          "name": "A#4",
          "midi": 70,
          "time": 17.64702500000001,
          "velocity": 0.6299212598425197,
          "duration": 1.4102914145833338
        },
        {
          "name": "F5",
          "midi": 77,
          "time": 19.05878700000001,
          "velocity": 0.6299212598425197,
          "duration": 0.7044104145833323
        },
        {
          "name": "G#4",
          "midi": 68,
          "time": 19.05878700000001,
          "velocity": 0.6299212598425197,
          "duration": 0.7044104145833323
        },
        {
          "name": "F5",
          "midi": 77,
          "time": 19.764668000000007,
          "velocity": 0.6299212598425197,
          "duration": 1.0573509145833349
        },
        {
          "name": "D#5",
          "midi": 75,
          "time": 20.823489500000008,
          "velocity": 0.6299212598425197,
          "duration": 0.3514699145833333
        },
        {
          "name": "C#5",
          "midi": 73,
          "time": 21.176430000000007,
          "velocity": 0.6299212598425197,
          "duration": 0.7044104145833323
        },
        {
          "name": "C5",
          "midi": 72,
          "time": 21.882311000000005,
          "velocity": 0.6299212598425197,
          "duration": 0.3514699145833333
        },
        {
          "name": "C#5",
          "midi": 73,
          "time": 22.235251500000004,
          "velocity": 0.6299212598425197,
          "duration": 0.3514699145833333
        },
        {
          "name": "D#5",
          "midi": 75,
          "time": 22.588192000000003,
          "velocity": 0.6299212598425197,
          "duration": 0.7044104145833323
        },
        {
          "name": "D#5",
          "midi": 75,
          "time": 23.294073,
          "velocity": 0.6299212598425197,
          "duration": 1.4102914145833338
        },
        {
          "name": "F5",
          "midi": 77,
          "time": 24.705835,
          "velocity": 0.6299212598425197,
          "duration": 0.7044104145833323
        },
        {
          "name": "F#5",
          "midi": 78,
          "time": 25.411716,
          "velocity": 0.6299212598425197,
          "duration": 0.3514699145833333
        },
        {
          "name": "F5",
          "midi": 77,
          "time": 25.764656499999997,
          "velocity": 0.6299212598425197,
          "duration": 0.3514699145833333
        },
        {
          "name": "D#5",
          "midi": 75,
          "time": 26.117596999999996,
          "velocity": 0.6299212598425197,
          "duration": 0.3514699145833333
        },
        {
          "name": "C#5",
          "midi": 73,
          "time": 26.470537499999995,
          "velocity": 0.6299212598425197,
          "duration": 0.3514699145833333
        },
        {
          "name": "F5",
          "midi": 77,
          "time": 26.823477999999994,
          "velocity": 0.6299212598425197,
          "duration": 1.4102914145833338
        },
        {
          "name": "D#5",
          "midi": 75,
          "time": 28.235239999999994,
          "velocity": 0.6299212598425197,
          "duration": 0.3514699145833333
        },
        {
          "name": "B4",
          "midi": 71,
          "time": 28.588180499999993,
          "velocity": 0.6299212598425197,
          "duration": 0.3514699145833333
        },
        {
          "name": "A#4",
          "midi": 70,
          "time": 28.941120999999992,
          "velocity": 0.6299212598425197,
          "duration": 0.3514699145833333
        },
        {
          "name": "G#4",
          "midi": 68,
          "time": 29.29406149999999,
          "velocity": 0.6299212598425197,
          "duration": 0.3514699145833333
        },
        {
          "name": "A#4",
          "midi": 70,
          "time": 29.64700199999999,
          "velocity": 0.6299212598425197,
          "duration": 0.7044104145833323
        },
        {
          "name": "A#4",
          "midi": 70,
          "time": 30.352882999999988,
          "velocity": 0.6299212598425197,
          "duration": 0.5279401645833346
        },
        {
          "name": "B4",
          "midi": 71,
          "time": 30.882293749999988,
          "velocity": 0.6299212598425197,
          "duration": 0.17499966458333205
        },
        {
          "name": "G#4",
          "midi": 68,
          "time": 31.058763999999986,
          "velocity": 0.6299212598425197,
          "duration": 0.7044104145833323
        },
        {
          "name": "D#5",
          "midi": 75,
          "time": 31.764644999999984,
          "velocity": 0.6299212598425197,
          "duration": 0.7044104145833323
        },
        {
          "name": "C#5",
          "midi": 73,
          "time": 32.470525999999985,
          "velocity": 0.6299212598425197,
          "duration": 0.7044104145833359
        },
        {
          "name": "E5",
          "midi": 76,
          "time": 33.17640699999999,
          "velocity": 0.6299212598425197,
          "duration": 0.7044104145833359
        },
        {
          "name": "D#5",
          "midi": 75,
          "time": 33.882287999999996,
          "velocity": 0.6299212598425197,
          "duration": 0.7044104145833359
        },
        {
          "name": "D#5",
          "midi": 75,
          "time": 34.588169,
          "velocity": 0.6299212598425197,
          "duration": 1.4102914145833338
        },
        {
          "name": "F5",
          "midi": 77,
          "time": 35.999931000000004,
          "velocity": 0.6299212598425197,
          "duration": 0.7044104145833359
        },
        {
          "name": "F#5",
          "midi": 78,
          "time": 36.70581200000001,
          "velocity": 0.6299212598425197,
          "duration": 0.3514699145833333
        },
        {
          "name": "F5",
          "midi": 77,
          "time": 37.05875250000001,
          "velocity": 0.6299212598425197,
          "duration": 0.3514699145833333
        },
        {
          "name": "D#5",
          "midi": 75,
          "time": 37.411693000000014,
          "velocity": 0.6299212598425197,
          "duration": 0.3514699145833333
        },
        {
          "name": "C#5",
          "midi": 73,
          "time": 37.764633500000016,
          "velocity": 0.6299212598425197,
          "duration": 0.3514699145833333
        },
        {
          "name": "F5",
          "midi": 77,
          "time": 38.11757400000002,
          "velocity": 0.6299212598425197,
          "duration": 1.7632319145833364
        },
        {
          "name": "C#5",
          "midi": 73,
          "time": 39.882276500000025,
          "velocity": 0.6299212598425197,
          "duration": 0.3514699145833333
        },
        {
          "name": "C5",
          "midi": 72,
          "time": 40.23521700000003,
          "velocity": 0.6299212598425197,
          "duration": 0.3514699145833333
        },
        {
          "name": "A#4",
          "midi": 70,
          "time": 40.58815750000003,
          "velocity": 0.6299212598425197,
          "duration": 0.3514699145833333
        },
        {
          "name": "C5",
          "midi": 72,
          "time": 40.94109800000003,
          "velocity": 0.6299212598425197,
          "duration": 0.7044104145833359
        },
        {
          "name": "C5",
          "midi": 72,
          "time": 41.64697900000004,
          "velocity": 0.6299212598425197,
          "duration": 0.3514699145833333
        },
        {
          "name": "C#5",
          "midi": 73,
          "time": 41.99991950000004,
          "velocity": 0.6299212598425197,
          "duration": 0.3514699145833333
        },
        {
          "name": "A#4",
          "midi": 70,
          "time": 42.35286000000004,
          "velocity": 0.6299212598425197,
          "duration": 0.7044104145833359
        },
        {
          "name": "F5",
          "midi": 77,
          "time": 43.05874100000005,
          "velocity": 0.6299212598425197,
          "duration": 0.7044104145833359
        },
        {
          "name": "D#5",
          "midi": 75,
          "time": 43.76462200000005,
          "velocity": 0.6299212598425197,
          "duration": 0.7044104145833359
        },
        {
          "name": "F#5",
          "midi": 78,
          "time": 44.47050300000006,
          "velocity": 0.6299212598425197,
          "duration": 0.7044104145833359
        },
        {
          "name": "F5",
          "midi": 77,
          "time": 45.17638400000006,
          "velocity": 0.6299212598425197,
          "duration": 0.3514699145833333
        },
        {
          "name": "C#5",
          "midi": 73,
          "time": 45.529324500000065,
          "velocity": 0.6299212598425197,
          "duration": 0.3514699145833333
        },
        {
          "name": "C5",
          "midi": 72,
          "time": 45.88226500000007,
          "velocity": 0.6299212598425197,
          "duration": 0.3514699145833333
        },
        {
          "name": "A#4",
          "midi": 70,
          "time": 46.23520550000007,
          "velocity": 0.6299212598425197,
          "duration": 0.3514699145833333
        },
        {
          "name": "C5",
          "midi": 72,
          "time": 46.58814600000007,
          "velocity": 0.6299212598425197,
          "duration": 0.7044104145833359
        },
        {
          "name": "C5",
          "midi": 72,
          "time": 47.29402700000008,
          "velocity": 0.6299212598425197,
          "duration": 0.5279401645833346
        },
        {
          "name": "C#5",
          "midi": 73,
          "time": 47.82343775000008,
          "velocity": 0.6299212598425197,
          "duration": 0.17499966458333205
        },
        {
          "name": "A#4",
          "midi": 70,
          "time": 47.99990800000008,
          "velocity": 0.6299212598425197,
          "duration": 0.7044104145833359
        },
        {
          "name": "D#5",
          "midi": 75,
          "time": 48.70578900000009,
          "velocity": 0.6299212598425197,
          "duration": 0.7044104145833359
        },
        {
          "name": "F5",
          "midi": 77,
          "time": 49.41167000000009,
          "velocity": 0.6299212598425197,
          "duration": 0.7044104145833359
        },
        {
          "name": "D#5",
          "midi": 75,
          "time": 50.1175510000001,
          "velocity": 0.6299212598425197,
          "duration": 0.7044104145833359
        },
        {
          "name": "F5",
          "midi": 77,
          "time": 50.8234320000001,
          "velocity": 0.6299212598425197,
          "duration": 2.116172414583332
        },
        {
          "name": "D#5",
          "midi": 75,
          "time": 52.941075000000104,
          "velocity": 0.6299212598425197,
          "duration": 0.7044104145833359
        },
        {
          "name": "F5",
          "midi": 77,
          "time": 53.64695600000011,
          "velocity": 0.6299212598425197,
          "duration": 0.5279401645833346
        },
        {
          "name": "C#5",
          "midi": 73,
          "time": 54.17636675000011,
          "velocity": 0.6299212598425197,
          "duration": 0.17499966458333205
        },
        {
          "name": "G#4",
          "midi": 68,
          "time": 54.352837000000115,
          "velocity": 0.6299212598425197,
          "duration": 1.4102914145833338
        },
        {
          "name": "A#4",
          "midi": 70,
          "time": 55.76459900000012,
          "velocity": 0.6299212598425197,
          "duration": 0.7044104145833359
        },
        {
          "name": "C5",
          "midi": 72,
          "time": 56.47048000000012,
          "velocity": 0.6299212598425197,
          "duration": 2.116172414583332
        },
        {
          "name": "C#5",
          "midi": 73,
          "time": 58.588123000000124,
          "velocity": 0.6299212598425197,
          "duration": 0.7044104145833359
        },
        {
          "name": "D#5",
          "midi": 75,
          "time": 59.29400400000013,
          "velocity": 0.6299212598425197,
          "duration": 0.5279401645833346
        },
        {
          "name": "F#4",
          "midi": 66,
          "time": 59.29400400000013,
          "velocity": 0.6299212598425197,
          "duration": 0.5279401645833346
        },
        {
          "name": "F5",
          "midi": 77,
          "time": 59.82341475000013,
          "velocity": 0.6299212598425197,
          "duration": 0.17499966458333205
        },
        {
          "name": "G#4",
          "midi": 68,
          "time": 59.82341475000013,
          "velocity": 0.6299212598425197,
          "duration": 0.17499966458333205
        },
        {
          "name": "F#5",
          "midi": 78,
          "time": 59.999885000000134,
          "velocity": 0.6299212598425197,
          "duration": 1.4102914145833338
        },
        {
          "name": "A#4",
          "midi": 70,
          "time": 59.999885000000134,
          "velocity": 0.6299212598425197,
          "duration": 1.4102914145833338
        },
        {
          "name": "F5",
          "midi": 77,
          "time": 61.41164700000014,
          "velocity": 0.6299212598425197,
          "duration": 0.7044104145833359
        },
        {
          "name": "G#4",
          "midi": 68,
          "time": 61.41164700000014,
          "velocity": 0.6299212598425197,
          "duration": 0.7044104145833359
        },
        {
          "name": "F5",
          "midi": 77,
          "time": 62.11752800000014,
          "velocity": 0.6299212598425197,
          "duration": 1.0573509145833313
        },
        {
          "name": "D#5",
          "midi": 75,
          "time": 63.17634950000014,
          "velocity": 0.6299212598425197,
          "duration": 0.3514699145833333
        },
        {
          "name": "C#5",
          "midi": 73,
          "time": 63.529290000000145,
          "velocity": 0.6299212598425197,
          "duration": 0.7044104145833359
        },
        {
          "name": "D5",
          "midi": 74,
          "time": 64.23517100000015,
          "velocity": 0.6299212598425197,
          "duration": 0.09852922291666744
        },
        {
          "name": "D#5",
          "midi": 75,
          "time": 64.33517080833349,
          "velocity": 0.6299212598425197,
          "duration": 0.09852922291666744
        },
        {
          "name": "E5",
          "midi": 76,
          "time": 64.43517061666682,
          "velocity": 0.6299212598425197,
          "duration": 0.09852922291666744
        },
        {
          "name": "F5",
          "midi": 77,
          "time": 64.53517042500016,
          "velocity": 0.6299212598425197,
          "duration": 0.09852922291666744
        },
        {
          "name": "G#5",
          "midi": 80,
          "time": 64.6351702333335,
          "velocity": 0.6299212598425197,
          "duration": 0.09852922291666744
        },
        {
          "name": "G5",
          "midi": 79,
          "time": 64.73517004166683,
          "velocity": 0.6299212598425197,
          "duration": 0.09852922291666744
        },
        {
          "name": "F#5",
          "midi": 78,
          "time": 64.83516985000017,
          "velocity": 0.6299212598425197,
          "duration": 0.09852922291666744
        },
        {
          "name": "F5",
          "midi": 77,
          "time": 64.94105200000017,
          "velocity": 0.6299212598425197,
          "duration": 0.5279401645833275
        },
        {
          "name": "C#5",
          "midi": 73,
          "time": 65.47046275000017,
          "velocity": 0.6299212598425197,
          "duration": 0.17499966458333915
        },
        {
          "name": "G#4",
          "midi": 68,
          "time": 65.64693300000017,
          "velocity": 0.6299212598425197,
          "duration": 1.4102914145833267
        },
        {
          "name": "A#4",
          "midi": 70,
          "time": 67.05869500000017,
          "velocity": 0.6299212598425197,
          "duration": 0.7044104145833359
        },
        {
          "name": "C5",
          "midi": 72,
          "time": 67.76457600000018,
          "velocity": 0.6299212598425197,
          "duration": 2.116172414583332
        },
        {
          "name": "C#5",
          "midi": 73,
          "time": 69.88221900000018,
          "velocity": 0.6299212598425197,
          "duration": 0.7044104145833359
        },
        {
          "name": "D#5",
          "midi": 75,
          "time": 70.58810000000018,
          "velocity": 0.6299212598425197,
          "duration": 0.5279401645833275
        },
        {
          "name": "F#4",
          "midi": 66,
          "time": 70.58810000000018,
          "velocity": 0.6299212598425197,
          "duration": 0.5279401645833275
        },
        {
          "name": "F5",
          "midi": 77,
          "time": 71.11751075000018,
          "velocity": 0.6299212598425197,
          "duration": 0.17499966458333915
        },
        {
          "name": "G#4",
          "midi": 68,
          "time": 71.11751075000018,
          "velocity": 0.6299212598425197,
          "duration": 0.17499966458333915
        },
        {
          "name": "F#5",
          "midi": 78,
          "time": 71.29398100000019,
          "velocity": 0.6299212598425197,
          "duration": 1.4102914145833267
        },
        {
          "name": "A#4",
          "midi": 70,
          "time": 71.29398100000019,
          "velocity": 0.6299212598425197,
          "duration": 1.4102914145833267
        },
        {
          "name": "C5",
          "midi": 72,
          "time": 72.70574300000018,
          "velocity": 0.6299212598425197,
          "duration": 0.7044104145833359
        },
        {
          "name": "D#5",
          "midi": 75,
          "time": 73.41162400000019,
          "velocity": 0.6299212598425197,
          "duration": 1.4102914145833267
        },
        {
          "name": "G#3",
          "midi": 56,
          "time": 76.23514800000018,
          "velocity": 0.6299212598425197,
          "duration": 0.3514699145833333
        },
        {
          "name": "G#3",
          "midi": 56,
          "time": 76.58808850000018,
          "velocity": 0.6299212598425197,
          "duration": 0.3514699145833333
        },
        {
          "name": "G#3",
          "midi": 56,
          "time": 76.94102900000019,
          "velocity": 0.6299212598425197,
          "duration": 0.3514699145833333
        },
        {
          "name": "G#3",
          "midi": 56,
          "time": 77.29396950000019,
          "velocity": 0.6299212598425197,
          "duration": 0.3514699145833333
        },
        {
          "name": "G#3",
          "midi": 56,
          "time": 77.64691000000019,
          "velocity": 0.6299212598425197,
          "duration": 0.3514699145833333
        },
        {
          "name": "G#3",
          "midi": 56,
          "time": 77.99985050000019,
          "velocity": 0.6299212598425197,
          "duration": 0.3514699145833333
        },
        {
          "name": "G#3",
          "midi": 56,
          "time": 78.3527910000002,
          "velocity": 0.6299212598425197,
          "duration": 0.3514699145833333
        },
        {
          "name": "G#3",
          "midi": 56,
          "time": 78.7057315000002,
          "velocity": 0.6299212598425197,
          "duration": 0.3514699145833333
        },
        {
          "name": "G#3",
          "midi": 56,
          "time": 79.0586720000002,
          "velocity": 0.6299212598425197,
          "duration": 0.3514699145833333
        },
        {
          "name": "G#3",
          "midi": 56,
          "time": 79.4116125000002,
          "velocity": 0.6299212598425197,
          "duration": 0.3514699145833333
        },
        {
          "name": "G#3",
          "midi": 56,
          "time": 79.7645530000002,
          "velocity": 0.6299212598425197,
          "duration": 0.3514699145833333
        },
        {
          "name": "G#3",
          "midi": 56,
          "time": 80.11749350000021,
          "velocity": 0.6299212598425197,
          "duration": 0.3514699145833333
        },
        {
          "name": "G#3",
          "midi": 56,
          "time": 80.47043400000021,
          "velocity": 0.6299212598425197,
          "duration": 0.3514699145833333
        },
        {
          "name": "G#3",
          "midi": 56,
          "time": 80.82337450000021,
          "velocity": 0.6299212598425197,
          "duration": 0.3514699145833333
        },
        {
          "name": "G#3",
          "midi": 56,
          "time": 81.17631500000022,
          "velocity": 0.6299212598425197,
          "duration": 0.3514699145833333
        },
        {
          "name": "G#3",
          "midi": 56,
          "time": 81.52925550000022,
          "velocity": 0.6299212598425197,
          "duration": 0.3514699145833333
        },
        {
          "name": "G#3",
          "midi": 56,
          "time": 81.88219600000022,
          "velocity": 0.6299212598425197,
          "duration": 0.3514699145833333
        },
        {
          "name": "G#3",
          "midi": 56,
          "time": 82.23513650000022,
          "velocity": 0.6299212598425197,
          "duration": 0.3514699145833333
        },
        {
          "name": "G#3",
          "midi": 56,
          "time": 82.58807700000023,
          "velocity": 0.6299212598425197,
          "duration": 0.3514699145833333
        },
        {
          "name": "G#3",
          "midi": 56,
          "time": 82.94101750000023,
          "velocity": 0.6299212598425197,
          "duration": 0.3514699145833333
        },
        {
          "name": "G#3",
          "midi": 56,
          "time": 83.29395800000023,
          "velocity": 0.6299212598425197,
          "duration": 0.3514699145833333
        },
        {
          "name": "G#3",
          "midi": 56,
          "time": 83.64689850000023,
          "velocity": 0.6299212598425197,
          "duration": 0.3514699145833333
        },
        {
          "name": "G#3",
          "midi": 56,
          "time": 83.99983900000024,
          "velocity": 0.6299212598425197,
          "duration": 0.3514699145833333
        },
        {
          "name": "G#3",
          "midi": 56,
          "time": 84.35277950000024,
          "velocity": 0.6299212598425197,
          "duration": 0.3514699145833333
        },
        {
          "name": "G#3",
          "midi": 56,
          "time": 84.70572000000024,
          "velocity": 0.6299212598425197,
          "duration": 0.3514699145833333
        },
        {
          "name": "G#3",
          "midi": 56,
          "time": 85.05866050000024,
          "velocity": 0.6299212598425197,
          "duration": 0.3514699145833333
        },
        {
          "name": "G#3",
          "midi": 56,
          "time": 85.41160100000025,
          "velocity": 0.6299212598425197,
          "duration": 0.3514699145833333
        },
        {
          "name": "G#3",
          "midi": 56,
          "time": 85.76454150000025,
          "velocity": 0.6299212598425197,
          "duration": 0.3514699145833333
        },
        {
          "name": "G#3",
          "midi": 56,
          "time": 86.11748200000025,
          "velocity": 0.6299212598425197,
          "duration": 0.3514699145833333
        },
        {
          "name": "G#3",
          "midi": 56,
          "time": 86.47042250000025,
          "velocity": 0.6299212598425197,
          "duration": 0.3514699145833333
        },
        {
          "name": "G#3",
          "midi": 56,
          "time": 86.82336300000026,
          "velocity": 0.6299212598425197,
          "duration": 0.3514699145833333
        },
        {
          "name": "G#3",
          "midi": 56,
          "time": 87.17630350000026,
          "velocity": 0.6299212598425197,
          "duration": 0.3514699145833333
        },
        {
          "name": "G#3",
          "midi": 56,
          "time": 87.52924400000026,
          "velocity": 0.6299212598425197,
          "duration": 0.3514699145833333
        },
        {
          "name": "G#3",
          "midi": 56,
          "time": 87.88218450000026,
          "velocity": 0.6299212598425197,
          "duration": 0.3514699145833333
        },
        {
          "name": "G#3",
          "midi": 56,
          "time": 88.23512500000027,
          "velocity": 0.6299212598425197,
          "duration": 0.3514699145833333
        },
        {
          "name": "G#3",
          "midi": 56,
          "time": 88.58806550000027,
          "velocity": 0.6299212598425197,
          "duration": 0.3514699145833333
        },
        {
          "name": "G#3",
          "midi": 56,
          "time": 88.94100600000027,
          "velocity": 0.6299212598425197,
          "duration": 0.3514699145833333
        },
        {
          "name": "G#3",
          "midi": 56,
          "time": 89.29394650000027,
          "velocity": 0.6299212598425197,
          "duration": 0.3514699145833333
        },
        {
          "name": "G#3",
          "midi": 56,
          "time": 89.64688700000028,
          "velocity": 0.6299212598425197,
          "duration": 0.3514699145833333
        },
        {
          "name": "G#3",
          "midi": 56,
          "time": 89.99982750000028,
          "velocity": 0.6299212598425197,
          "duration": 0.3514699145833333
        },
        {
          "name": "G#3",
          "midi": 56,
          "time": 90.35276800000028,
          "velocity": 0.6299212598425197,
          "duration": 0.3514699145833333
        },
        {
          "name": "G#3",
          "midi": 56,
          "time": 90.70570850000028,
          "velocity": 0.6299212598425197,
          "duration": 0.3514699145833333
        },
        {
          "name": "G#3",
          "midi": 56,
          "time": 91.05864900000029,
          "velocity": 0.6299212598425197,
          "duration": 0.3514699145833333
        },
        {
          "name": "G#3",
          "midi": 56,
          "time": 91.41158950000029,
          "velocity": 0.6299212598425197,
          "duration": 0.3514699145833333
        },
        {
          "name": "G#3",
          "midi": 56,
          "time": 91.76453000000029,
          "velocity": 0.6299212598425197,
          "duration": 0.3514699145833333
        },
        {
          "name": "G#3",
          "midi": 56,
          "time": 92.1174705000003,
          "velocity": 0.6299212598425197,
          "duration": 0.3514699145833333
        },
        {
          "name": "G#3",
          "midi": 56,
          "time": 92.4704110000003,
          "velocity": 0.6299212598425197,
          "duration": 0.3514699145833333
        },
        {
          "name": "G#3",
          "midi": 56,
          "time": 92.8233515000003,
          "velocity": 0.6299212598425197,
          "duration": 0.3514699145833333
        },
        {
          "name": "G#3",
          "midi": 56,
          "time": 93.1762920000003,
          "velocity": 0.6299212598425197,
          "duration": 0.3514699145833333
        },
        {
          "name": "G#3",
          "midi": 56,
          "time": 93.5292325000003,
          "velocity": 0.6299212598425197,
          "duration": 0.3514699145833333
        },
        {
          "name": "G#3",
          "midi": 56,
          "time": 93.88217300000031,
          "velocity": 0.6299212598425197,
          "duration": 0.3514699145833333
        },
        {
          "name": "G#3",
          "midi": 56,
          "time": 94.23511350000031,
          "velocity": 0.6299212598425197,
          "duration": 0.3514699145833333
        },
        {
          "name": "G#3",
          "midi": 56,
          "time": 94.58805400000031,
          "velocity": 0.6299212598425197,
          "duration": 0.3514699145833333
        },
        {
          "name": "G#3",
          "midi": 56,
          "time": 94.94099450000031,
          "velocity": 0.6299212598425197,
          "duration": 0.3514699145833333
        },
        {
          "name": "G#3",
          "midi": 56,
          "time": 95.29393500000032,
          "velocity": 0.6299212598425197,
          "duration": 0.3514699145833333
        },
        {
          "name": "G#3",
          "midi": 56,
          "time": 95.64687550000032,
          "velocity": 0.6299212598425197,
          "duration": 0.3514699145833333
        },
        {
          "name": "G#3",
          "midi": 56,
          "time": 95.99981600000032,
          "velocity": 0.6299212598425197,
          "duration": 0.3514699145833333
        },
        {
          "name": "G#4",
          "midi": 68,
          "time": 96.35275650000032,
          "velocity": 0.6299212598425197,
          "duration": 0.3514699145833333
        },
        {
          "name": "G#3",
          "midi": 56,
          "time": 96.35275650000032,
          "velocity": 0.6299212598425197,
          "duration": 0.3514699145833333
        },
        {
          "name": "G#4",
          "midi": 68,
          "time": 96.70569700000033,
          "velocity": 0.6299212598425197,
          "duration": 0.3514699145833333
        },
        {
          "name": "G#3",
          "midi": 56,
          "time": 96.70569700000033,
          "velocity": 0.6299212598425197,
          "duration": 0.3514699145833333
        },
        {
          "name": "G#4",
          "midi": 68,
          "time": 97.05863750000033,
          "velocity": 0.6299212598425197,
          "duration": 0.3514699145833333
        },
        {
          "name": "G#3",
          "midi": 56,
          "time": 97.05863750000033,
          "velocity": 0.6299212598425197,
          "duration": 0.3514699145833333
        },
        {
          "name": "G#4",
          "midi": 68,
          "time": 97.41157800000033,
          "velocity": 0.6299212598425197,
          "duration": 0.3514699145833333
        },
        {
          "name": "G#3",
          "midi": 56,
          "time": 97.41157800000033,
          "velocity": 0.6299212598425197,
          "duration": 0.3514699145833333
        },
        {
          "name": "G#4",
          "midi": 68,
          "time": 97.76451850000034,
          "velocity": 0.6299212598425197,
          "duration": 0.3514699145833333
        },
        {
          "name": "G#3",
          "midi": 56,
          "time": 97.76451850000034,
          "velocity": 0.6299212598425197,
          "duration": 0.3514699145833333
        },
        {
          "name": "G#4",
          "midi": 68,
          "time": 98.11745900000034,
          "velocity": 0.6299212598425197,
          "duration": 0.3514699145833333
        },
        {
          "name": "G#3",
          "midi": 56,
          "time": 98.11745900000034,
          "velocity": 0.6299212598425197,
          "duration": 0.3514699145833333
        },
        {
          "name": "G#4",
          "midi": 68,
          "time": 98.47039950000034,
          "velocity": 0.6299212598425197,
          "duration": 0.3514699145833333
        },
        {
          "name": "G#3",
          "midi": 56,
          "time": 98.47039950000034,
          "velocity": 0.6299212598425197,
          "duration": 0.3514699145833333
        },
        {
          "name": "G#4",
          "midi": 68,
          "time": 98.82334000000034,
          "velocity": 0.6299212598425197,
          "duration": 0.3514699145833333
        },
        {
          "name": "G#3",
          "midi": 56,
          "time": 98.82334000000034,
          "velocity": 0.6299212598425197,
          "duration": 0.3514699145833333
        },
        {
          "name": "G#4",
          "midi": 68,
          "time": 99.17628050000035,
          "velocity": 0.6299212598425197,
          "duration": 0.3514699145833333
        },
        {
          "name": "G#3",
          "midi": 56,
          "time": 99.17628050000035,
          "velocity": 0.6299212598425197,
          "duration": 0.3514699145833333
        },
        {
          "name": "G#4",
          "midi": 68,
          "time": 99.52922100000035,
          "velocity": 0.6299212598425197,
          "duration": 0.3514699145833333
        },
        {
          "name": "G#3",
          "midi": 56,
          "time": 99.52922100000035,
          "velocity": 0.6299212598425197,
          "duration": 0.3514699145833333
        },
        {
          "name": "G#4",
          "midi": 68,
          "time": 99.88216150000035,
          "velocity": 0.6299212598425197,
          "duration": 0.3514699145833333
        },
        {
          "name": "G#3",
          "midi": 56,
          "time": 99.88216150000035,
          "velocity": 0.6299212598425197,
          "duration": 0.3514699145833333
        },
        {
          "name": "C#4",
          "midi": 61,
          "time": 100.23510200000035,
          "velocity": 0.6299212598425197,
          "duration": 0.7044104145833359
        },
        {
          "name": "G#4",
          "midi": 68,
          "time": 100.23510200000035,
          "velocity": 0.6299212598425197,
          "duration": 0.3514699145833333
        },
        {
          "name": "G#3",
          "midi": 56,
          "time": 100.23510200000035,
          "velocity": 0.6299212598425197,
          "duration": 0.3514699145833333
        },
        {
          "name": "G#4",
          "midi": 68,
          "time": 100.58804250000036,
          "velocity": 0.6299212598425197,
          "duration": 0.3514699145833333
        },
        {
          "name": "G#3",
          "midi": 56,
          "time": 100.58804250000036,
          "velocity": 0.6299212598425197,
          "duration": 0.3514699145833333
        },
        {
          "name": "C4",
          "midi": 60,
          "time": 100.94098300000036,
          "velocity": 0.6299212598425197,
          "duration": 0.7044104145833359
        },
        {
          "name": "G#4",
          "midi": 68,
          "time": 100.94098300000036,
          "velocity": 0.6299212598425197,
          "duration": 0.3514699145833333
        },
        {
          "name": "G#3",
          "midi": 56,
          "time": 100.94098300000036,
          "velocity": 0.6299212598425197,
          "duration": 0.3514699145833333
        },
        {
          "name": "G#4",
          "midi": 68,
          "time": 101.29392350000036,
          "velocity": 0.6299212598425197,
          "duration": 0.3514699145833333
        },
        {
          "name": "G#3",
          "midi": 56,
          "time": 101.29392350000036,
          "velocity": 0.6299212598425197,
          "duration": 0.3514699145833333
        },
        {
          "name": "G#4",
          "midi": 68,
          "time": 101.64686400000036,
          "velocity": 0.6299212598425197,
          "duration": 0.3514699145833333
        },
        {
          "name": "G#3",
          "midi": 56,
          "time": 101.64686400000036,
          "velocity": 0.6299212598425197,
          "duration": 0.3514699145833333
        },
        {
          "name": "G#4",
          "midi": 68,
          "time": 101.99980450000037,
          "velocity": 0.6299212598425197,
          "duration": 0.3514699145833333
        },
        {
          "name": "G#3",
          "midi": 56,
          "time": 101.99980450000037,
          "velocity": 0.6299212598425197,
          "duration": 0.3514699145833333
        },
        {
          "name": "G#4",
          "midi": 68,
          "time": 102.35274500000037,
          "velocity": 0.6299212598425197,
          "duration": 0.3514699145833333
        },
        {
          "name": "G#3",
          "midi": 56,
          "time": 102.35274500000037,
          "velocity": 0.6299212598425197,
          "duration": 0.3514699145833333
        },
        {
          "name": "G#4",
          "midi": 68,
          "time": 102.70568550000037,
          "velocity": 0.6299212598425197,
          "duration": 0.3514699145833333
        },
        {
          "name": "G#3",
          "midi": 56,
          "time": 102.70568550000037,
          "velocity": 0.6299212598425197,
          "duration": 0.3514699145833333
        },
        {
          "name": "D#4",
          "midi": 63,
          "time": 103.05862600000037,
          "velocity": 0.6299212598425197,
          "duration": 0.7044104145833359
        },
        {
          "name": "G#4",
          "midi": 68,
          "time": 103.05862600000037,
          "velocity": 0.6299212598425197,
          "duration": 0.3514699145833333
        },
        {
          "name": "G#3",
          "midi": 56,
          "time": 103.05862600000037,
          "velocity": 0.6299212598425197,
          "duration": 0.3514699145833333
        },
        {
          "name": "G#4",
          "midi": 68,
          "time": 103.41156650000038,
          "velocity": 0.6299212598425197,
          "duration": 0.3514699145833333
        },
        {
          "name": "G#3",
          "midi": 56,
          "time": 103.41156650000038,
          "velocity": 0.6299212598425197,
          "duration": 0.3514699145833333
        },
        {
          "name": "C#4",
          "midi": 61,
          "time": 103.76450700000038,
          "velocity": 0.6299212598425197,
          "duration": 1.410291414583341
        },
        {
          "name": "G#4",
          "midi": 68,
          "time": 103.76450700000038,
          "velocity": 0.6299212598425197,
          "duration": 0.3514699145833333
        },
        {
          "name": "G#3",
          "midi": 56,
          "time": 103.76450700000038,
          "velocity": 0.6299212598425197,
          "duration": 0.3514699145833333
        },
        {
          "name": "G#4",
          "midi": 68,
          "time": 104.11744750000038,
          "velocity": 0.6299212598425197,
          "duration": 0.3514699145833333
        },
        {
          "name": "G#3",
          "midi": 56,
          "time": 104.11744750000038,
          "velocity": 0.6299212598425197,
          "duration": 0.3514699145833333
        },
        {
          "name": "G#4",
          "midi": 68,
          "time": 104.47038800000038,
          "velocity": 0.6299212598425197,
          "duration": 0.3514699145833333
        },
        {
          "name": "G#3",
          "midi": 56,
          "time": 104.47038800000038,
          "velocity": 0.6299212598425197,
          "duration": 0.3514699145833333
        },
        {
          "name": "G#4",
          "midi": 68,
          "time": 104.82332850000039,
          "velocity": 0.6299212598425197,
          "duration": 0.3514699145833333
        },
        {
          "name": "G#3",
          "midi": 56,
          "time": 104.82332850000039,
          "velocity": 0.6299212598425197,
          "duration": 0.3514699145833333
        },
        {
          "name": "D#4",
          "midi": 63,
          "time": 105.17626900000039,
          "velocity": 0.6299212598425197,
          "duration": 0.7044104145833359
        },
        {
          "name": "G#4",
          "midi": 68,
          "time": 105.17626900000039,
          "velocity": 0.6299212598425197,
          "duration": 0.3514699145833333
        },
        {
          "name": "G#3",
          "midi": 56,
          "time": 105.17626900000039,
          "velocity": 0.6299212598425197,
          "duration": 0.3514699145833333
        },
        {
          "name": "G#4",
          "midi": 68,
          "time": 105.52920950000039,
          "velocity": 0.6299212598425197,
          "duration": 0.3514699145833333
        },
        {
          "name": "G#3",
          "midi": 56,
          "time": 105.52920950000039,
          "velocity": 0.6299212598425197,
          "duration": 0.3514699145833333
        },
        {
          "name": "E4",
          "midi": 64,
          "time": 105.8821500000004,
          "velocity": 0.6299212598425197,
          "duration": 0.7044104145833359
        },
        {
          "name": "G#4",
          "midi": 68,
          "time": 105.8821500000004,
          "velocity": 0.6299212598425197,
          "duration": 0.3514699145833333
        },
        {
          "name": "G#3",
          "midi": 56,
          "time": 105.8821500000004,
          "velocity": 0.6299212598425197,
          "duration": 0.3514699145833333
        },
        {
          "name": "G#4",
          "midi": 68,
          "time": 106.2350905000004,
          "velocity": 0.6299212598425197,
          "duration": 0.3514699145833333
        },
        {
          "name": "G#3",
          "midi": 56,
          "time": 106.2350905000004,
          "velocity": 0.6299212598425197,
          "duration": 0.3514699145833333
        },
        {
          "name": "D#4",
          "midi": 63,
          "time": 106.5880310000004,
          "velocity": 0.6299212598425197,
          "duration": 0.7044104145833359
        },
        {
          "name": "G#4",
          "midi": 68,
          "time": 106.5880310000004,
          "velocity": 0.6299212598425197,
          "duration": 0.3514699145833333
        },
        {
          "name": "G#3",
          "midi": 56,
          "time": 106.5880310000004,
          "velocity": 0.6299212598425197,
          "duration": 0.3514699145833333
        },
        {
          "name": "G#4",
          "midi": 68,
          "time": 106.9409715000004,
          "velocity": 0.6299212598425197,
          "duration": 0.3514699145833333
        },
        {
          "name": "G#3",
          "midi": 56,
          "time": 106.9409715000004,
          "velocity": 0.6299212598425197,
          "duration": 0.3514699145833333
        },
        {
          "name": "D#4",
          "midi": 63,
          "time": 107.2939120000004,
          "velocity": 0.6299212598425197,
          "duration": 2.822053414583351
        },
        {
          "name": "G#4",
          "midi": 68,
          "time": 107.2939120000004,
          "velocity": 0.6299212598425197,
          "duration": 0.3514699145833333
        },
        {
          "name": "G#3",
          "midi": 56,
          "time": 107.2939120000004,
          "velocity": 0.6299212598425197,
          "duration": 0.3514699145833333
        },
        {
          "name": "G#4",
          "midi": 68,
          "time": 107.6468525000004,
          "velocity": 0.6299212598425197,
          "duration": 0.3514699145833333
        },
        {
          "name": "G#3",
          "midi": 56,
          "time": 107.6468525000004,
          "velocity": 0.6299212598425197,
          "duration": 0.3514699145833333
        },
        {
          "name": "G#4",
          "midi": 68,
          "time": 107.99979300000041,
          "velocity": 0.6299212598425197,
          "duration": 0.3514699145833333
        },
        {
          "name": "G#3",
          "midi": 56,
          "time": 107.99979300000041,
          "velocity": 0.6299212598425197,
          "duration": 0.3514699145833333
        },
        {
          "name": "G#4",
          "midi": 68,
          "time": 108.35273350000041,
          "velocity": 0.6299212598425197,
          "duration": 0.3514699145833333
        },
        {
          "name": "G#3",
          "midi": 56,
          "time": 108.35273350000041,
          "velocity": 0.6299212598425197,
          "duration": 0.3514699145833333
        },
        {
          "name": "G#4",
          "midi": 68,
          "time": 108.70567400000041,
          "velocity": 0.6299212598425197,
          "duration": 0.3514699145833333
        },
        {
          "name": "G#3",
          "midi": 56,
          "time": 108.70567400000041,
          "velocity": 0.6299212598425197,
          "duration": 0.3514699145833333
        },
        {
          "name": "G#4",
          "midi": 68,
          "time": 109.05861450000042,
          "velocity": 0.6299212598425197,
          "duration": 0.3514699145833333
        },
        {
          "name": "G#3",
          "midi": 56,
          "time": 109.05861450000042,
          "velocity": 0.6299212598425197,
          "duration": 0.3514699145833333
        },
        {
          "name": "G#4",
          "midi": 68,
          "time": 109.41155500000042,
          "velocity": 0.6299212598425197,
          "duration": 0.3514699145833333
        },
        {
          "name": "G#3",
          "midi": 56,
          "time": 109.41155500000042,
          "velocity": 0.6299212598425197,
          "duration": 0.3514699145833333
        },
        {
          "name": "G#4",
          "midi": 68,
          "time": 109.76449550000042,
          "velocity": 0.6299212598425197,
          "duration": 0.3514699145833333
        },
        {
          "name": "G#3",
          "midi": 56,
          "time": 109.76449550000042,
          "velocity": 0.6299212598425197,
          "duration": 0.3514699145833333
        },
        {
          "name": "G#4",
          "midi": 68,
          "time": 110.11743600000042,
          "velocity": 0.6299212598425197,
          "duration": 1.410291414583341
        },
        {
          "name": "E4",
          "midi": 64,
          "time": 110.11743600000042,
          "velocity": 0.6299212598425197,
          "duration": 1.410291414583341
        },
        {
          "name": "B4",
          "midi": 71,
          "time": 110.11743600000042,
          "velocity": 0.6299212598425197,
          "duration": 0.3514699145833333
        },
        {
          "name": "B3",
          "midi": 59,
          "time": 110.11743600000042,
          "velocity": 0.6299212598425197,
          "duration": 0.3514699145833333
        },
        {
          "name": "B4",
          "midi": 71,
          "time": 110.47037650000043,
          "velocity": 0.6299212598425197,
          "duration": 0.3514699145833333
        },
        {
          "name": "B3",
          "midi": 59,
          "time": 110.47037650000043,
          "velocity": 0.6299212598425197,
          "duration": 0.3514699145833333
        },
        {
          "name": "B4",
          "midi": 71,
          "time": 110.82331700000043,
          "velocity": 0.6299212598425197,
          "duration": 0.3514699145833333
        },
        {
          "name": "B3",
          "midi": 59,
          "time": 110.82331700000043,
          "velocity": 0.6299212598425197,
          "duration": 0.3514699145833333
        },
        {
          "name": "B4",
          "midi": 71,
          "time": 111.17625750000043,
          "velocity": 0.6299212598425197,
          "duration": 0.3514699145833333
        },
        {
          "name": "B3",
          "midi": 59,
          "time": 111.17625750000043,
          "velocity": 0.6299212598425197,
          "duration": 0.3514699145833333
        },
        {
          "name": "G#4",
          "midi": 68,
          "time": 111.52919800000043,
          "velocity": 0.6299212598425197,
          "duration": 1.410291414583341
        },
        {
          "name": "D#4",
          "midi": 63,
          "time": 111.52919800000043,
          "velocity": 0.6299212598425197,
          "duration": 1.410291414583341
        },
        {
          "name": "B4",
          "midi": 71,
          "time": 111.52919800000043,
          "velocity": 0.6299212598425197,
          "duration": 0.3514699145833333
        },
        {
          "name": "B3",
          "midi": 59,
          "time": 111.52919800000043,
          "velocity": 0.6299212598425197,
          "duration": 0.3514699145833333
        },
        {
          "name": "B4",
          "midi": 71,
          "time": 111.88213850000044,
          "velocity": 0.6299212598425197,
          "duration": 0.3514699145833333
        },
        {
          "name": "B3",
          "midi": 59,
          "time": 111.88213850000044,
          "velocity": 0.6299212598425197,
          "duration": 0.3514699145833333
        },
        {
          "name": "B4",
          "midi": 71,
          "time": 112.23507900000044,
          "velocity": 0.6299212598425197,
          "duration": 0.3514699145833333
        },
        {
          "name": "B3",
          "midi": 59,
          "time": 112.23507900000044,
          "velocity": 0.6299212598425197,
          "duration": 0.3514699145833333
        },
        {
          "name": "B4",
          "midi": 71,
          "time": 112.58801950000044,
          "velocity": 0.6299212598425197,
          "duration": 0.3514699145833333
        },
        {
          "name": "B3",
          "midi": 59,
          "time": 112.58801950000044,
          "velocity": 0.6299212598425197,
          "duration": 0.3514699145833333
        },
        {
          "name": "G#4",
          "midi": 68,
          "time": 112.94096000000044,
          "velocity": 0.6299212598425197,
          "duration": 1.410291414583341
        },
        {
          "name": "E4",
          "midi": 64,
          "time": 112.94096000000044,
          "velocity": 0.6299212598425197,
          "duration": 1.410291414583341
        },
        {
          "name": "B4",
          "midi": 71,
          "time": 112.94096000000044,
          "velocity": 0.6299212598425197,
          "duration": 0.3514699145833333
        },
        {
          "name": "B3",
          "midi": 59,
          "time": 112.94096000000044,
          "velocity": 0.6299212598425197,
          "duration": 0.3514699145833333
        },
        {
          "name": "B4",
          "midi": 71,
          "time": 113.29390050000045,
          "velocity": 0.6299212598425197,
          "duration": 0.3514699145833333
        },
        {
          "name": "B3",
          "midi": 59,
          "time": 113.29390050000045,
          "velocity": 0.6299212598425197,
          "duration": 0.3514699145833333
        },
        {
          "name": "B4",
          "midi": 71,
          "time": 113.64684100000045,
          "velocity": 0.6299212598425197,
          "duration": 0.3514699145833333
        },
        {
          "name": "B3",
          "midi": 59,
          "time": 113.64684100000045,
          "velocity": 0.6299212598425197,
          "duration": 0.3514699145833333
        },
        {
          "name": "B4",
          "midi": 71,
          "time": 113.99978150000045,
          "velocity": 0.6299212598425197,
          "duration": 0.3514699145833333
        },
        {
          "name": "B3",
          "midi": 59,
          "time": 113.99978150000045,
          "velocity": 0.6299212598425197,
          "duration": 0.3514699145833333
        },
        {
          "name": "G#4",
          "midi": 68,
          "time": 114.35272200000045,
          "velocity": 0.6299212598425197,
          "duration": 1.410291414583341
        },
        {
          "name": "D#4",
          "midi": 63,
          "time": 114.35272200000045,
          "velocity": 0.6299212598425197,
          "duration": 1.410291414583341
        },
        {
          "name": "B4",
          "midi": 71,
          "time": 114.35272200000045,
          "velocity": 0.6299212598425197,
          "duration": 0.3514699145833333
        },
        {
          "name": "B3",
          "midi": 59,
          "time": 114.35272200000045,
          "velocity": 0.6299212598425197,
          "duration": 0.3514699145833333
        },
        {
          "name": "B4",
          "midi": 71,
          "time": 114.70566250000046,
          "velocity": 0.6299212598425197,
          "duration": 0.3514699145833333
        },
        {
          "name": "B3",
          "midi": 59,
          "time": 114.70566250000046,
          "velocity": 0.6299212598425197,
          "duration": 0.3514699145833333
        },
        {
          "name": "B4",
          "midi": 71,
          "time": 115.05860300000046,
          "velocity": 0.6299212598425197,
          "duration": 0.3514699145833333
        },
        {
          "name": "B3",
          "midi": 59,
          "time": 115.05860300000046,
          "velocity": 0.6299212598425197,
          "duration": 0.3514699145833333
        },
        {
          "name": "B4",
          "midi": 71,
          "time": 115.41154350000046,
          "velocity": 0.6299212598425197,
          "duration": 0.3514699145833333
        },
        {
          "name": "B3",
          "midi": 59,
          "time": 115.41154350000046,
          "velocity": 0.6299212598425197,
          "duration": 0.3514699145833333
        },
        {
          "name": "G#4",
          "midi": 68,
          "time": 115.76448400000046,
          "velocity": 0.6299212598425197,
          "duration": 1.410291414583341
        },
        {
          "name": "D#4",
          "midi": 63,
          "time": 115.76448400000046,
          "velocity": 0.6299212598425197,
          "duration": 1.410291414583341
        },
        {
          "name": "B4",
          "midi": 71,
          "time": 115.76448400000046,
          "velocity": 0.6299212598425197,
          "duration": 0.3514699145833333
        },
        {
          "name": "B3",
          "midi": 59,
          "time": 115.76448400000046,
          "velocity": 0.6299212598425197,
          "duration": 0.3514699145833333
        },
        {
          "name": "B4",
          "midi": 71,
          "time": 116.11742450000047,
          "velocity": 0.6299212598425197,
          "duration": 0.3514699145833333
        },
        {
          "name": "B3",
          "midi": 59,
          "time": 116.11742450000047,
          "velocity": 0.6299212598425197,
          "duration": 0.3514699145833333
        },
        {
          "name": "B4",
          "midi": 71,
          "time": 116.47036500000047,
          "velocity": 0.6299212598425197,
          "duration": 0.3514699145833333
        },
        {
          "name": "B3",
          "midi": 59,
          "time": 116.47036500000047,
          "velocity": 0.6299212598425197,
          "duration": 0.3514699145833333
        },
        {
          "name": "B4",
          "midi": 71,
          "time": 116.82330550000047,
          "velocity": 0.6299212598425197,
          "duration": 0.3514699145833333
        },
        {
          "name": "B3",
          "midi": 59,
          "time": 116.82330550000047,
          "velocity": 0.6299212598425197,
          "duration": 0.3514699145833333
        },
        {
          "name": "G4",
          "midi": 67,
          "time": 117.17624600000048,
          "velocity": 0.6299212598425197,
          "duration": 1.410291414583341
        },
        {
          "name": "D#4",
          "midi": 63,
          "time": 117.17624600000048,
          "velocity": 0.6299212598425197,
          "duration": 1.410291414583341
        },
        {
          "name": "B4",
          "midi": 71,
          "time": 117.17624600000048,
          "velocity": 0.6299212598425197,
          "duration": 0.3514699145833333
        },
        {
          "name": "B3",
          "midi": 59,
          "time": 117.17624600000048,
          "velocity": 0.6299212598425197,
          "duration": 0.3514699145833333
        },
        {
          "name": "B4",
          "midi": 71,
          "time": 117.52918650000048,
          "velocity": 0.6299212598425197,
          "duration": 0.3514699145833333
        },
        {
          "name": "B3",
          "midi": 59,
          "time": 117.52918650000048,
          "velocity": 0.6299212598425197,
          "duration": 0.3514699145833333
        },
        {
          "name": "B4",
          "midi": 71,
          "time": 117.88212700000048,
          "velocity": 0.6299212598425197,
          "duration": 0.3514699145833333
        },
        {
          "name": "B3",
          "midi": 59,
          "time": 117.88212700000048,
          "velocity": 0.6299212598425197,
          "duration": 0.3514699145833333
        },
        {
          "name": "B4",
          "midi": 71,
          "time": 118.23506750000048,
          "velocity": 0.6299212598425197,
          "duration": 0.3514699145833333
        },
        {
          "name": "B3",
          "midi": 59,
          "time": 118.23506750000048,
          "velocity": 0.6299212598425197,
          "duration": 0.3514699145833333
        },
        {
          "name": "B4",
          "midi": 71,
          "time": 118.58800800000049,
          "velocity": 0.6299212598425197,
          "duration": 0.3514699145833333
        },
        {
          "name": "G#4",
          "midi": 68,
          "time": 118.58800800000049,
          "velocity": 0.6299212598425197,
          "duration": 0.3514699145833333
        },
        {
          "name": "D#4",
          "midi": 63,
          "time": 118.58800800000049,
          "velocity": 0.6299212598425197,
          "duration": 0.3514699145833333
        },
        {
          "name": "B3",
          "midi": 59,
          "time": 118.58800800000049,
          "velocity": 0.6299212598425197,
          "duration": 0.3514699145833333
        },
        {
          "name": "G#3",
          "midi": 56,
          "time": 118.94094850000049,
          "velocity": 0.6299212598425197,
          "duration": 0.3514699145833333
        },
        {
          "name": "G#3",
          "midi": 56,
          "time": 119.29388900000049,
          "velocity": 0.6299212598425197,
          "duration": 0.3514699145833333
        },
        {
          "name": "G#3",
          "midi": 56,
          "time": 119.64682950000049,
          "velocity": 0.6299212598425197,
          "duration": 0.3514699145833333
        },
        {
          "name": "G#3",
          "midi": 56,
          "time": 119.9997700000005,
          "velocity": 0.6299212598425197,
          "duration": 0.3514699145833333
        },
        {
          "name": "G#3",
          "midi": 56,
          "time": 120.3527105000005,
          "velocity": 0.6299212598425197,
          "duration": 0.3514699145833333
        },
        {
          "name": "G#3",
          "midi": 56,
          "time": 120.7056510000005,
          "velocity": 0.6299212598425197,
          "duration": 0.3514699145833333
        },
        {
          "name": "G#3",
          "midi": 56,
          "time": 121.0585915000005,
          "velocity": 0.6299212598425197,
          "duration": 0.3514699145833333
        },
        {
          "name": "G#3",
          "midi": 56,
          "time": 121.4115320000005,
          "velocity": 0.6299212598425197,
          "duration": 0.3514699145833333
        },
        {
          "name": "G#3",
          "midi": 56,
          "time": 121.76447250000051,
          "velocity": 0.6299212598425197,
          "duration": 0.3514699145833333
        },
        {
          "name": "G#3",
          "midi": 56,
          "time": 122.11741300000051,
          "velocity": 0.6299212598425197,
          "duration": 0.3514699145833333
        },
        {
          "name": "G#3",
          "midi": 56,
          "time": 122.47035350000051,
          "velocity": 0.6299212598425197,
          "duration": 0.3514699145833333
        },
        {
          "name": "G#3",
          "midi": 56,
          "time": 122.82329400000052,
          "velocity": 0.6299212598425197,
          "duration": 0.3514699145833333
        },
        {
          "name": "G#3",
          "midi": 56,
          "time": 123.17623450000052,
          "velocity": 0.6299212598425197,
          "duration": 0.3514699145833333
        },
        {
          "name": "G#3",
          "midi": 56,
          "time": 123.52917500000052,
          "velocity": 0.6299212598425197,
          "duration": 0.3514699145833333
        },
        {
          "name": "G#3",
          "midi": 56,
          "time": 123.88211550000052,
          "velocity": 0.6299212598425197,
          "duration": 0.3514699145833333
        },
        {
          "name": "G#3",
          "midi": 56,
          "time": 124.23505600000053,
          "velocity": 0.6299212598425197,
          "duration": 0.3514699145833333
        },
        {
          "name": "G#3",
          "midi": 56,
          "time": 124.58799650000053,
          "velocity": 0.6299212598425197,
          "duration": 0.3514699145833333
        },
        {
          "name": "G#3",
          "midi": 56,
          "time": 124.94093700000053,
          "velocity": 0.6299212598425197,
          "duration": 0.3514699145833333
        },
        {
          "name": "G#3",
          "midi": 56,
          "time": 125.29387750000053,
          "velocity": 0.6299212598425197,
          "duration": 0.3514699145833333
        },
        {
          "name": "G#3",
          "midi": 56,
          "time": 125.64681800000054,
          "velocity": 0.6299212598425197,
          "duration": 0.3514699145833333
        },
        {
          "name": "G#3",
          "midi": 56,
          "time": 125.99975850000054,
          "velocity": 0.6299212598425197,
          "duration": 0.3514699145833333
        },
        {
          "name": "G#3",
          "midi": 56,
          "time": 126.35269900000054,
          "velocity": 0.6299212598425197,
          "duration": 0.3514699145833333
        },
        {
          "name": "G#3",
          "midi": 56,
          "time": 126.70563950000054,
          "velocity": 0.6299212598425197,
          "duration": 0.3514699145833333
        },
        {
          "name": "G#3",
          "midi": 56,
          "time": 127.05858000000055,
          "velocity": 0.6299212598425197,
          "duration": 0.3514699145833333
        },
        {
          "name": "G#3",
          "midi": 56,
          "time": 127.41152050000055,
          "velocity": 0.6299212598425197,
          "duration": 0.3514699145833333
        },
        {
          "name": "G#3",
          "midi": 56,
          "time": 127.76446100000055,
          "velocity": 0.6299212598425197,
          "duration": 0.3514699145833333
        },
        {
          "name": "G#3",
          "midi": 56,
          "time": 128.11740150000054,
          "velocity": 0.6299212598425197,
          "duration": 0.3514699145833333
        },
        {
          "name": "G#3",
          "midi": 56,
          "time": 128.47034200000053,
          "velocity": 0.6299212598425197,
          "duration": 0.3514699145833333
        },
        {
          "name": "G#3",
          "midi": 56,
          "time": 128.82328250000052,
          "velocity": 0.6299212598425197,
          "duration": 0.3514699145833333
        },
        {
          "name": "G#3",
          "midi": 56,
          "time": 129.1762230000005,
          "velocity": 0.6299212598425197,
          "duration": 0.3514699145833333
        },
        {
          "name": "G#3",
          "midi": 56,
          "time": 129.5291635000005,
          "velocity": 0.6299212598425197,
          "duration": 0.3514699145833333
        },
        {
          "name": "G#3",
          "midi": 56,
          "time": 129.88210400000048,
          "velocity": 0.6299212598425197,
          "duration": 0.3514699145833333
        },
        {
          "name": "G#3",
          "midi": 56,
          "time": 130.23504450000047,
          "velocity": 0.6299212598425197,
          "duration": 0.3514699145833333
        },
        {
          "name": "G#3",
          "midi": 56,
          "time": 130.58798500000046,
          "velocity": 0.6299212598425197,
          "duration": 0.3514699145833333
        },
        {
          "name": "G#3",
          "midi": 56,
          "time": 130.94092550000045,
          "velocity": 0.6299212598425197,
          "duration": 0.3514699145833333
        },
        {
          "name": "G#3",
          "midi": 56,
          "time": 131.29386600000043,
          "velocity": 0.6299212598425197,
          "duration": 0.3514699145833333
        },
        {
          "name": "G#3",
          "midi": 56,
          "time": 131.64680650000042,
          "velocity": 0.6299212598425197,
          "duration": 0.3514699145833333
        },
        {
          "name": "G#3",
          "midi": 56,
          "time": 131.9997470000004,
          "velocity": 0.6299212598425197,
          "duration": 0.3514699145833333
        },
        {
          "name": "G#3",
          "midi": 56,
          "time": 132.3526875000004,
          "velocity": 0.6299212598425197,
          "duration": 0.3514699145833333
        },
        {
          "name": "G#3",
          "midi": 56,
          "time": 132.7056280000004,
          "velocity": 0.6299212598425197,
          "duration": 0.3514699145833333
        },
        {
          "name": "G#3",
          "midi": 56,
          "time": 133.05856850000038,
          "velocity": 0.6299212598425197,
          "duration": 0.3514699145833333
        },
        {
          "name": "G#3",
          "midi": 56,
          "time": 133.41150900000036,
          "velocity": 0.6299212598425197,
          "duration": 0.3514699145833333
        },
        {
          "name": "G#3",
          "midi": 56,
          "time": 133.76444950000035,
          "velocity": 0.6299212598425197,
          "duration": 0.3514699145833333
        },
        {
          "name": "G#3",
          "midi": 56,
          "time": 134.11739000000034,
          "velocity": 0.6299212598425197,
          "duration": 0.3514699145833333
        },
        {
          "name": "G#3",
          "midi": 56,
          "time": 134.47033050000033,
          "velocity": 0.6299212598425197,
          "duration": 0.3514699145833333
        },
        {
          "name": "G#3",
          "midi": 56,
          "time": 134.82327100000032,
          "velocity": 0.6299212598425197,
          "duration": 0.3514699145833333
        },
        {
          "name": "G#3",
          "midi": 56,
          "time": 135.1762115000003,
          "velocity": 0.6299212598425197,
          "duration": 0.3514699145833333
        },
        {
          "name": "G#3",
          "midi": 56,
          "time": 135.5291520000003,
          "velocity": 0.6299212598425197,
          "duration": 0.3514699145833333
        },
        {
          "name": "G#3",
          "midi": 56,
          "time": 135.88209250000028,
          "velocity": 0.6299212598425197,
          "duration": 0.3514699145833333
        },
        {
          "name": "G#3",
          "midi": 56,
          "time": 136.23503300000027,
          "velocity": 0.6299212598425197,
          "duration": 0.3514699145833333
        },
        {
          "name": "G#3",
          "midi": 56,
          "time": 136.58797350000026,
          "velocity": 0.6299212598425197,
          "duration": 0.3514699145833333
        },
        {
          "name": "G#3",
          "midi": 56,
          "time": 136.94091400000025,
          "velocity": 0.6299212598425197,
          "duration": 0.3514699145833333
        },
        {
          "name": "G#3",
          "midi": 56,
          "time": 137.29385450000024,
          "velocity": 0.6299212598425197,
          "duration": 0.3514699145833333
        },
        {
          "name": "G#3",
          "midi": 56,
          "time": 137.64679500000022,
          "velocity": 0.6299212598425197,
          "duration": 0.3514699145833333
        },
        {
          "name": "G#3",
          "midi": 56,
          "time": 137.9997355000002,
          "velocity": 0.6299212598425197,
          "duration": 0.3514699145833333
        },
        {
          "name": "G#3",
          "midi": 56,
          "time": 138.3526760000002,
          "velocity": 0.6299212598425197,
          "duration": 0.3514699145833333
        },
        {
          "name": "G#3",
          "midi": 56,
          "time": 138.7056165000002,
          "velocity": 0.6299212598425197,
          "duration": 0.3514699145833333
        },
        {
          "name": "G#3",
          "midi": 56,
          "time": 139.05855700000018,
          "velocity": 0.6299212598425197,
          "duration": 0.3514699145833333
        },
        {
          "name": "G#3",
          "midi": 56,
          "time": 139.41149750000017,
          "velocity": 0.6299212598425197,
          "duration": 0.3514699145833333
        },
        {
          "name": "G#3",
          "midi": 56,
          "time": 139.76443800000015,
          "velocity": 0.6299212598425197,
          "duration": 0.3514699145833333
        },
        {
          "name": "G#3",
          "midi": 56,
          "time": 140.11737850000014,
          "velocity": 0.6299212598425197,
          "duration": 0.3514699145833333
        },
        {
          "name": "G#3",
          "midi": 56,
          "time": 140.47031900000013,
          "velocity": 0.6299212598425197,
          "duration": 0.3514699145833333
        },
        {
          "name": "G#3",
          "midi": 56,
          "time": 140.82325950000012,
          "velocity": 0.6299212598425197,
          "duration": 0.3514699145833333
        },
        {
          "name": "G#3",
          "midi": 56,
          "time": 141.1762000000001,
          "velocity": 0.6299212598425197,
          "duration": 0.3514699145833333
        },
        {
          "name": "G#4",
          "midi": 68,
          "time": 141.5291405000001,
          "velocity": 0.6299212598425197,
          "duration": 0.3514699145833333
        },
        {
          "name": "G#3",
          "midi": 56,
          "time": 141.5291405000001,
          "velocity": 0.6299212598425197,
          "duration": 0.3514699145833333
        },
        {
          "name": "G#4",
          "midi": 68,
          "time": 141.88208100000008,
          "velocity": 0.6299212598425197,
          "duration": 0.3514699145833333
        },
        {
          "name": "G#3",
          "midi": 56,
          "time": 141.88208100000008,
          "velocity": 0.6299212598425197,
          "duration": 0.3514699145833333
        },
        {
          "name": "G#4",
          "midi": 68,
          "time": 142.23502150000007,
          "velocity": 0.6299212598425197,
          "duration": 0.3514699145833333
        },
        {
          "name": "G#3",
          "midi": 56,
          "time": 142.23502150000007,
          "velocity": 0.6299212598425197,
          "duration": 0.3514699145833333
        },
        {
          "name": "G#4",
          "midi": 68,
          "time": 142.58796200000006,
          "velocity": 0.6299212598425197,
          "duration": 0.3514699145833333
        },
        {
          "name": "G#3",
          "midi": 56,
          "time": 142.58796200000006,
          "velocity": 0.6299212598425197,
          "duration": 0.3514699145833333
        },
        {
          "name": "G#4",
          "midi": 68,
          "time": 142.94090250000005,
          "velocity": 0.6299212598425197,
          "duration": 0.3514699145833333
        },
        {
          "name": "G#3",
          "midi": 56,
          "time": 142.94090250000005,
          "velocity": 0.6299212598425197,
          "duration": 0.3514699145833333
        },
        {
          "name": "G#4",
          "midi": 68,
          "time": 143.29384300000004,
          "velocity": 0.6299212598425197,
          "duration": 0.3514699145833333
        },
        {
          "name": "G#3",
          "midi": 56,
          "time": 143.29384300000004,
          "velocity": 0.6299212598425197,
          "duration": 0.3514699145833333
        },
        {
          "name": "G#4",
          "midi": 68,
          "time": 143.64678350000003,
          "velocity": 0.6299212598425197,
          "duration": 0.3514699145833333
        },
        {
          "name": "G#3",
          "midi": 56,
          "time": 143.64678350000003,
          "velocity": 0.6299212598425197,
          "duration": 0.3514699145833333
        },
        {
          "name": "G#4",
          "midi": 68,
          "time": 143.99972400000001,
          "velocity": 0.6299212598425197,
          "duration": 0.3514699145833333
        },
        {
          "name": "G#3",
          "midi": 56,
          "time": 143.99972400000001,
          "velocity": 0.6299212598425197,
          "duration": 0.3514699145833333
        },
        {
          "name": "G#4",
          "midi": 68,
          "time": 144.3526645,
          "velocity": 0.6299212598425197,
          "duration": 0.3514699145833333
        },
        {
          "name": "G#3",
          "midi": 56,
          "time": 144.3526645,
          "velocity": 0.6299212598425197,
          "duration": 0.3514699145833333
        },
        {
          "name": "G#4",
          "midi": 68,
          "time": 144.705605,
          "velocity": 0.6299212598425197,
          "duration": 0.3514699145833333
        },
        {
          "name": "G#3",
          "midi": 56,
          "time": 144.705605,
          "velocity": 0.6299212598425197,
          "duration": 0.3514699145833333
        },
        {
          "name": "G#4",
          "midi": 68,
          "time": 145.05854549999998,
          "velocity": 0.6299212598425197,
          "duration": 0.3514699145833333
        },
        {
          "name": "G#3",
          "midi": 56,
          "time": 145.05854549999998,
          "velocity": 0.6299212598425197,
          "duration": 0.3514699145833333
        },
        {
          "name": "C#4",
          "midi": 61,
          "time": 145.41148599999997,
          "velocity": 0.6299212598425197,
          "duration": 0.7044104145833217
        },
        {
          "name": "G#4",
          "midi": 68,
          "time": 145.41148599999997,
          "velocity": 0.6299212598425197,
          "duration": 0.3514699145833333
        },
        {
          "name": "G#3",
          "midi": 56,
          "time": 145.41148599999997,
          "velocity": 0.6299212598425197,
          "duration": 0.3514699145833333
        },
        {
          "name": "G#4",
          "midi": 68,
          "time": 145.76442649999996,
          "velocity": 0.6299212598425197,
          "duration": 0.3514699145833333
        },
        {
          "name": "G#3",
          "midi": 56,
          "time": 145.76442649999996,
          "velocity": 0.6299212598425197,
          "duration": 0.3514699145833333
        },
        {
          "name": "C4",
          "midi": 60,
          "time": 146.11736699999994,
          "velocity": 0.6299212598425197,
          "duration": 0.7044104145833217
        },
        {
          "name": "G#4",
          "midi": 68,
          "time": 146.11736699999994,
          "velocity": 0.6299212598425197,
          "duration": 0.3514699145833333
        },
        {
          "name": "G#3",
          "midi": 56,
          "time": 146.11736699999994,
          "velocity": 0.6299212598425197,
          "duration": 0.3514699145833333
        },
        {
          "name": "G#4",
          "midi": 68,
          "time": 146.47030749999993,
          "velocity": 0.6299212598425197,
          "duration": 0.3514699145833333
        },
        {
          "name": "G#3",
          "midi": 56,
          "time": 146.47030749999993,
          "velocity": 0.6299212598425197,
          "duration": 0.3514699145833333
        },
        {
          "name": "G#4",
          "midi": 68,
          "time": 146.82324799999992,
          "velocity": 0.6299212598425197,
          "duration": 0.3514699145833333
        },
        {
          "name": "G#3",
          "midi": 56,
          "time": 146.82324799999992,
          "velocity": 0.6299212598425197,
          "duration": 0.3514699145833333
        },
        {
          "name": "G#4",
          "midi": 68,
          "time": 147.1761884999999,
          "velocity": 0.6299212598425197,
          "duration": 0.3514699145833333
        },
        {
          "name": "G#3",
          "midi": 56,
          "time": 147.1761884999999,
          "velocity": 0.6299212598425197,
          "duration": 0.3514699145833333
        },
        {
          "name": "G#4",
          "midi": 68,
          "time": 147.5291289999999,
          "velocity": 0.6299212598425197,
          "duration": 0.3514699145833333
        },
        {
          "name": "G#3",
          "midi": 56,
          "time": 147.5291289999999,
          "velocity": 0.6299212598425197,
          "duration": 0.3514699145833333
        },
        {
          "name": "G#4",
          "midi": 68,
          "time": 147.8820694999999,
          "velocity": 0.6299212598425197,
          "duration": 0.3514699145833333
        },
        {
          "name": "G#3",
          "midi": 56,
          "time": 147.8820694999999,
          "velocity": 0.6299212598425197,
          "duration": 0.3514699145833333
        },
        {
          "name": "D#4",
          "midi": 63,
          "time": 148.23500999999987,
          "velocity": 0.6299212598425197,
          "duration": 0.7044104145833217
        },
        {
          "name": "G#4",
          "midi": 68,
          "time": 148.23500999999987,
          "velocity": 0.6299212598425197,
          "duration": 0.3514699145833333
        },
        {
          "name": "G#3",
          "midi": 56,
          "time": 148.23500999999987,
          "velocity": 0.6299212598425197,
          "duration": 0.3514699145833333
        },
        {
          "name": "G#4",
          "midi": 68,
          "time": 148.58795049999986,
          "velocity": 0.6299212598425197,
          "duration": 0.3514699145833333
        },
        {
          "name": "G#3",
          "midi": 56,
          "time": 148.58795049999986,
          "velocity": 0.6299212598425197,
          "duration": 0.3514699145833333
        },
        {
          "name": "C#4",
          "midi": 61,
          "time": 148.94089099999985,
          "velocity": 0.6299212598425197,
          "duration": 1.4102914145832983
        },
        {
          "name": "G#4",
          "midi": 68,
          "time": 148.94089099999985,
          "velocity": 0.6299212598425197,
          "duration": 0.3514699145833333
        },
        {
          "name": "G#3",
          "midi": 56,
          "time": 148.94089099999985,
          "velocity": 0.6299212598425197,
          "duration": 0.3514699145833333
        },
        {
          "name": "G#4",
          "midi": 68,
          "time": 149.29383149999984,
          "velocity": 0.6299212598425197,
          "duration": 0.3514699145833333
        },
        {
          "name": "G#3",
          "midi": 56,
          "time": 149.29383149999984,
          "velocity": 0.6299212598425197,
          "duration": 0.3514699145833333
        },
        {
          "name": "G#4",
          "midi": 68,
          "time": 149.64677199999983,
          "velocity": 0.6299212598425197,
          "duration": 0.3514699145833333
        },
        {
          "name": "G#3",
          "midi": 56,
          "time": 149.64677199999983,
          "velocity": 0.6299212598425197,
          "duration": 0.3514699145833333
        },
        {
          "name": "G#4",
          "midi": 68,
          "time": 149.99971249999982,
          "velocity": 0.6299212598425197,
          "duration": 0.3514699145833333
        },
        {
          "name": "G#3",
          "midi": 56,
          "time": 149.99971249999982,
          "velocity": 0.6299212598425197,
          "duration": 0.3514699145833333
        },
        {
          "name": "D#4",
          "midi": 63,
          "time": 150.3526529999998,
          "velocity": 0.6299212598425197,
          "duration": 0.7044104145833217
        },
        {
          "name": "G#4",
          "midi": 68,
          "time": 150.3526529999998,
          "velocity": 0.6299212598425197,
          "duration": 0.3514699145833333
        },
        {
          "name": "G#3",
          "midi": 56,
          "time": 150.3526529999998,
          "velocity": 0.6299212598425197,
          "duration": 0.3514699145833333
        },
        {
          "name": "G#4",
          "midi": 68,
          "time": 150.7055934999998,
          "velocity": 0.6299212598425197,
          "duration": 0.3514699145833333
        },
        {
          "name": "G#3",
          "midi": 56,
          "time": 150.7055934999998,
          "velocity": 0.6299212598425197,
          "duration": 0.3514699145833333
        },
        {
          "name": "E4",
          "midi": 64,
          "time": 151.05853399999978,
          "velocity": 0.6299212598425197,
          "duration": 0.7044104145833217
        },
        {
          "name": "G#4",
          "midi": 68,
          "time": 151.05853399999978,
          "velocity": 0.6299212598425197,
          "duration": 0.3514699145833333
        },
        {
          "name": "G#3",
          "midi": 56,
          "time": 151.05853399999978,
          "velocity": 0.6299212598425197,
          "duration": 0.3514699145833333
        },
        {
          "name": "G#4",
          "midi": 68,
          "time": 151.41147449999977,
          "velocity": 0.6299212598425197,
          "duration": 0.3514699145833333
        },
        {
          "name": "G#3",
          "midi": 56,
          "time": 151.41147449999977,
          "velocity": 0.6299212598425197,
          "duration": 0.3514699145833333
        },
        {
          "name": "D#4",
          "midi": 63,
          "time": 151.76441499999976,
          "velocity": 0.6299212598425197,
          "duration": 0.7044104145833217
        },
        {
          "name": "G#4",
          "midi": 68,
          "time": 151.76441499999976,
          "velocity": 0.6299212598425197,
          "duration": 0.3514699145833333
        },
        {
          "name": "G#3",
          "midi": 56,
          "time": 151.76441499999976,
          "velocity": 0.6299212598425197,
          "duration": 0.3514699145833333
        },
        {
          "name": "G#4",
          "midi": 68,
          "time": 152.11735549999975,
          "velocity": 0.6299212598425197,
          "duration": 0.3514699145833333
        },
        {
          "name": "G#3",
          "midi": 56,
          "time": 152.11735549999975,
          "velocity": 0.6299212598425197,
          "duration": 0.3514699145833333
        },
        {
          "name": "D#4",
          "midi": 63,
          "time": 152.47029599999973,
          "velocity": 0.6299212598425197,
          "duration": 2.8220534145832517
        },
        {
          "name": "G#4",
          "midi": 68,
          "time": 152.47029599999973,
          "velocity": 0.6299212598425197,
          "duration": 0.3514699145833333
        },
        {
          "name": "G#3",
          "midi": 56,
          "time": 152.47029599999973,
          "velocity": 0.6299212598425197,
          "duration": 0.3514699145833333
        },
        {
          "name": "G#4",
          "midi": 68,
          "time": 152.82323649999972,
          "velocity": 0.6299212598425197,
          "duration": 0.3514699145833333
        },
        {
          "name": "G#3",
          "midi": 56,
          "time": 152.82323649999972,
          "velocity": 0.6299212598425197,
          "duration": 0.3514699145833333
        },
        {
          "name": "G#4",
          "midi": 68,
          "time": 153.1761769999997,
          "velocity": 0.6299212598425197,
          "duration": 0.3514699145833333
        },
        {
          "name": "G#3",
          "midi": 56,
          "time": 153.1761769999997,
          "velocity": 0.6299212598425197,
          "duration": 0.3514699145833333
        },
        {
          "name": "G#4",
          "midi": 68,
          "time": 153.5291174999997,
          "velocity": 0.6299212598425197,
          "duration": 0.3514699145833333
        },
        {
          "name": "G#3",
          "midi": 56,
          "time": 153.5291174999997,
          "velocity": 0.6299212598425197,
          "duration": 0.3514699145833333
        },
        {
          "name": "G#4",
          "midi": 68,
          "time": 153.8820579999997,
          "velocity": 0.6299212598425197,
          "duration": 0.3514699145833333
        },
        {
          "name": "G#3",
          "midi": 56,
          "time": 153.8820579999997,
          "velocity": 0.6299212598425197,
          "duration": 0.3514699145833333
        },
        {
          "name": "G#4",
          "midi": 68,
          "time": 154.23499849999968,
          "velocity": 0.6299212598425197,
          "duration": 0.3514699145833333
        },
        {
          "name": "G#3",
          "midi": 56,
          "time": 154.23499849999968,
          "velocity": 0.6299212598425197,
          "duration": 0.3514699145833333
        },
        {
          "name": "G#4",
          "midi": 68,
          "time": 154.58793899999966,
          "velocity": 0.6299212598425197,
          "duration": 0.3514699145833333
        },
        {
          "name": "G#3",
          "midi": 56,
          "time": 154.58793899999966,
          "velocity": 0.6299212598425197,
          "duration": 0.3514699145833333
        },
        {
          "name": "G#4",
          "midi": 68,
          "time": 154.94087949999965,
          "velocity": 0.6299212598425197,
          "duration": 0.3514699145833333
        },
        {
          "name": "G#3",
          "midi": 56,
          "time": 154.94087949999965,
          "velocity": 0.6299212598425197,
          "duration": 0.3514699145833333
        },
        {
          "name": "G#4",
          "midi": 68,
          "time": 155.29381999999964,
          "velocity": 0.6299212598425197,
          "duration": 1.4102914145832983
        },
        {
          "name": "E4",
          "midi": 64,
          "time": 155.29381999999964,
          "velocity": 0.6299212598425197,
          "duration": 1.4102914145832983
        },
        {
          "name": "B4",
          "midi": 71,
          "time": 155.29381999999964,
          "velocity": 0.6299212598425197,
          "duration": 0.3514699145833333
        },
        {
          "name": "B3",
          "midi": 59,
          "time": 155.29381999999964,
          "velocity": 0.6299212598425197,
          "duration": 0.3514699145833333
        },
        {
          "name": "B4",
          "midi": 71,
          "time": 155.64676049999963,
          "velocity": 0.6299212598425197,
          "duration": 0.3514699145833333
        },
        {
          "name": "B3",
          "midi": 59,
          "time": 155.64676049999963,
          "velocity": 0.6299212598425197,
          "duration": 0.3514699145833333
        },
        {
          "name": "B4",
          "midi": 71,
          "time": 155.99970099999962,
          "velocity": 0.6299212598425197,
          "duration": 0.3514699145833333
        },
        {
          "name": "B3",
          "midi": 59,
          "time": 155.99970099999962,
          "velocity": 0.6299212598425197,
          "duration": 0.3514699145833333
        },
        {
          "name": "B4",
          "midi": 71,
          "time": 156.3526414999996,
          "velocity": 0.6299212598425197,
          "duration": 0.3514699145833333
        },
        {
          "name": "B3",
          "midi": 59,
          "time": 156.3526414999996,
          "velocity": 0.6299212598425197,
          "duration": 0.3514699145833333
        },
        {
          "name": "G#4",
          "midi": 68,
          "time": 156.7055819999996,
          "velocity": 0.6299212598425197,
          "duration": 1.4102914145832983
        },
        {
          "name": "D#4",
          "midi": 63,
          "time": 156.7055819999996,
          "velocity": 0.6299212598425197,
          "duration": 1.4102914145832983
        },
        {
          "name": "B4",
          "midi": 71,
          "time": 156.7055819999996,
          "velocity": 0.6299212598425197,
          "duration": 0.3514699145833333
        },
        {
          "name": "B3",
          "midi": 59,
          "time": 156.7055819999996,
          "velocity": 0.6299212598425197,
          "duration": 0.3514699145833333
        },
        {
          "name": "B4",
          "midi": 71,
          "time": 157.05852249999958,
          "velocity": 0.6299212598425197,
          "duration": 0.3514699145833333
        },
        {
          "name": "B3",
          "midi": 59,
          "time": 157.05852249999958,
          "velocity": 0.6299212598425197,
          "duration": 0.3514699145833333
        },
        {
          "name": "B4",
          "midi": 71,
          "time": 157.41146299999957,
          "velocity": 0.6299212598425197,
          "duration": 0.3514699145833333
        },
        {
          "name": "B3",
          "midi": 59,
          "time": 157.41146299999957,
          "velocity": 0.6299212598425197,
          "duration": 0.3514699145833333
        },
        {
          "name": "B4",
          "midi": 71,
          "time": 157.76440349999956,
          "velocity": 0.6299212598425197,
          "duration": 0.3514699145833333
        },
        {
          "name": "B3",
          "midi": 59,
          "time": 157.76440349999956,
          "velocity": 0.6299212598425197,
          "duration": 0.3514699145833333
        },
        {
          "name": "G#4",
          "midi": 68,
          "time": 158.11734399999955,
          "velocity": 0.6299212598425197,
          "duration": 1.4102914145832983
        },
        {
          "name": "E4",
          "midi": 64,
          "time": 158.11734399999955,
          "velocity": 0.6299212598425197,
          "duration": 1.4102914145832983
        },
        {
          "name": "B4",
          "midi": 71,
          "time": 158.11734399999955,
          "velocity": 0.6299212598425197,
          "duration": 0.3514699145833333
        },
        {
          "name": "B3",
          "midi": 59,
          "time": 158.11734399999955,
          "velocity": 0.6299212598425197,
          "duration": 0.3514699145833333
        },
        {
          "name": "B4",
          "midi": 71,
          "time": 158.47028449999954,
          "velocity": 0.6299212598425197,
          "duration": 0.3514699145833333
        },
        {
          "name": "B3",
          "midi": 59,
          "time": 158.47028449999954,
          "velocity": 0.6299212598425197,
          "duration": 0.3514699145833333
        },
        {
          "name": "B4",
          "midi": 71,
          "time": 158.82322499999952,
          "velocity": 0.6299212598425197,
          "duration": 0.3514699145833333
        },
        {
          "name": "B3",
          "midi": 59,
          "time": 158.82322499999952,
          "velocity": 0.6299212598425197,
          "duration": 0.3514699145833333
        },
        {
          "name": "B4",
          "midi": 71,
          "time": 159.1761654999995,
          "velocity": 0.6299212598425197,
          "duration": 0.3514699145833333
        },
        {
          "name": "B3",
          "midi": 59,
          "time": 159.1761654999995,
          "velocity": 0.6299212598425197,
          "duration": 0.3514699145833333
        },
        {
          "name": "G#4",
          "midi": 68,
          "time": 159.5291059999995,
          "velocity": 0.6299212598425197,
          "duration": 1.4102914145832983
        },
        {
          "name": "D#4",
          "midi": 63,
          "time": 159.5291059999995,
          "velocity": 0.6299212598425197,
          "duration": 1.4102914145832983
        },
        {
          "name": "B4",
          "midi": 71,
          "time": 159.5291059999995,
          "velocity": 0.6299212598425197,
          "duration": 0.3514699145833333
        },
        {
          "name": "B3",
          "midi": 59,
          "time": 159.5291059999995,
          "velocity": 0.6299212598425197,
          "duration": 0.3514699145833333
        },
        {
          "name": "B4",
          "midi": 71,
          "time": 159.8820464999995,
          "velocity": 0.6299212598425197,
          "duration": 0.3514699145833333
        },
        {
          "name": "B3",
          "midi": 59,
          "time": 159.8820464999995,
          "velocity": 0.6299212598425197,
          "duration": 0.3514699145833333
        },
        {
          "name": "B4",
          "midi": 71,
          "time": 160.23498699999948,
          "velocity": 0.6299212598425197,
          "duration": 0.3514699145833333
        },
        {
          "name": "B3",
          "midi": 59,
          "time": 160.23498699999948,
          "velocity": 0.6299212598425197,
          "duration": 0.3514699145833333
        },
        {
          "name": "B4",
          "midi": 71,
          "time": 160.58792749999947,
          "velocity": 0.6299212598425197,
          "duration": 0.3514699145833333
        },
        {
          "name": "B3",
          "midi": 59,
          "time": 160.58792749999947,
          "velocity": 0.6299212598425197,
          "duration": 0.3514699145833333
        },
        {
          "name": "G#4",
          "midi": 68,
          "time": 160.94086799999945,
          "velocity": 0.6299212598425197,
          "duration": 1.4102914145832983
        },
        {
          "name": "D#4",
          "midi": 63,
          "time": 160.94086799999945,
          "velocity": 0.6299212598425197,
          "duration": 1.4102914145832983
        },
        {
          "name": "B4",
          "midi": 71,
          "time": 160.94086799999945,
          "velocity": 0.6299212598425197,
          "duration": 0.3514699145833333
        },
        {
          "name": "B3",
          "midi": 59,
          "time": 160.94086799999945,
          "velocity": 0.6299212598425197,
          "duration": 0.3514699145833333
        },
        {
          "name": "B4",
          "midi": 71,
          "time": 161.29380849999944,
          "velocity": 0.6299212598425197,
          "duration": 0.3514699145833333
        },
        {
          "name": "B3",
          "midi": 59,
          "time": 161.29380849999944,
          "velocity": 0.6299212598425197,
          "duration": 0.3514699145833333
        },
        {
          "name": "B4",
          "midi": 71,
          "time": 161.64674899999943,
          "velocity": 0.6299212598425197,
          "duration": 0.3514699145833333
        },
        {
          "name": "B3",
          "midi": 59,
          "time": 161.64674899999943,
          "velocity": 0.6299212598425197,
          "duration": 0.3514699145833333
        },
        {
          "name": "B4",
          "midi": 71,
          "time": 161.99968949999942,
          "velocity": 0.6299212598425197,
          "duration": 0.3514699145833333
        },
        {
          "name": "B3",
          "midi": 59,
          "time": 161.99968949999942,
          "velocity": 0.6299212598425197,
          "duration": 0.3514699145833333
        },
        {
          "name": "G4",
          "midi": 67,
          "time": 162.3526299999994,
          "velocity": 0.6299212598425197,
          "duration": 1.4102914145832983
        },
        {
          "name": "D#4",
          "midi": 63,
          "time": 162.3526299999994,
          "velocity": 0.6299212598425197,
          "duration": 1.4102914145832983
        },
        {
          "name": "B4",
          "midi": 71,
          "time": 162.3526299999994,
          "velocity": 0.6299212598425197,
          "duration": 0.3514699145833333
        },
        {
          "name": "B3",
          "midi": 59,
          "time": 162.3526299999994,
          "velocity": 0.6299212598425197,
          "duration": 0.3514699145833333
        },
        {
          "name": "B4",
          "midi": 71,
          "time": 162.7055704999994,
          "velocity": 0.6299212598425197,
          "duration": 0.3514699145833333
        },
        {
          "name": "B3",
          "midi": 59,
          "time": 162.7055704999994,
          "velocity": 0.6299212598425197,
          "duration": 0.3514699145833333
        },
        {
          "name": "B4",
          "midi": 71,
          "time": 163.05851099999938,
          "velocity": 0.6299212598425197,
          "duration": 0.3514699145833333
        },
        {
          "name": "B3",
          "midi": 59,
          "time": 163.05851099999938,
          "velocity": 0.6299212598425197,
          "duration": 0.3514699145833333
        },
        {
          "name": "B4",
          "midi": 71,
          "time": 163.41145149999937,
          "velocity": 0.6299212598425197,
          "duration": 0.3514699145833333
        },
        {
          "name": "B3",
          "midi": 59,
          "time": 163.41145149999937,
          "velocity": 0.6299212598425197,
          "duration": 0.3514699145833333
        },
        {
          "name": "B4",
          "midi": 71,
          "time": 163.76439199999936,
          "velocity": 0.6299212598425197,
          "duration": 0.3514699145833333
        },
        {
          "name": "G#4",
          "midi": 68,
          "time": 163.76439199999936,
          "velocity": 0.6299212598425197,
          "duration": 0.3514699145833333
        },
        {
          "name": "D#4",
          "midi": 63,
          "time": 163.76439199999936,
          "velocity": 0.6299212598425197,
          "duration": 0.3514699145833333
        },
        {
          "name": "B3",
          "midi": 59,
          "time": 163.76439199999936,
          "velocity": 0.6299212598425197,
          "duration": 0.3514699145833333
        },
        {
          "name": "G#4",
          "midi": 68,
          "time": 164.11733249999935,
          "velocity": 0.6299212598425197,
          "duration": 0.3514699145833333
        },
        {
          "name": "G#4",
          "midi": 68,
          "time": 164.47027299999934,
          "velocity": 0.6299212598425197,
          "duration": 0.3514699145833333
        },
        {
          "name": "G#4",
          "midi": 68,
          "time": 164.82321349999933,
          "velocity": 0.6299212598425197,
          "duration": 0.3514699145833333
        },
        {
          "name": "G#4",
          "midi": 68,
          "time": 165.17615399999931,
          "velocity": 0.6299212598425197,
          "duration": 0.3514699145833333
        },
        {
          "name": "G#4",
          "midi": 68,
          "time": 165.5290944999993,
          "velocity": 0.6299212598425197,
          "duration": 0.3514699145833333
        },
        {
          "name": "G#4",
          "midi": 68,
          "time": 165.8820349999993,
          "velocity": 0.6299212598425197,
          "duration": 0.3514699145833333
        },
        {
          "name": "G#4",
          "midi": 68,
          "time": 166.23497549999928,
          "velocity": 0.6299212598425197,
          "duration": 0.3514699145833333
        },
        {
          "name": "C5",
          "midi": 72,
          "time": 166.58791599999927,
          "velocity": 0.6299212598425197,
          "duration": 1.4102914145832983
        },
        {
          "name": "C4",
          "midi": 60,
          "time": 166.58791599999927,
          "velocity": 0.6299212598425197,
          "duration": 1.4102914145832983
        },
        {
          "name": "G#4",
          "midi": 68,
          "time": 166.58791599999927,
          "velocity": 0.6299212598425197,
          "duration": 0.3514699145833333
        },
        {
          "name": "G#4",
          "midi": 68,
          "time": 166.94085649999926,
          "velocity": 0.6299212598425197,
          "duration": 0.3514699145833333
        },
        {
          "name": "G#4",
          "midi": 68,
          "time": 167.29379699999924,
          "velocity": 0.6299212598425197,
          "duration": 0.3514699145833333
        },
        {
          "name": "G#4",
          "midi": 68,
          "time": 167.64673749999923,
          "velocity": 0.6299212598425197,
          "duration": 0.3514699145833333
        },
        {
          "name": "C#5",
          "midi": 73,
          "time": 167.99967799999922,
          "velocity": 0.6299212598425197,
          "duration": 1.4102914145832983
        },
        {
          "name": "C#4",
          "midi": 61,
          "time": 167.99967799999922,
          "velocity": 0.6299212598425197,
          "duration": 1.4102914145832983
        },
        {
          "name": "G#4",
          "midi": 68,
          "time": 167.99967799999922,
          "velocity": 0.6299212598425197,
          "duration": 0.3514699145833333
        },
        {
          "name": "G#4",
          "midi": 68,
          "time": 168.3526184999992,
          "velocity": 0.6299212598425197,
          "duration": 0.3514699145833333
        },
        {
          "name": "G#4",
          "midi": 68,
          "time": 168.7055589999992,
          "velocity": 0.6299212598425197,
          "duration": 0.3514699145833333
        },
        {
          "name": "G#4",
          "midi": 68,
          "time": 169.0584994999992,
          "velocity": 0.6299212598425197,
          "duration": 0.3514699145833333
        },
        {
          "name": "D#5",
          "midi": 75,
          "time": 169.41143999999917,
          "velocity": 0.6299212598425197,
          "duration": 2.116172414583275
        },
        {
          "name": "C#5",
          "midi": 73,
          "time": 169.41143999999917,
          "velocity": 0.6299212598425197,
          "duration": 2.116172414583275
        },
        {
          "name": "D#4",
          "midi": 63,
          "time": 169.41143999999917,
          "velocity": 0.6299212598425197,
          "duration": 2.116172414583275
        },
        {
          "name": "G#4",
          "midi": 68,
          "time": 169.41143999999917,
          "velocity": 0.6299212598425197,
          "duration": 0.3514699145833333
        },
        {
          "name": "G#4",
          "midi": 68,
          "time": 169.76438049999916,
          "velocity": 0.6299212598425197,
          "duration": 0.3514699145833333
        },
        {
          "name": "G#4",
          "midi": 68,
          "time": 170.11732099999915,
          "velocity": 0.6299212598425197,
          "duration": 0.3514699145833333
        },
        {
          "name": "G#4",
          "midi": 68,
          "time": 170.47026149999914,
          "velocity": 0.6299212598425197,
          "duration": 0.3514699145833333
        },
        {
          "name": "G#4",
          "midi": 68,
          "time": 170.82320199999913,
          "velocity": 0.6299212598425197,
          "duration": 0.3514699145833333
        },
        {
          "name": "G#4",
          "midi": 68,
          "time": 171.17614249999912,
          "velocity": 0.6299212598425197,
          "duration": 0.3514699145833333
        },
        {
          "name": "D#5",
          "midi": 75,
          "time": 171.5290829999991,
          "velocity": 0.6299212598425197,
          "duration": 0.7044104145833217
        },
        {
          "name": "C5",
          "midi": 72,
          "time": 171.5290829999991,
          "velocity": 0.6299212598425197,
          "duration": 0.7044104145833217
        },
        {
          "name": "D#4",
          "midi": 63,
          "time": 171.5290829999991,
          "velocity": 0.6299212598425197,
          "duration": 0.7044104145833217
        },
        {
          "name": "G#4",
          "midi": 68,
          "time": 171.5290829999991,
          "velocity": 0.6299212598425197,
          "duration": 0.3514699145833333
        },
        {
          "name": "G#4",
          "midi": 68,
          "time": 171.8820234999991,
          "velocity": 0.6299212598425197,
          "duration": 0.3514699145833333
        },
        {
          "name": "E5",
          "midi": 76,
          "time": 172.23496399999908,
          "velocity": 0.6299212598425197,
          "duration": 0.7044104145833217
        },
        {
          "name": "D#5",
          "midi": 75,
          "time": 172.23496399999908,
          "velocity": 0.6299212598425197,
          "duration": 0.7044104145833217
        },
        {
          "name": "E4",
          "midi": 64,
          "time": 172.23496399999908,
          "velocity": 0.6299212598425197,
          "duration": 0.7044104145833217
        },
        {
          "name": "G#4",
          "midi": 68,
          "time": 172.23496399999908,
          "velocity": 0.6299212598425197,
          "duration": 0.3514699145833333
        },
        {
          "name": "G#4",
          "midi": 68,
          "time": 172.58790449999907,
          "velocity": 0.6299212598425197,
          "duration": 0.3514699145833333
        },
        {
          "name": "E5",
          "midi": 76,
          "time": 172.94084499999906,
          "velocity": 0.6299212598425197,
          "duration": 0.7044104145833217
        },
        {
          "name": "C#5",
          "midi": 73,
          "time": 172.94084499999906,
          "velocity": 0.6299212598425197,
          "duration": 0.7044104145833217
        },
        {
          "name": "E4",
          "midi": 64,
          "time": 172.94084499999906,
          "velocity": 0.6299212598425197,
          "duration": 0.7044104145833217
        },
        {
          "name": "G#4",
          "midi": 68,
          "time": 172.94084499999906,
          "velocity": 0.6299212598425197,
          "duration": 0.3514699145833333
        },
        {
          "name": "G#4",
          "midi": 68,
          "time": 173.29378549999905,
          "velocity": 0.6299212598425197,
          "duration": 0.3514699145833333
        },
        {
          "name": "D#5",
          "midi": 75,
          "time": 173.64672599999903,
          "velocity": 0.6299212598425197,
          "duration": 0.7044104145833217
        },
        {
          "name": "C#5",
          "midi": 73,
          "time": 173.64672599999903,
          "velocity": 0.6299212598425197,
          "duration": 0.7044104145833217
        },
        {
          "name": "D#4",
          "midi": 63,
          "time": 173.64672599999903,
          "velocity": 0.6299212598425197,
          "duration": 0.7044104145833217
        },
        {
          "name": "G#4",
          "midi": 68,
          "time": 173.64672599999903,
          "velocity": 0.6299212598425197,
          "duration": 0.3514699145833333
        },
        {
          "name": "G#4",
          "midi": 68,
          "time": 173.99966649999902,
          "velocity": 0.6299212598425197,
          "duration": 0.3514699145833333
        },
        {
          "name": "D#5",
          "midi": 75,
          "time": 174.352606999999,
          "velocity": 0.6299212598425197,
          "duration": 0.7044104145833217
        },
        {
          "name": "C5",
          "midi": 72,
          "time": 174.352606999999,
          "velocity": 0.6299212598425197,
          "duration": 0.7044104145833217
        },
        {
          "name": "D#4",
          "midi": 63,
          "time": 174.352606999999,
          "velocity": 0.6299212598425197,
          "duration": 0.7044104145833217
        },
        {
          "name": "G#4",
          "midi": 68,
          "time": 174.352606999999,
          "velocity": 0.6299212598425197,
          "duration": 0.3514699145833333
        },
        {
          "name": "G#4",
          "midi": 68,
          "time": 174.705547499999,
          "velocity": 0.6299212598425197,
          "duration": 0.3514699145833333
        },
        {
          "name": "C#5",
          "midi": 73,
          "time": 175.058487999999,
          "velocity": 0.6299212598425197,
          "duration": 2.8220534145832517
        },
        {
          "name": "C#4",
          "midi": 61,
          "time": 175.058487999999,
          "velocity": 0.6299212598425197,
          "duration": 2.8220534145832517
        },
        {
          "name": "G#4",
          "midi": 68,
          "time": 175.058487999999,
          "velocity": 0.6299212598425197,
          "duration": 0.3514699145833333
        },
        {
          "name": "G#4",
          "midi": 68,
          "time": 175.41142849999898,
          "velocity": 0.6299212598425197,
          "duration": 0.3514699145833333
        },
        {
          "name": "F#4",
          "midi": 66,
          "time": 175.76436899999896,
          "velocity": 0.6299212598425197,
          "duration": 0.3514699145833333
        },
        {
          "name": "F#4",
          "midi": 66,
          "time": 176.11730949999895,
          "velocity": 0.6299212598425197,
          "duration": 0.3514699145833333
        },
        {
          "name": "G#4",
          "midi": 68,
          "time": 176.47024999999894,
          "velocity": 0.6299212598425197,
          "duration": 0.3514699145833333
        },
        {
          "name": "G#4",
          "midi": 68,
          "time": 176.82319049999893,
          "velocity": 0.6299212598425197,
          "duration": 0.3514699145833333
        },
        {
          "name": "A4",
          "midi": 69,
          "time": 177.17613099999892,
          "velocity": 0.6299212598425197,
          "duration": 0.3514699145833333
        },
        {
          "name": "A4",
          "midi": 69,
          "time": 177.5290714999989,
          "velocity": 0.6299212598425197,
          "duration": 0.3514699145833333
        },
        {
          "name": "G#4",
          "midi": 68,
          "time": 177.8820119999989,
          "velocity": 0.6299212598425197,
          "duration": 1.4102914145832983
        },
        {
          "name": "D#4",
          "midi": 63,
          "time": 177.8820119999989,
          "velocity": 0.6299212598425197,
          "duration": 1.4102914145832983
        },
        {
          "name": "C4",
          "midi": 60,
          "time": 177.8820119999989,
          "velocity": 0.6299212598425197,
          "duration": 1.4102914145832983
        },
        {
          "name": "G#3",
          "midi": 56,
          "time": 177.8820119999989,
          "velocity": 0.6299212598425197,
          "duration": 0.3514699145833333
        },
        {
          "name": "G#3",
          "midi": 56,
          "time": 178.23495249999888,
          "velocity": 0.6299212598425197,
          "duration": 0.3514699145833333
        },
        {
          "name": "G#3",
          "midi": 56,
          "time": 178.58789299999887,
          "velocity": 0.6299212598425197,
          "duration": 0.3514699145833333
        },
        {
          "name": "G#3",
          "midi": 56,
          "time": 178.94083349999886,
          "velocity": 0.6299212598425197,
          "duration": 0.3514699145833333
        },
        {
          "name": "G#4",
          "midi": 68,
          "time": 179.29377399999885,
          "velocity": 0.6299212598425197,
          "duration": 0.7044104145833217
        },
        {
          "name": "E4",
          "midi": 64,
          "time": 179.29377399999885,
          "velocity": 0.6299212598425197,
          "duration": 0.7044104145833217
        },
        {
          "name": "C#4",
          "midi": 61,
          "time": 179.29377399999885,
          "velocity": 0.6299212598425197,
          "duration": 0.7044104145833217
        },
        {
          "name": "G#3",
          "midi": 56,
          "time": 179.29377399999885,
          "velocity": 0.6299212598425197,
          "duration": 0.3514699145833333
        },
        {
          "name": "G#3",
          "midi": 56,
          "time": 179.64671449999884,
          "velocity": 0.6299212598425197,
          "duration": 0.3514699145833333
        },
        {
          "name": "G#4",
          "midi": 68,
          "time": 179.99965499999882,
          "velocity": 0.6299212598425197,
          "duration": 0.7044104145833217
        },
        {
          "name": "D#4",
          "midi": 63,
          "time": 179.99965499999882,
          "velocity": 0.6299212598425197,
          "duration": 0.7044104145833217
        },
        {
          "name": "C4",
          "midi": 60,
          "time": 179.99965499999882,
          "velocity": 0.6299212598425197,
          "duration": 0.7044104145833217
        },
        {
          "name": "G#3",
          "midi": 56,
          "time": 179.99965499999882,
          "velocity": 0.6299212598425197,
          "duration": 0.3514699145833333
        },
        {
          "name": "G#3",
          "midi": 56,
          "time": 180.3525954999988,
          "velocity": 0.6299212598425197,
          "duration": 0.3514699145833333
        },
        {
          "name": "G#4",
          "midi": 68,
          "time": 180.7055359999988,
          "velocity": 0.6299212598425197,
          "duration": 0.7044104145833217
        },
        {
          "name": "D#4",
          "midi": 63,
          "time": 180.7055359999988,
          "velocity": 0.6299212598425197,
          "duration": 0.7044104145833217
        },
        {
          "name": "C4",
          "midi": 60,
          "time": 180.7055359999988,
          "velocity": 0.6299212598425197,
          "duration": 0.7044104145833217
        },
        {
          "name": "G#3",
          "midi": 56,
          "time": 180.7055359999988,
          "velocity": 0.6299212598425197,
          "duration": 0.3514699145833333
        },
        {
          "name": "G#3",
          "midi": 56,
          "time": 181.0584764999988,
          "velocity": 0.6299212598425197,
          "duration": 0.3514699145833333
        },
        {
          "name": "G#4",
          "midi": 68,
          "time": 181.41141699999878,
          "velocity": 0.6299212598425197,
          "duration": 0.7044104145833217
        },
        {
          "name": "E4",
          "midi": 64,
          "time": 181.41141699999878,
          "velocity": 0.6299212598425197,
          "duration": 0.7044104145833217
        },
        {
          "name": "C#4",
          "midi": 61,
          "time": 181.41141699999878,
          "velocity": 0.6299212598425197,
          "duration": 0.7044104145833217
        },
        {
          "name": "G#3",
          "midi": 56,
          "time": 181.41141699999878,
          "velocity": 0.6299212598425197,
          "duration": 0.3514699145833333
        },
        {
          "name": "G#3",
          "midi": 56,
          "time": 181.76435749999877,
          "velocity": 0.6299212598425197,
          "duration": 0.3514699145833333
        },
        {
          "name": "G#4",
          "midi": 68,
          "time": 182.11729799999875,
          "velocity": 0.6299212598425197,
          "duration": 0.7044104145833217
        },
        {
          "name": "C#4",
          "midi": 61,
          "time": 182.11729799999875,
          "velocity": 0.6299212598425197,
          "duration": 0.7044104145833217
        },
        {
          "name": "A#3",
          "midi": 58,
          "time": 182.11729799999875,
          "velocity": 0.6299212598425197,
          "duration": 0.7044104145833217
        },
        {
          "name": "G#3",
          "midi": 56,
          "time": 182.11729799999875,
          "velocity": 0.6299212598425197,
          "duration": 0.3514699145833333
        },
        {
          "name": "G#3",
          "midi": 56,
          "time": 182.47023849999874,
          "velocity": 0.6299212598425197,
          "duration": 0.3514699145833333
        },
        {
          "name": "G#4",
          "midi": 68,
          "time": 182.82317899999873,
          "velocity": 0.6299212598425197,
          "duration": 0.7044104145833217
        },
        {
          "name": "E4",
          "midi": 64,
          "time": 182.82317899999873,
          "velocity": 0.6299212598425197,
          "duration": 0.7044104145833217
        },
        {
          "name": "C#4",
          "midi": 61,
          "time": 182.82317899999873,
          "velocity": 0.6299212598425197,
          "duration": 0.7044104145833217
        },
        {
          "name": "G#3",
          "midi": 56,
          "time": 182.82317899999873,
          "velocity": 0.6299212598425197,
          "duration": 0.3514699145833333
        },
        {
          "name": "G#3",
          "midi": 56,
          "time": 183.17611949999872,
          "velocity": 0.6299212598425197,
          "duration": 0.3514699145833333
        },
        {
          "name": "G#4",
          "midi": 68,
          "time": 183.5290599999987,
          "velocity": 0.6299212598425197,
          "duration": 0.7044104145833217
        },
        {
          "name": "E4",
          "midi": 64,
          "time": 183.5290599999987,
          "velocity": 0.6299212598425197,
          "duration": 0.7044104145833217
        },
        {
          "name": "C#4",
          "midi": 61,
          "time": 183.5290599999987,
          "velocity": 0.6299212598425197,
          "duration": 0.7044104145833217
        },
        {
          "name": "G#3",
          "midi": 56,
          "time": 183.5290599999987,
          "velocity": 0.6299212598425197,
          "duration": 0.3514699145833333
        },
        {
          "name": "G#3",
          "midi": 56,
          "time": 183.8820004999987,
          "velocity": 0.6299212598425197,
          "duration": 0.3514699145833333
        },
        {
          "name": "G#4",
          "midi": 68,
          "time": 184.23494099999868,
          "velocity": 0.6299212598425197,
          "duration": 0.7044104145833217
        },
        {
          "name": "D#4",
          "midi": 63,
          "time": 184.23494099999868,
          "velocity": 0.6299212598425197,
          "duration": 0.7044104145833217
        },
        {
          "name": "C4",
          "midi": 60,
          "time": 184.23494099999868,
          "velocity": 0.6299212598425197,
          "duration": 0.7044104145833217
        },
        {
          "name": "G#3",
          "midi": 56,
          "time": 184.23494099999868,
          "velocity": 0.6299212598425197,
          "duration": 0.3514699145833333
        },
        {
          "name": "G#3",
          "midi": 56,
          "time": 184.58788149999867,
          "velocity": 0.6299212598425197,
          "duration": 0.3514699145833333
        },
        {
          "name": "G#4",
          "midi": 68,
          "time": 184.94082199999866,
          "velocity": 0.6299212598425197,
          "duration": 0.7044104145833217
        },
        {
          "name": "F#4",
          "midi": 66,
          "time": 184.94082199999866,
          "velocity": 0.6299212598425197,
          "duration": 0.7044104145833217
        },
        {
          "name": "D#4",
          "midi": 63,
          "time": 184.94082199999866,
          "velocity": 0.6299212598425197,
          "duration": 0.7044104145833217
        },
        {
          "name": "G#3",
          "midi": 56,
          "time": 184.94082199999866,
          "velocity": 0.6299212598425197,
          "duration": 0.3514699145833333
        },
        {
          "name": "G#3",
          "midi": 56,
          "time": 185.29376249999865,
          "velocity": 0.6299212598425197,
          "duration": 0.3514699145833333
        },
        {
          "name": "C#5",
          "midi": 73,
          "time": 185.64670299999864,
          "velocity": 0.6299212598425197,
          "duration": 0.7044104145833217
        },
        {
          "name": "A4",
          "midi": 69,
          "time": 185.64670299999864,
          "velocity": 0.6299212598425197,
          "duration": 0.7044104145833217
        },
        {
          "name": "F#4",
          "midi": 66,
          "time": 185.64670299999864,
          "velocity": 0.6299212598425197,
          "duration": 0.7044104145833217
        },
        {
          "name": "G#3",
          "midi": 56,
          "time": 185.64670299999864,
          "velocity": 0.6299212598425197,
          "duration": 0.3514699145833333
        },
        {
          "name": "G#3",
          "midi": 56,
          "time": 185.99964349999863,
          "velocity": 0.6299212598425197,
          "duration": 0.3514699145833333
        },
        {
          "name": "G#4",
          "midi": 68,
          "time": 186.35258399999861,
          "velocity": 0.6299212598425197,
          "duration": 2.8220534145832517
        },
        {
          "name": "D#4",
          "midi": 63,
          "time": 186.35258399999861,
          "velocity": 0.6299212598425197,
          "duration": 2.8220534145832517
        },
        {
          "name": "C4",
          "midi": 60,
          "time": 186.35258399999861,
          "velocity": 0.6299212598425197,
          "duration": 2.8220534145832517
        },
        {
          "name": "G#3",
          "midi": 56,
          "time": 186.35258399999861,
          "velocity": 0.6299212598425197,
          "duration": 0.3514699145833333
        },
        {
          "name": "G#3",
          "midi": 56,
          "time": 186.7055244999986,
          "velocity": 0.6299212598425197,
          "duration": 0.3514699145833333
        },
        {
          "name": "G#3",
          "midi": 56,
          "time": 187.0584649999986,
          "velocity": 0.6299212598425197,
          "duration": 0.3514699145833333
        },
        {
          "name": "G#3",
          "midi": 56,
          "time": 187.41140549999858,
          "velocity": 0.6299212598425197,
          "duration": 0.3514699145833333
        },
        {
          "name": "G#3",
          "midi": 56,
          "time": 187.76434599999857,
          "velocity": 0.6299212598425197,
          "duration": 0.3514699145833333
        },
        {
          "name": "G#3",
          "midi": 56,
          "time": 188.11728649999856,
          "velocity": 0.6299212598425197,
          "duration": 0.3514699145833333
        },
        {
          "name": "G#3",
          "midi": 56,
          "time": 188.47022699999854,
          "velocity": 0.6299212598425197,
          "duration": 0.3514699145833333
        },
        {
          "name": "G#3",
          "midi": 56,
          "time": 188.82316749999853,
          "velocity": 0.6299212598425197,
          "duration": 0.3514699145833333
        },
        {
          "name": "C5",
          "midi": 72,
          "time": 189.17610799999852,
          "velocity": 0.6299212598425197,
          "duration": 1.4102914145832983
        },
        {
          "name": "C4",
          "midi": 60,
          "time": 189.17610799999852,
          "velocity": 0.6299212598425197,
          "duration": 1.4102914145832983
        },
        {
          "name": "G#4",
          "midi": 68,
          "time": 189.17610799999852,
          "velocity": 0.6299212598425197,
          "duration": 0.3514699145833333
        },
        {
          "name": "G#4",
          "midi": 68,
          "time": 189.5290484999985,
          "velocity": 0.6299212598425197,
          "duration": 0.3514699145833333
        },
        {
          "name": "G#4",
          "midi": 68,
          "time": 189.8819889999985,
          "velocity": 0.6299212598425197,
          "duration": 0.3514699145833333
        },
        {
          "name": "G#4",
          "midi": 68,
          "time": 190.2349294999985,
          "velocity": 0.6299212598425197,
          "duration": 0.3514699145833333
        },
        {
          "name": "C#5",
          "midi": 73,
          "time": 190.58786999999847,
          "velocity": 0.6299212598425197,
          "duration": 1.4102914145832983
        },
        {
          "name": "C#4",
          "midi": 61,
          "time": 190.58786999999847,
          "velocity": 0.6299212598425197,
          "duration": 1.4102914145832983
        },
        {
          "name": "G#4",
          "midi": 68,
          "time": 190.58786999999847,
          "velocity": 0.6299212598425197,
          "duration": 0.3514699145833333
        },
        {
          "name": "G#4",
          "midi": 68,
          "time": 190.94081049999846,
          "velocity": 0.6299212598425197,
          "duration": 0.3514699145833333
        },
        {
          "name": "G#4",
          "midi": 68,
          "time": 191.29375099999845,
          "velocity": 0.6299212598425197,
          "duration": 0.3514699145833333
        },
        {
          "name": "G#4",
          "midi": 68,
          "time": 191.64669149999844,
          "velocity": 0.6299212598425197,
          "duration": 0.3514699145833333
        },
        {
          "name": "D#5",
          "midi": 75,
          "time": 191.99963199999843,
          "velocity": 0.6299212598425197,
          "duration": 2.116172414583275
        },
        {
          "name": "C#5",
          "midi": 73,
          "time": 191.99963199999843,
          "velocity": 0.6299212598425197,
          "duration": 2.116172414583275
        },
        {
          "name": "D#4",
          "midi": 63,
          "time": 191.99963199999843,
          "velocity": 0.6299212598425197,
          "duration": 2.116172414583275
        },
        {
          "name": "G#4",
          "midi": 68,
          "time": 191.99963199999843,
          "velocity": 0.6299212598425197,
          "duration": 0.3514699145833333
        },
        {
          "name": "G#4",
          "midi": 68,
          "time": 192.35257249999842,
          "velocity": 0.6299212598425197,
          "duration": 0.3514699145833333
        },
        {
          "name": "G#4",
          "midi": 68,
          "time": 192.7055129999984,
          "velocity": 0.6299212598425197,
          "duration": 0.3514699145833333
        },
        {
          "name": "G#4",
          "midi": 68,
          "time": 193.0584534999984,
          "velocity": 0.6299212598425197,
          "duration": 0.3514699145833333
        },
        {
          "name": "G#4",
          "midi": 68,
          "time": 193.41139399999838,
          "velocity": 0.6299212598425197,
          "duration": 0.3514699145833333
        },
        {
          "name": "G#4",
          "midi": 68,
          "time": 193.76433449999837,
          "velocity": 0.6299212598425197,
          "duration": 0.3514699145833333
        },
        {
          "name": "D#5",
          "midi": 75,
          "time": 194.11727499999836,
          "velocity": 0.6299212598425197,
          "duration": 0.7044104145833217
        },
        {
          "name": "C5",
          "midi": 72,
          "time": 194.11727499999836,
          "velocity": 0.6299212598425197,
          "duration": 0.7044104145833217
        },
        {
          "name": "D#4",
          "midi": 63,
          "time": 194.11727499999836,
          "velocity": 0.6299212598425197,
          "duration": 0.7044104145833217
        },
        {
          "name": "G#4",
          "midi": 68,
          "time": 194.11727499999836,
          "velocity": 0.6299212598425197,
          "duration": 0.3514699145833333
        },
        {
          "name": "G#4",
          "midi": 68,
          "time": 194.47021549999835,
          "velocity": 0.6299212598425197,
          "duration": 0.3514699145833333
        },
        {
          "name": "E5",
          "midi": 76,
          "time": 194.82315599999833,
          "velocity": 0.6299212598425197,
          "duration": 0.7044104145833217
        },
        {
          "name": "D#5",
          "midi": 75,
          "time": 194.82315599999833,
          "velocity": 0.6299212598425197,
          "duration": 0.7044104145833217
        },
        {
          "name": "E4",
          "midi": 64,
          "time": 194.82315599999833,
          "velocity": 0.6299212598425197,
          "duration": 0.7044104145833217
        },
        {
          "name": "G#4",
          "midi": 68,
          "time": 194.82315599999833,
          "velocity": 0.6299212598425197,
          "duration": 0.3514699145833333
        },
        {
          "name": "G#4",
          "midi": 68,
          "time": 195.17609649999832,
          "velocity": 0.6299212598425197,
          "duration": 0.3514699145833333
        },
        {
          "name": "E5",
          "midi": 76,
          "time": 195.5290369999983,
          "velocity": 0.6299212598425197,
          "duration": 0.7044104145833217
        },
        {
          "name": "C#5",
          "midi": 73,
          "time": 195.5290369999983,
          "velocity": 0.6299212598425197,
          "duration": 0.7044104145833217
        },
        {
          "name": "E4",
          "midi": 64,
          "time": 195.5290369999983,
          "velocity": 0.6299212598425197,
          "duration": 0.7044104145833217
        },
        {
          "name": "G#4",
          "midi": 68,
          "time": 195.5290369999983,
          "velocity": 0.6299212598425197,
          "duration": 0.3514699145833333
        },
        {
          "name": "G#4",
          "midi": 68,
          "time": 195.8819774999983,
          "velocity": 0.6299212598425197,
          "duration": 0.3514699145833333
        },
        {
          "name": "D#5",
          "midi": 75,
          "time": 196.2349179999983,
          "velocity": 0.6299212598425197,
          "duration": 0.7044104145833217
        },
        {
          "name": "C#5",
          "midi": 73,
          "time": 196.2349179999983,
          "velocity": 0.6299212598425197,
          "duration": 0.7044104145833217
        },
        {
          "name": "D#4",
          "midi": 63,
          "time": 196.2349179999983,
          "velocity": 0.6299212598425197,
          "duration": 0.7044104145833217
        },
        {
          "name": "G#4",
          "midi": 68,
          "time": 196.2349179999983,
          "velocity": 0.6299212598425197,
          "duration": 0.3514699145833333
        },
        {
          "name": "G#4",
          "midi": 68,
          "time": 196.58785849999828,
          "velocity": 0.6299212598425197,
          "duration": 0.3514699145833333
        },
        {
          "name": "D#5",
          "midi": 75,
          "time": 196.94079899999826,
          "velocity": 0.6299212598425197,
          "duration": 0.7044104145833217
        },
        {
          "name": "C5",
          "midi": 72,
          "time": 196.94079899999826,
          "velocity": 0.6299212598425197,
          "duration": 0.7044104145833217
        },
        {
          "name": "D#4",
          "midi": 63,
          "time": 196.94079899999826,
          "velocity": 0.6299212598425197,
          "duration": 0.7044104145833217
        },
        {
          "name": "G#4",
          "midi": 68,
          "time": 196.94079899999826,
          "velocity": 0.6299212598425197,
          "duration": 0.3514699145833333
        },
        {
          "name": "G#4",
          "midi": 68,
          "time": 197.29373949999825,
          "velocity": 0.6299212598425197,
          "duration": 0.3514699145833333
        },
        {
          "name": "C#5",
          "midi": 73,
          "time": 197.64667999999824,
          "velocity": 0.6299212598425197,
          "duration": 1.4102914145832983
        },
        {
          "name": "B4",
          "midi": 71,
          "time": 197.64667999999824,
          "velocity": 0.6299212598425197,
          "duration": 1.4102914145832983
        },
        {
          "name": "G#4",
          "midi": 68,
          "time": 197.64667999999824,
          "velocity": 0.6299212598425197,
          "duration": 1.4102914145832983
        },
        {
          "name": "C#4",
          "midi": 61,
          "time": 197.64667999999824,
          "velocity": 0.6299212598425197,
          "duration": 0.3514699145833333
        },
        {
          "name": "C#4",
          "midi": 61,
          "time": 197.99962049999823,
          "velocity": 0.6299212598425197,
          "duration": 0.3514699145833333
        },
        {
          "name": "C#4",
          "midi": 61,
          "time": 198.35256099999822,
          "velocity": 0.6299212598425197,
          "duration": 0.3514699145833333
        },
        {
          "name": "C#4",
          "midi": 61,
          "time": 198.7055014999982,
          "velocity": 0.6299212598425197,
          "duration": 0.3514699145833333
        },
        {
          "name": "C#5",
          "midi": 73,
          "time": 199.0584419999982,
          "velocity": 0.6299212598425197,
          "duration": 0.7044104145833217
        },
        {
          "name": "A4",
          "midi": 69,
          "time": 199.0584419999982,
          "velocity": 0.6299212598425197,
          "duration": 0.7044104145833217
        },
        {
          "name": "G#4",
          "midi": 68,
          "time": 199.0584419999982,
          "velocity": 0.6299212598425197,
          "duration": 0.7044104145833217
        },
        {
          "name": "C#4",
          "midi": 61,
          "time": 199.0584419999982,
          "velocity": 0.6299212598425197,
          "duration": 0.3514699145833333
        },
        {
          "name": "C#4",
          "midi": 61,
          "time": 199.41138249999818,
          "velocity": 0.6299212598425197,
          "duration": 0.3514699145833333
        },
        {
          "name": "C#5",
          "midi": 73,
          "time": 199.76432299999817,
          "velocity": 0.6299212598425197,
          "duration": 0.7044104145833217
        },
        {
          "name": "A4",
          "midi": 69,
          "time": 199.76432299999817,
          "velocity": 0.6299212598425197,
          "duration": 0.7044104145833217
        },
        {
          "name": "F#4",
          "midi": 66,
          "time": 199.76432299999817,
          "velocity": 0.6299212598425197,
          "duration": 0.7044104145833217
        },
        {
          "name": "C#4",
          "midi": 61,
          "time": 199.76432299999817,
          "velocity": 0.6299212598425197,
          "duration": 0.3514699145833333
        },
        {
          "name": "C#4",
          "midi": 61,
          "time": 200.11726349999816,
          "velocity": 0.6299212598425197,
          "duration": 0.3514699145833333
        },
        {
          "name": "G#4",
          "midi": 68,
          "time": 200.47020399999815,
          "velocity": 0.6299212598425197,
          "duration": 1.4102914145832983
        },
        {
          "name": "F#4",
          "midi": 66,
          "time": 200.47020399999815,
          "velocity": 0.6299212598425197,
          "duration": 1.4102914145832983
        },
        {
          "name": "D#4",
          "midi": 63,
          "time": 200.47020399999815,
          "velocity": 0.6299212598425197,
          "duration": 1.4102914145832983
        },
        {
          "name": "G#3",
          "midi": 56,
          "time": 200.47020399999815,
          "velocity": 0.6299212598425197,
          "duration": 0.3514699145833333
        },
        {
          "name": "G#3",
          "midi": 56,
          "time": 200.82314449999814,
          "velocity": 0.6299212598425197,
          "duration": 0.3514699145833333
        },
        {
          "name": "G#3",
          "midi": 56,
          "time": 201.17608499999812,
          "velocity": 0.6299212598425197,
          "duration": 0.3514699145833333
        },
        {
          "name": "G#3",
          "midi": 56,
          "time": 201.5290254999981,
          "velocity": 0.6299212598425197,
          "duration": 0.3514699145833333
        },
        {
          "name": "G#4",
          "midi": 68,
          "time": 201.8819659999981,
          "velocity": 0.6299212598425197,
          "duration": 0.7044104145833217
        },
        {
          "name": "F#4",
          "midi": 66,
          "time": 201.8819659999981,
          "velocity": 0.6299212598425197,
          "duration": 0.7044104145833217
        },
        {
          "name": "C#4",
          "midi": 61,
          "time": 201.8819659999981,
          "velocity": 0.6299212598425197,
          "duration": 0.7044104145833217
        },
        {
          "name": "G#3",
          "midi": 56,
          "time": 201.8819659999981,
          "velocity": 0.6299212598425197,
          "duration": 0.3514699145833333
        },
        {
          "name": "G#3",
          "midi": 56,
          "time": 202.2349064999981,
          "velocity": 0.6299212598425197,
          "duration": 0.3514699145833333
        },
        {
          "name": "A#4",
          "midi": 70,
          "time": 202.58784699999808,
          "velocity": 0.6299212598425197,
          "duration": 0.7044104145833217
        },
        {
          "name": "E4",
          "midi": 64,
          "time": 202.58784699999808,
          "velocity": 0.6299212598425197,
          "duration": 0.7044104145833217
        },
        {
          "name": "C#4",
          "midi": 61,
          "time": 202.58784699999808,
          "velocity": 0.6299212598425197,
          "duration": 0.7044104145833217
        },
        {
          "name": "G#3",
          "midi": 56,
          "time": 202.58784699999808,
          "velocity": 0.6299212598425197,
          "duration": 0.3514699145833333
        },
        {
          "name": "G#3",
          "midi": 56,
          "time": 202.94078749999807,
          "velocity": 0.6299212598425197,
          "duration": 0.3514699145833333
        },
        {
          "name": "A#4",
          "midi": 70,
          "time": 203.29372799999805,
          "velocity": 0.6299212598425197,
          "duration": 1.4102914145832983
        },
        {
          "name": "E4",
          "midi": 64,
          "time": 203.29372799999805,
          "velocity": 0.6299212598425197,
          "duration": 1.4102914145832983
        },
        {
          "name": "C#4",
          "midi": 61,
          "time": 203.29372799999805,
          "velocity": 0.6299212598425197,
          "duration": 1.4102914145832983
        },
        {
          "name": "G#3",
          "midi": 56,
          "time": 203.29372799999805,
          "velocity": 0.6299212598425197,
          "duration": 0.3514699145833333
        },
        {
          "name": "G#3",
          "midi": 56,
          "time": 203.64666849999804,
          "velocity": 0.6299212598425197,
          "duration": 0.3514699145833333
        },
        {
          "name": "G#3",
          "midi": 56,
          "time": 203.99960899999803,
          "velocity": 0.6299212598425197,
          "duration": 0.3514699145833333
        },
        {
          "name": "G#3",
          "midi": 56,
          "time": 204.35254949999802,
          "velocity": 0.6299212598425197,
          "duration": 0.3514699145833333
        },
        {
          "name": "G#4",
          "midi": 68,
          "time": 204.705489999998,
          "velocity": 0.6299212598425197,
          "duration": 0.7044104145833217
        },
        {
          "name": "D#4",
          "midi": 63,
          "time": 204.705489999998,
          "velocity": 0.6299212598425197,
          "duration": 0.7044104145833217
        },
        {
          "name": "C4",
          "midi": 60,
          "time": 204.705489999998,
          "velocity": 0.6299212598425197,
          "duration": 0.7044104145833217
        },
        {
          "name": "G#3",
          "midi": 56,
          "time": 204.705489999998,
          "velocity": 0.6299212598425197,
          "duration": 0.3514699145833333
        },
        {
          "name": "G#3",
          "midi": 56,
          "time": 205.058430499998,
          "velocity": 0.6299212598425197,
          "duration": 0.3514699145833333
        },
        {
          "name": "A#4",
          "midi": 70,
          "time": 205.41137099999798,
          "velocity": 0.6299212598425197,
          "duration": 0.7044104145833217
        },
        {
          "name": "E4",
          "midi": 64,
          "time": 205.41137099999798,
          "velocity": 0.6299212598425197,
          "duration": 0.7044104145833217
        },
        {
          "name": "C#4",
          "midi": 61,
          "time": 205.41137099999798,
          "velocity": 0.6299212598425197,
          "duration": 0.7044104145833217
        },
        {
          "name": "G#3",
          "midi": 56,
          "time": 205.41137099999798,
          "velocity": 0.6299212598425197,
          "duration": 0.3514699145833333
        },
        {
          "name": "G#3",
          "midi": 56,
          "time": 205.76431149999797,
          "velocity": 0.6299212598425197,
          "duration": 0.3514699145833333
        },
        {
          "name": "A#4",
          "midi": 70,
          "time": 206.11725199999796,
          "velocity": 0.6299212598425197,
          "duration": 1.4102914145832983
        },
        {
          "name": "E4",
          "midi": 64,
          "time": 206.11725199999796,
          "velocity": 0.6299212598425197,
          "duration": 1.4102914145832983
        },
        {
          "name": "C#4",
          "midi": 61,
          "time": 206.11725199999796,
          "velocity": 0.6299212598425197,
          "duration": 1.4102914145832983
        },
        {
          "name": "G#3",
          "midi": 56,
          "time": 206.11725199999796,
          "velocity": 0.6299212598425197,
          "duration": 0.3514699145833333
        },
        {
          "name": "G#3",
          "midi": 56,
          "time": 206.47019249999795,
          "velocity": 0.6299212598425197,
          "duration": 0.3514699145833333
        },
        {
          "name": "G#3",
          "midi": 56,
          "time": 206.82313299999794,
          "velocity": 0.6299212598425197,
          "duration": 0.3514699145833333
        },
        {
          "name": "G#3",
          "midi": 56,
          "time": 207.17607349999793,
          "velocity": 0.6299212598425197,
          "duration": 0.3514699145833333
        },
        {
          "name": "G#4",
          "midi": 68,
          "time": 207.52901399999791,
          "velocity": 0.6299212598425197,
          "duration": 0.7044104145833217
        },
        {
          "name": "D#4",
          "midi": 63,
          "time": 207.52901399999791,
          "velocity": 0.6299212598425197,
          "duration": 0.7044104145833217
        },
        {
          "name": "C4",
          "midi": 60,
          "time": 207.52901399999791,
          "velocity": 0.6299212598425197,
          "duration": 0.7044104145833217
        },
        {
          "name": "G#3",
          "midi": 56,
          "time": 207.52901399999791,
          "velocity": 0.6299212598425197,
          "duration": 0.3514699145833333
        },
        {
          "name": "G#3",
          "midi": 56,
          "time": 207.8819544999979,
          "velocity": 0.6299212598425197,
          "duration": 0.3514699145833333
        },
        {
          "name": "G#4",
          "midi": 68,
          "time": 208.2348949999979,
          "velocity": 0.6299212598425197,
          "duration": 0.7044104145833217
        },
        {
          "name": "E4",
          "midi": 64,
          "time": 208.2348949999979,
          "velocity": 0.6299212598425197,
          "duration": 0.7044104145833217
        },
        {
          "name": "C#4",
          "midi": 61,
          "time": 208.2348949999979,
          "velocity": 0.6299212598425197,
          "duration": 0.7044104145833217
        },
        {
          "name": "G#3",
          "midi": 56,
          "time": 208.2348949999979,
          "velocity": 0.6299212598425197,
          "duration": 0.3514699145833333
        },
        {
          "name": "G#3",
          "midi": 56,
          "time": 208.58783549999788,
          "velocity": 0.6299212598425197,
          "duration": 0.3514699145833333
        },
        {
          "name": "A#4",
          "midi": 70,
          "time": 208.94077599999787,
          "velocity": 0.6299212598425197,
          "duration": 0.7044104145833217
        },
        {
          "name": "E4",
          "midi": 64,
          "time": 208.94077599999787,
          "velocity": 0.6299212598425197,
          "duration": 0.7044104145833217
        },
        {
          "name": "C#4",
          "midi": 61,
          "time": 208.94077599999787,
          "velocity": 0.6299212598425197,
          "duration": 0.7044104145833217
        },
        {
          "name": "G#3",
          "midi": 56,
          "time": 208.94077599999787,
          "velocity": 0.6299212598425197,
          "duration": 0.3514699145833333
        },
        {
          "name": "G#3",
          "midi": 56,
          "time": 209.29371649999786,
          "velocity": 0.6299212598425197,
          "duration": 0.3514699145833333
        },
        {
          "name": "G#4",
          "midi": 68,
          "time": 209.64665699999784,
          "velocity": 0.6299212598425197,
          "duration": 0.7044104145833217
        },
        {
          "name": "D#4",
          "midi": 63,
          "time": 209.64665699999784,
          "velocity": 0.6299212598425197,
          "duration": 0.7044104145833217
        },
        {
          "name": "C4",
          "midi": 60,
          "time": 209.64665699999784,
          "velocity": 0.6299212598425197,
          "duration": 0.7044104145833217
        },
        {
          "name": "G#3",
          "midi": 56,
          "time": 209.64665699999784,
          "velocity": 0.6299212598425197,
          "duration": 0.3514699145833333
        },
        {
          "name": "G#3",
          "midi": 56,
          "time": 209.99959749999783,
          "velocity": 0.6299212598425197,
          "duration": 0.3514699145833333
        },
        {
          "name": "G#3",
          "midi": 56,
          "time": 210.35253799999782,
          "velocity": 0.6299212598425197,
          "duration": 0.3514699145833333
        },
        {
          "name": "G#3",
          "midi": 56,
          "time": 210.7054784999978,
          "velocity": 0.6299212598425197,
          "duration": 0.3514699145833333
        },
        {
          "name": "G#3",
          "midi": 56,
          "time": 211.0584189999978,
          "velocity": 0.6299212598425197,
          "duration": 0.3514699145833333
        },
        {
          "name": "G#3",
          "midi": 56,
          "time": 211.4113594999978,
          "velocity": 0.6299212598425197,
          "duration": 0.3514699145833333
        },
        {
          "name": "F5",
          "midi": 77,
          "time": 211.76429999999777,
          "velocity": 0.6299212598425197,
          "duration": 0.5279401645833275
        },
        {
          "name": "C#5",
          "midi": 73,
          "time": 212.29371074999776,
          "velocity": 0.6299212598425197,
          "duration": 0.17499966458333915
        },
        {
          "name": "G#4",
          "midi": 68,
          "time": 212.47018099999775,
          "velocity": 0.6299212598425197,
          "duration": 1.4102914145833267
        },
        {
          "name": "A#4",
          "midi": 70,
          "time": 213.88194299999773,
          "velocity": 0.6299212598425197,
          "duration": 0.7044104145833217
        },
        {
          "name": "C5",
          "midi": 72,
          "time": 214.5878239999977,
          "velocity": 0.6299212598425197,
          "duration": 2.116172414583332
        },
        {
          "name": "C#5",
          "midi": 73,
          "time": 216.7054669999977,
          "velocity": 0.6299212598425197,
          "duration": 0.7044104145833217
        },
        {
          "name": "D#5",
          "midi": 75,
          "time": 217.41134799999767,
          "velocity": 0.6299212598425197,
          "duration": 0.5279401645833275
        },
        {
          "name": "F#4",
          "midi": 66,
          "time": 217.41134799999767,
          "velocity": 0.6299212598425197,
          "duration": 0.5279401645833275
        },
        {
          "name": "F5",
          "midi": 77,
          "time": 217.94075874999766,
          "velocity": 0.6299212598425197,
          "duration": 0.17499966458333915
        },
        {
          "name": "G#4",
          "midi": 68,
          "time": 217.94075874999766,
          "velocity": 0.6299212598425197,
          "duration": 0.17499966458333915
        },
        {
          "name": "F#5",
          "midi": 78,
          "time": 218.11722899999765,
          "velocity": 0.6299212598425197,
          "duration": 1.4102914145833267
        },
        {
          "name": "A#4",
          "midi": 70,
          "time": 218.11722899999765,
          "velocity": 0.6299212598425197,
          "duration": 1.4102914145833267
        },
        {
          "name": "F5",
          "midi": 77,
          "time": 219.52899099999763,
          "velocity": 0.6299212598425197,
          "duration": 0.7044104145833217
        },
        {
          "name": "G#4",
          "midi": 68,
          "time": 219.52899099999763,
          "velocity": 0.6299212598425197,
          "duration": 0.7044104145833217
        },
        {
          "name": "C#4",
          "midi": 61,
          "time": 219.52899099999763,
          "velocity": 0.6299212598425197,
          "duration": 0.7044104145833217
        },
        {
          "name": "F5",
          "midi": 77,
          "time": 220.2348719999976,
          "velocity": 0.6299212598425197,
          "duration": 1.0573509145833384
        },
        {
          "name": "D#5",
          "midi": 75,
          "time": 221.2936934999976,
          "velocity": 0.6299212598425197,
          "duration": 0.3514699145833333
        },
        {
          "name": "C#5",
          "midi": 73,
          "time": 221.6466339999976,
          "velocity": 0.6299212598425197,
          "duration": 0.5279401645833275
        },
        {
          "name": "D5",
          "midi": 74,
          "time": 222.17604474999757,
          "velocity": 0.6299212598425197,
          "duration": 0.17499966458333915
        },
        {
          "name": "D#5",
          "midi": 75,
          "time": 222.35251499999757,
          "velocity": 0.6299212598425197,
          "duration": 0.0691175145833256
        },
        {
          "name": "F5",
          "midi": 77,
          "time": 222.42310309999755,
          "velocity": 0.6299212598425197,
          "duration": 0.0691175145833256
        },
        {
          "name": "D#5",
          "midi": 75,
          "time": 222.49369119999753,
          "velocity": 0.6299212598425197,
          "duration": 0.0691175145833256
        },
        {
          "name": "D5",
          "midi": 74,
          "time": 222.5642792999975,
          "velocity": 0.6299212598425197,
          "duration": 0.0691175145833256
        },
        {
          "name": "D#5",
          "midi": 75,
          "time": 222.6348673999975,
          "velocity": 0.6299212598425197,
          "duration": 0.0691175145833256
        },
        {
          "name": "E5",
          "midi": 76,
          "time": 222.70545549999747,
          "velocity": 0.6299212598425197,
          "duration": 0.0691175145833256
        },
        {
          "name": "F5",
          "midi": 77,
          "time": 222.77604359999745,
          "velocity": 0.6299212598425197,
          "duration": 0.0691175145833256
        },
        {
          "name": "G#5",
          "midi": 80,
          "time": 222.84663169999743,
          "velocity": 0.6299212598425197,
          "duration": 0.0691175145833256
        },
        {
          "name": "G5",
          "midi": 79,
          "time": 222.9172197999974,
          "velocity": 0.6299212598425197,
          "duration": 0.0691175145833256
        },
        {
          "name": "F#5",
          "midi": 78,
          "time": 222.9878078999974,
          "velocity": 0.6299212598425197,
          "duration": 0.0691175145833256
        },
        {
          "name": "F5",
          "midi": 77,
          "time": 223.05839599999737,
          "velocity": 0.6299212598425197,
          "duration": 0.5279401645833275
        },
        {
          "name": "C#5",
          "midi": 73,
          "time": 223.58780674999736,
          "velocity": 0.6299212598425197,
          "duration": 0.17499966458333915
        },
        {
          "name": "G#4",
          "midi": 68,
          "time": 223.76427699999735,
          "velocity": 0.6299212598425197,
          "duration": 1.4102914145833267
        },
        {
          "name": "A#4",
          "midi": 70,
          "time": 225.17603899999733,
          "velocity": 0.6299212598425197,
          "duration": 0.7044104145833217
        },
        {
          "name": "C5",
          "midi": 72,
          "time": 225.8819199999973,
          "velocity": 0.6299212598425197,
          "duration": 0.7044104145833217
        },
        {
          "name": "A#5",
          "midi": 82,
          "time": 227.9995629999973,
          "velocity": 0.6299212598425197,
          "duration": 1.4102914145833267
        },
        {
          "name": "G#5",
          "midi": 80,
          "time": 229.41132499999728,
          "velocity": 0.6299212598425197,
          "duration": 0.7044104145833217
        },
        {
          "name": "F#5",
          "midi": 78,
          "time": 230.11720599999725,
          "velocity": 0.6299212598425197,
          "duration": 0.7044104145833217
        },
        {
          "name": "C5",
          "midi": 72,
          "time": 230.82308699999723,
          "velocity": 0.6299212598425197,
          "duration": 0.7044104145833217
        },
        {
          "name": "F5",
          "midi": 77,
          "time": 231.5289679999972,
          "velocity": 0.6299212598425197,
          "duration": 0.7044104145833217
        },
        {
          "name": "D#5",
          "midi": 75,
          "time": 232.23484899999718,
          "velocity": 0.6299212598425197,
          "duration": 0.7044104145833217
        },
        {
          "name": "C#5",
          "midi": 73,
          "time": 232.94072999999716,
          "velocity": 0.6299212598425197,
          "duration": 0.7044104145833217
        },
        {
          "name": "A#4",
          "midi": 70,
          "time": 233.64661099999714,
          "velocity": 0.6299212598425197,
          "duration": 0.7044104145833217
        },
        {
          "name": "A#3",
          "midi": 58,
          "time": 234.3524919999971,
          "velocity": 0.6299212598425197,
          "duration": 1.4102914145833267
        },
        {
          "name": "F#4",
          "midi": 66,
          "time": 234.3524919999971,
          "velocity": 0.6299212598425197,
          "duration": 2.8220534145833085
        },
        {
          "name": "D#4",
          "midi": 63,
          "time": 234.3524919999971,
          "velocity": 0.6299212598425197,
          "duration": 2.8220534145833085
        },
        {
          "name": "C4",
          "midi": 60,
          "time": 235.7642539999971,
          "velocity": 0.6299212598425197,
          "duration": 1.4102914145833267
        },
        {
          "name": "C#4",
          "midi": 61,
          "time": 237.17601599999708,
          "velocity": 0.6299212598425197,
          "duration": 1.4102914145833267
        },
        {
          "name": "F4",
          "midi": 65,
          "time": 237.17601599999708,
          "velocity": 0.6299212598425197,
          "duration": 2.82205341458328
        },
        {
          "name": "C#4",
          "midi": 61,
          "time": 238.58777799999706,
          "velocity": 0.6299212598425197,
          "duration": 0.3514699145833333
        },
        {
          "name": "C#4",
          "midi": 61,
          "time": 238.94071849999705,
          "velocity": 0.6299212598425197,
          "duration": 0.3514699145833333
        },
        {
          "name": "D#4",
          "midi": 63,
          "time": 239.29365899999704,
          "velocity": 0.6299212598425197,
          "duration": 0.5279401645833275
        },
        {
          "name": "C#4",
          "midi": 61,
          "time": 239.82306974999702,
          "velocity": 0.6299212598425197,
          "duration": 0.17499966458333915
        },
        {
          "name": "C#4",
          "midi": 61,
          "time": 239.999539999997,
          "velocity": 0.6299212598425197,
          "duration": 0.7044104145833217
        },
        {
          "name": "F#4",
          "midi": 66,
          "time": 239.999539999997,
          "velocity": 0.6299212598425197,
          "duration": 2.8220534145832517
        },
        {
          "name": "D#4",
          "midi": 63,
          "time": 239.999539999997,
          "velocity": 0.6299212598425197,
          "duration": 2.8220534145832517
        },
        {
          "name": "C4",
          "midi": 60,
          "time": 240.705420999997,
          "velocity": 0.6299212598425197,
          "duration": 0.7044104145833217
        },
        {
          "name": "A#4",
          "midi": 70,
          "time": 241.41130199999697,
          "velocity": 0.6299212598425197,
          "duration": 0.7044104145833217
        },
        {
          "name": "C4",
          "midi": 60,
          "time": 242.11718299999694,
          "velocity": 0.6299212598425197,
          "duration": 0.7044104145833217
        },
        {
          "name": "F#4",
          "midi": 66,
          "time": 242.82306399999692,
          "velocity": 0.6299212598425197,
          "duration": 2.822053414583337
        },
        {
          "name": "D#4",
          "midi": 63,
          "time": 242.82306399999692,
          "velocity": 0.6299212598425197,
          "duration": 2.822053414583337
        },
        {
          "name": "C4",
          "midi": 60,
          "time": 242.82306399999692,
          "velocity": 0.6299212598425197,
          "duration": 2.822053414583337
        },
        {
          "name": "G#3",
          "midi": 56,
          "time": 245.6465879999969,
          "velocity": 0.6299212598425197,
          "duration": 0.3514699145833333
        },
        {
          "name": "F4",
          "midi": 65,
          "time": 245.6465879999969,
          "velocity": 0.6299212598425197,
          "duration": 2.8220534145832517
        },
        {
          "name": "C#4",
          "midi": 61,
          "time": 245.6465879999969,
          "velocity": 0.6299212598425197,
          "duration": 2.8220534145832517
        },
        {
          "name": "G#3",
          "midi": 56,
          "time": 245.9995284999969,
          "velocity": 0.6299212598425197,
          "duration": 0.3514699145833333
        },
        {
          "name": "G#3",
          "midi": 56,
          "time": 246.3524689999969,
          "velocity": 0.6299212598425197,
          "duration": 0.3514699145833333
        },
        {
          "name": "G#3",
          "midi": 56,
          "time": 246.70540949999688,
          "velocity": 0.6299212598425197,
          "duration": 0.3514699145833333
        },
        {
          "name": "G#3",
          "midi": 56,
          "time": 247.05834999999686,
          "velocity": 0.6299212598425197,
          "duration": 0.3514699145833333
        },
        {
          "name": "G#3",
          "midi": 56,
          "time": 247.41129049999685,
          "velocity": 0.6299212598425197,
          "duration": 0.3514699145833333
        },
        {
          "name": "G#3",
          "midi": 56,
          "time": 247.76423099999684,
          "velocity": 0.6299212598425197,
          "duration": 0.3514699145833333
        },
        {
          "name": "G#3",
          "midi": 56,
          "time": 248.11717149999683,
          "velocity": 0.6299212598425197,
          "duration": 0.3514699145833333
        },
        {
          "name": "F4",
          "midi": 65,
          "time": 248.47011199999682,
          "velocity": 0.6299212598425197,
          "duration": 2.822053414583337
        },
        {
          "name": "C#4",
          "midi": 61,
          "time": 248.47011199999682,
          "velocity": 0.6299212598425197,
          "duration": 2.822053414583337
        },
        {
          "name": "G#3",
          "midi": 56,
          "time": 248.47011199999682,
          "velocity": 0.6299212598425197,
          "duration": 2.822053414583337
        }
      ],
      "controlChanges": {
        "7": [
          {
            "number": 7,
            "time": 0.0029411708333333332,
            "value": 0.7874015748031497
          }
        ],
        "10": [
          {
            "number": 10,
            "time": 0.0058823416666666664,
            "value": 0.5039370078740157
          }
        ],
        "91": [
          {
            "number": 91,
            "time": 0.0088235125,
            "value": 0.23622047244094488
          }
        ],
        "93": [
          {
            "number": 93,
            "time": 0.011764683333333333,
            "value": 0.23622047244094488
          }
        ]
      },
      "id": 0,
      "instrumentNumber": 0,
      "instrument": "acoustic grand piano",
      "instrumentFamily": "piano",
      "channelNumber": 0,
      "isPercussion": false
    },
    {
      "startTime": 0,
      "duration": 251.29216541458146,
      "length": 603,
      "notes": [
        {
          "name": "C#3",
          "midi": 49,
          "time": 0,
          "velocity": 0.6299212598425197,
          "duration": 0.3514699145833333
        },
        {
          "name": "G#3",
          "midi": 56,
          "time": 0.3529405,
          "velocity": 0.6299212598425197,
          "duration": 0.3514699145833333
        },
        {
          "name": "G#3",
          "midi": 56,
          "time": 0.705881,
          "velocity": 0.6299212598425197,
          "duration": 0.3514699145833333
        },
        {
          "name": "G#3",
          "midi": 56,
          "time": 1.0588214999999999,
          "velocity": 0.6299212598425197,
          "duration": 0.3514699145833333
        },
        {
          "name": "G#3",
          "midi": 56,
          "time": 1.4117619999999997,
          "velocity": 0.6299212598425197,
          "duration": 0.3514699145833333
        },
        {
          "name": "G#3",
          "midi": 56,
          "time": 1.7647024999999996,
          "velocity": 0.6299212598425197,
          "duration": 0.3514699145833331
        },
        {
          "name": "G#3",
          "midi": 56,
          "time": 2.1176429999999993,
          "velocity": 0.6299212598425197,
          "duration": 0.3514699145833333
        },
        {
          "name": "G#3",
          "midi": 56,
          "time": 2.470583499999999,
          "velocity": 0.6299212598425197,
          "duration": 0.3514699145833333
        },
        {
          "name": "G#3",
          "midi": 56,
          "time": 2.823523999999999,
          "velocity": 0.6299212598425197,
          "duration": 0.3514699145833333
        },
        {
          "name": "G#3",
          "midi": 56,
          "time": 3.176464499999999,
          "velocity": 0.6299212598425197,
          "duration": 0.3514699145833333
        },
        {
          "name": "G#3",
          "midi": 56,
          "time": 3.529404999999999,
          "velocity": 0.6299212598425197,
          "duration": 0.3514699145833333
        },
        {
          "name": "G#3",
          "midi": 56,
          "time": 3.8823454999999987,
          "velocity": 0.6299212598425197,
          "duration": 0.3514699145833333
        },
        {
          "name": "A#3",
          "midi": 58,
          "time": 4.2352859999999986,
          "velocity": 0.6299212598425197,
          "duration": 0.3514699145833333
        },
        {
          "name": "G#3",
          "midi": 56,
          "time": 4.588226499999998,
          "velocity": 0.6299212598425197,
          "duration": 0.3514699145833333
        },
        {
          "name": "G#3",
          "midi": 56,
          "time": 4.941166999999998,
          "velocity": 0.6299212598425197,
          "duration": 0.3514699145833333
        },
        {
          "name": "G#3",
          "midi": 56,
          "time": 5.294107499999998,
          "velocity": 0.6299212598425197,
          "duration": 0.3514699145833333
        },
        {
          "name": "C4",
          "midi": 60,
          "time": 5.647047999999998,
          "velocity": 0.6299212598425197,
          "duration": 0.3514699145833333
        },
        {
          "name": "G#3",
          "midi": 56,
          "time": 5.999988499999998,
          "velocity": 0.6299212598425197,
          "duration": 0.7044104145833332
        },
        {
          "name": "G#3",
          "midi": 56,
          "time": 6.705869499999998,
          "velocity": 0.6299212598425197,
          "duration": 0.3514699145833333
        },
        {
          "name": "G#3",
          "midi": 56,
          "time": 7.058809999999998,
          "velocity": 0.6299212598425197,
          "duration": 0.3514699145833333
        },
        {
          "name": "G#3",
          "midi": 56,
          "time": 7.4117504999999975,
          "velocity": 0.6299212598425197,
          "duration": 0.3514699145833333
        },
        {
          "name": "C#4",
          "midi": 61,
          "time": 7.764690999999997,
          "velocity": 0.6299212598425197,
          "duration": 0.3514699145833333
        },
        {
          "name": "G#3",
          "midi": 56,
          "time": 8.117631499999998,
          "velocity": 0.6299212598425197,
          "duration": 0.3514699145833333
        },
        {
          "name": "C4",
          "midi": 60,
          "time": 8.470571999999999,
          "velocity": 0.6299212598425197,
          "duration": 0.3514699145833333
        },
        {
          "name": "G#3",
          "midi": 56,
          "time": 8.8235125,
          "velocity": 0.6299212598425197,
          "duration": 0.3514699145833333
        },
        {
          "name": "F#4",
          "midi": 66,
          "time": 9.176453,
          "velocity": 0.6299212598425197,
          "duration": 0.3514699145833333
        },
        {
          "name": "G#3",
          "midi": 56,
          "time": 9.529393500000001,
          "velocity": 0.6299212598425197,
          "duration": 0.3514699145833333
        },
        {
          "name": "F4",
          "midi": 65,
          "time": 9.882334000000002,
          "velocity": 0.6299212598425197,
          "duration": 0.3514699145833333
        },
        {
          "name": "C#4",
          "midi": 61,
          "time": 9.882334000000002,
          "velocity": 0.6299212598425197,
          "duration": 0.3514699145833333
        },
        {
          "name": "G#3",
          "midi": 56,
          "time": 10.235274500000003,
          "velocity": 0.6299212598425197,
          "duration": 0.3514699145833333
        },
        {
          "name": "F#4",
          "midi": 66,
          "time": 10.588215000000003,
          "velocity": 0.6299212598425197,
          "duration": 0.3514699145833333
        },
        {
          "name": "C4",
          "midi": 60,
          "time": 10.588215000000003,
          "velocity": 0.6299212598425197,
          "duration": 0.3514699145833333
        },
        {
          "name": "G#3",
          "midi": 56,
          "time": 10.941155500000004,
          "velocity": 0.6299212598425197,
          "duration": 0.3514699145833333
        },
        {
          "name": "C#3",
          "midi": 49,
          "time": 11.294096000000005,
          "velocity": 0.6299212598425197,
          "duration": 0.3514699145833333
        },
        {
          "name": "G#3",
          "midi": 56,
          "time": 11.647036500000006,
          "velocity": 0.6299212598425197,
          "duration": 0.3514699145833333
        },
        {
          "name": "G#3",
          "midi": 56,
          "time": 11.999977000000007,
          "velocity": 0.6299212598425197,
          "duration": 0.3514699145833333
        },
        {
          "name": "G#3",
          "midi": 56,
          "time": 12.352917500000007,
          "velocity": 0.6299212598425197,
          "duration": 0.3514699145833333
        },
        {
          "name": "G#3",
          "midi": 56,
          "time": 12.705858000000008,
          "velocity": 0.6299212598425197,
          "duration": 0.3514699145833333
        },
        {
          "name": "G#3",
          "midi": 56,
          "time": 13.058798500000009,
          "velocity": 0.6299212598425197,
          "duration": 0.3514699145833333
        },
        {
          "name": "G#3",
          "midi": 56,
          "time": 13.41173900000001,
          "velocity": 0.6299212598425197,
          "duration": 0.3514699145833333
        },
        {
          "name": "G#3",
          "midi": 56,
          "time": 13.76467950000001,
          "velocity": 0.6299212598425197,
          "duration": 0.3514699145833333
        },
        {
          "name": "C4",
          "midi": 60,
          "time": 14.117620000000011,
          "velocity": 0.6299212598425197,
          "duration": 0.3514699145833333
        },
        {
          "name": "G#3",
          "midi": 56,
          "time": 14.470560500000012,
          "velocity": 0.6299212598425197,
          "duration": 0.3514699145833333
        },
        {
          "name": "G#3",
          "midi": 56,
          "time": 14.823501000000013,
          "velocity": 0.6299212598425197,
          "duration": 0.3514699145833333
        },
        {
          "name": "G#3",
          "midi": 56,
          "time": 15.176441500000013,
          "velocity": 0.6299212598425197,
          "duration": 0.3514699145833333
        },
        {
          "name": "A#3",
          "midi": 58,
          "time": 15.529382000000014,
          "velocity": 0.6299212598425197,
          "duration": 0.3514699145833333
        },
        {
          "name": "G#3",
          "midi": 56,
          "time": 15.882322500000015,
          "velocity": 0.6299212598425197,
          "duration": 0.3514699145833333
        },
        {
          "name": "F4",
          "midi": 65,
          "time": 16.235263000000014,
          "velocity": 0.6299212598425197,
          "duration": 0.3514699145833333
        },
        {
          "name": "C#4",
          "midi": 61,
          "time": 16.235263000000014,
          "velocity": 0.6299212598425197,
          "duration": 0.3514699145833333
        },
        {
          "name": "G#3",
          "midi": 56,
          "time": 16.588203500000013,
          "velocity": 0.6299212598425197,
          "duration": 0.3514699145833333
        },
        {
          "name": "C4",
          "midi": 60,
          "time": 16.941144000000012,
          "velocity": 0.6299212598425197,
          "duration": 0.3514699145833333
        },
        {
          "name": "G#3",
          "midi": 56,
          "time": 17.29408450000001,
          "velocity": 0.6299212598425197,
          "duration": 0.7044104145833323
        },
        {
          "name": "G#3",
          "midi": 56,
          "time": 17.99996550000001,
          "velocity": 0.6299212598425197,
          "duration": 0.3514699145833333
        },
        {
          "name": "G#3",
          "midi": 56,
          "time": 18.352906000000008,
          "velocity": 0.6299212598425197,
          "duration": 0.3514699145833333
        },
        {
          "name": "G#3",
          "midi": 56,
          "time": 18.705846500000007,
          "velocity": 0.6299212598425197,
          "duration": 0.3514699145833333
        },
        {
          "name": "C#4",
          "midi": 61,
          "time": 19.058787000000006,
          "velocity": 0.6299212598425197,
          "duration": 0.3514699145833333
        },
        {
          "name": "G#3",
          "midi": 56,
          "time": 19.411727500000005,
          "velocity": 0.6299212598425197,
          "duration": 0.3514699145833333
        },
        {
          "name": "C4",
          "midi": 60,
          "time": 19.764668000000004,
          "velocity": 0.6299212598425197,
          "duration": 0.3514699145833333
        },
        {
          "name": "G#3",
          "midi": 56,
          "time": 20.117608500000003,
          "velocity": 0.6299212598425197,
          "duration": 0.3514699145833333
        },
        {
          "name": "F#4",
          "midi": 66,
          "time": 20.470549000000002,
          "velocity": 0.6299212598425197,
          "duration": 0.3514699145833333
        },
        {
          "name": "G#3",
          "midi": 56,
          "time": 20.8234895,
          "velocity": 0.6299212598425197,
          "duration": 0.3514699145833333
        },
        {
          "name": "F4",
          "midi": 65,
          "time": 21.17643,
          "velocity": 0.6299212598425197,
          "duration": 0.3514699145833333
        },
        {
          "name": "C#4",
          "midi": 61,
          "time": 21.17643,
          "velocity": 0.6299212598425197,
          "duration": 0.3514699145833333
        },
        {
          "name": "G#3",
          "midi": 56,
          "time": 21.5293705,
          "velocity": 0.6299212598425197,
          "duration": 0.3514699145833333
        },
        {
          "name": "F4",
          "midi": 65,
          "time": 21.882310999999998,
          "velocity": 0.6299212598425197,
          "duration": 0.3514699145833333
        },
        {
          "name": "C#4",
          "midi": 61,
          "time": 21.882310999999998,
          "velocity": 0.6299212598425197,
          "duration": 0.3514699145833333
        },
        {
          "name": "G#3",
          "midi": 56,
          "time": 22.235251499999997,
          "velocity": 0.6299212598425197,
          "duration": 0.3514699145833333
        },
        {
          "name": "G#2",
          "midi": 44,
          "time": 22.588191999999996,
          "velocity": 0.6299212598425197,
          "duration": 0.3514699145833333
        },
        {
          "name": "G#3",
          "midi": 56,
          "time": 22.941132499999995,
          "velocity": 0.6299212598425197,
          "duration": 0.3514699145833333
        },
        {
          "name": "D#4",
          "midi": 63,
          "time": 23.294072999999994,
          "velocity": 0.6299212598425197,
          "duration": 0.3514699145833333
        },
        {
          "name": "C4",
          "midi": 60,
          "time": 23.294072999999994,
          "velocity": 0.6299212598425197,
          "duration": 0.3514699145833333
        },
        {
          "name": "G#3",
          "midi": 56,
          "time": 23.647013499999993,
          "velocity": 0.6299212598425197,
          "duration": 0.3514699145833333
        },
        {
          "name": "D#4",
          "midi": 63,
          "time": 23.999953999999992,
          "velocity": 0.6299212598425197,
          "duration": 0.3514699145833333
        },
        {
          "name": "B3",
          "midi": 59,
          "time": 23.999953999999992,
          "velocity": 0.6299212598425197,
          "duration": 0.3514699145833333
        },
        {
          "name": "G#3",
          "midi": 56,
          "time": 24.35289449999999,
          "velocity": 0.6299212598425197,
          "duration": 0.3514699145833333
        },
        {
          "name": "F4",
          "midi": 65,
          "time": 24.70583499999999,
          "velocity": 0.6299212598425197,
          "duration": 0.3514699145833333
        },
        {
          "name": "B3",
          "midi": 59,
          "time": 24.70583499999999,
          "velocity": 0.6299212598425197,
          "duration": 0.3514699145833333
        },
        {
          "name": "C#3",
          "midi": 49,
          "time": 24.70583499999999,
          "velocity": 0.6299212598425197,
          "duration": 0.3514699145833333
        },
        {
          "name": "C#4",
          "midi": 61,
          "time": 25.05877549999999,
          "velocity": 0.6299212598425197,
          "duration": 0.3514699145833333
        },
        {
          "name": "A#3",
          "midi": 58,
          "time": 25.411715999999988,
          "velocity": 0.6299212598425197,
          "duration": 0.3514699145833333
        },
        {
          "name": "F#3",
          "midi": 54,
          "time": 25.411715999999988,
          "velocity": 0.6299212598425197,
          "duration": 0.3514699145833333
        },
        {
          "name": "C#4",
          "midi": 61,
          "time": 25.764656499999987,
          "velocity": 0.6299212598425197,
          "duration": 0.3514699145833333
        },
        {
          "name": "F#4",
          "midi": 66,
          "time": 26.117596999999986,
          "velocity": 0.6299212598425197,
          "duration": 0.3514699145833333
        },
        {
          "name": "A#3",
          "midi": 58,
          "time": 26.117596999999986,
          "velocity": 0.6299212598425197,
          "duration": 0.3514699145833333
        },
        {
          "name": "C#4",
          "midi": 61,
          "time": 26.470537499999985,
          "velocity": 0.6299212598425197,
          "duration": 0.3514699145833333
        },
        {
          "name": "C#3",
          "midi": 49,
          "time": 26.823477999999984,
          "velocity": 0.6299212598425197,
          "duration": 0.3514699145833333
        },
        {
          "name": "G#3",
          "midi": 56,
          "time": 27.176418499999983,
          "velocity": 0.6299212598425197,
          "duration": 0.3514699145833333
        },
        {
          "name": "F4",
          "midi": 65,
          "time": 27.52935899999998,
          "velocity": 0.6299212598425197,
          "duration": 0.3514699145833333
        },
        {
          "name": "C#4",
          "midi": 61,
          "time": 27.52935899999998,
          "velocity": 0.6299212598425197,
          "duration": 0.3514699145833333
        },
        {
          "name": "G#3",
          "midi": 56,
          "time": 27.88229949999998,
          "velocity": 0.6299212598425197,
          "duration": 0.3514699145833333
        },
        {
          "name": "D#3",
          "midi": 51,
          "time": 28.23523999999998,
          "velocity": 0.6299212598425197,
          "duration": 0.3514699145833333
        },
        {
          "name": "G#3",
          "midi": 56,
          "time": 28.58818049999998,
          "velocity": 0.6299212598425197,
          "duration": 0.3514699145833333
        },
        {
          "name": "D#4",
          "midi": 63,
          "time": 28.941120999999978,
          "velocity": 0.6299212598425197,
          "duration": 0.3514699145833333
        },
        {
          "name": "B3",
          "midi": 59,
          "time": 28.941120999999978,
          "velocity": 0.6299212598425197,
          "duration": 0.3514699145833333
        },
        {
          "name": "G#3",
          "midi": 56,
          "time": 29.294061499999977,
          "velocity": 0.6299212598425197,
          "duration": 0.3514699145833333
        },
        {
          "name": "D#3",
          "midi": 51,
          "time": 29.647001999999976,
          "velocity": 0.6299212598425197,
          "duration": 0.3514699145833333
        },
        {
          "name": "G3",
          "midi": 55,
          "time": 29.999942499999975,
          "velocity": 0.6299212598425197,
          "duration": 0.3514699145833333
        },
        {
          "name": "D#4",
          "midi": 63,
          "time": 30.352882999999974,
          "velocity": 0.6299212598425197,
          "duration": 0.3514699145833333
        },
        {
          "name": "C#4",
          "midi": 61,
          "time": 30.352882999999974,
          "velocity": 0.6299212598425197,
          "duration": 0.3514699145833333
        },
        {
          "name": "G3",
          "midi": 55,
          "time": 30.705823499999973,
          "velocity": 0.6299212598425197,
          "duration": 0.3514699145833333
        },
        {
          "name": "G#2",
          "midi": 44,
          "time": 31.05876399999997,
          "velocity": 0.6299212598425197,
          "duration": 0.3514699145833333
        },
        {
          "name": "G#3",
          "midi": 56,
          "time": 31.41170449999997,
          "velocity": 0.6299212598425197,
          "duration": 0.3514699145833333
        },
        {
          "name": "D#4",
          "midi": 63,
          "time": 31.76464499999997,
          "velocity": 0.6299212598425197,
          "duration": 0.3514699145833369
        },
        {
          "name": "B3",
          "midi": 59,
          "time": 31.76464499999997,
          "velocity": 0.6299212598425197,
          "duration": 0.3514699145833369
        },
        {
          "name": "G#3",
          "midi": 56,
          "time": 32.117585499999976,
          "velocity": 0.6299212598425197,
          "duration": 0.3514699145833333
        },
        {
          "name": "C#4",
          "midi": 61,
          "time": 32.47052599999998,
          "velocity": 0.6299212598425197,
          "duration": 0.3514699145833333
        },
        {
          "name": "A#3",
          "midi": 58,
          "time": 32.47052599999998,
          "velocity": 0.6299212598425197,
          "duration": 0.3514699145833333
        },
        {
          "name": "G#3",
          "midi": 56,
          "time": 32.82346649999998,
          "velocity": 0.6299212598425197,
          "duration": 0.3514699145833333
        },
        {
          "name": "E4",
          "midi": 64,
          "time": 33.17640699999998,
          "velocity": 0.6299212598425197,
          "duration": 0.3514699145833333
        },
        {
          "name": "C#4",
          "midi": 61,
          "time": 33.17640699999998,
          "velocity": 0.6299212598425197,
          "duration": 0.3514699145833333
        },
        {
          "name": "G#3",
          "midi": 56,
          "time": 33.529347499999986,
          "velocity": 0.6299212598425197,
          "duration": 0.3514699145833333
        },
        {
          "name": "G#2",
          "midi": 44,
          "time": 33.88228799999999,
          "velocity": 0.6299212598425197,
          "duration": 0.3514699145833333
        },
        {
          "name": "G#3",
          "midi": 56,
          "time": 34.23522849999999,
          "velocity": 0.6299212598425197,
          "duration": 0.3514699145833333
        },
        {
          "name": "G#3",
          "midi": 56,
          "time": 34.58816899999999,
          "velocity": 0.6299212598425197,
          "duration": 0.3514699145833333
        },
        {
          "name": "G#3",
          "midi": 56,
          "time": 34.941109499999996,
          "velocity": 0.6299212598425197,
          "duration": 0.3514699145833333
        },
        {
          "name": "G#3",
          "midi": 56,
          "time": 35.29405,
          "velocity": 0.6299212598425197,
          "duration": 0.3514699145833333
        },
        {
          "name": "G#3",
          "midi": 56,
          "time": 35.6469905,
          "velocity": 0.6299212598425197,
          "duration": 0.3514699145833333
        },
        {
          "name": "F4",
          "midi": 65,
          "time": 35.999931000000004,
          "velocity": 0.6299212598425197,
          "duration": 0.3514699145833333
        },
        {
          "name": "C4",
          "midi": 60,
          "time": 35.999931000000004,
          "velocity": 0.6299212598425197,
          "duration": 0.3514699145833333
        },
        {
          "name": "G#3",
          "midi": 56,
          "time": 36.352871500000006,
          "velocity": 0.6299212598425197,
          "duration": 0.3514699145833333
        },
        {
          "name": "D#3",
          "midi": 51,
          "time": 36.70581200000001,
          "velocity": 0.6299212598425197,
          "duration": 0.3514699145833333
        },
        {
          "name": "F#3",
          "midi": 54,
          "time": 37.05875250000001,
          "velocity": 0.6299212598425197,
          "duration": 0.3514699145833333
        },
        {
          "name": "F#4",
          "midi": 66,
          "time": 37.411693000000014,
          "velocity": 0.6299212598425197,
          "duration": 0.3514699145833333
        },
        {
          "name": "A#3",
          "midi": 58,
          "time": 37.411693000000014,
          "velocity": 0.6299212598425197,
          "duration": 0.3514699145833333
        },
        {
          "name": "F#3",
          "midi": 54,
          "time": 37.764633500000016,
          "velocity": 0.6299212598425197,
          "duration": 0.3514699145833333
        },
        {
          "name": "A#2",
          "midi": 46,
          "time": 38.11757400000002,
          "velocity": 0.6299212598425197,
          "duration": 0.3514699145833333
        },
        {
          "name": "F3",
          "midi": 53,
          "time": 38.47051450000002,
          "velocity": 0.6299212598425197,
          "duration": 0.3514699145833333
        },
        {
          "name": "F4",
          "midi": 65,
          "time": 38.823455000000024,
          "velocity": 0.6299212598425197,
          "duration": 0.3514699145833333
        },
        {
          "name": "C#4",
          "midi": 61,
          "time": 38.823455000000024,
          "velocity": 0.6299212598425197,
          "duration": 0.3514699145833333
        },
        {
          "name": "A#3",
          "midi": 58,
          "time": 38.823455000000024,
          "velocity": 0.6299212598425197,
          "duration": 0.3514699145833333
        },
        {
          "name": "F3",
          "midi": 53,
          "time": 39.17639550000003,
          "velocity": 0.6299212598425197,
          "duration": 0.3514699145833333
        },
        {
          "name": "F2",
          "midi": 41,
          "time": 39.52933600000003,
          "velocity": 0.6299212598425197,
          "duration": 0.3514699145833333
        },
        {
          "name": "F3",
          "midi": 53,
          "time": 39.88227650000003,
          "velocity": 0.6299212598425197,
          "duration": 0.3514699145833333
        },
        {
          "name": "F4",
          "midi": 65,
          "time": 40.235217000000034,
          "velocity": 0.6299212598425197,
          "duration": 0.3514699145833333
        },
        {
          "name": "C#4",
          "midi": 61,
          "time": 40.235217000000034,
          "velocity": 0.6299212598425197,
          "duration": 0.3514699145833333
        },
        {
          "name": "A#3",
          "midi": 58,
          "time": 40.235217000000034,
          "velocity": 0.6299212598425197,
          "duration": 0.3514699145833333
        },
        {
          "name": "F3",
          "midi": 53,
          "time": 40.58815750000004,
          "velocity": 0.6299212598425197,
          "duration": 0.3514699145833333
        },
        {
          "name": "F2",
          "midi": 41,
          "time": 40.94109800000004,
          "velocity": 0.6299212598425197,
          "duration": 0.3514699145833333
        },
        {
          "name": "F3",
          "midi": 53,
          "time": 41.29403850000004,
          "velocity": 0.6299212598425197,
          "duration": 0.3514699145833333
        },
        {
          "name": "F4",
          "midi": 65,
          "time": 41.646979000000044,
          "velocity": 0.6299212598425197,
          "duration": 0.3514699145833333
        },
        {
          "name": "D#4",
          "midi": 63,
          "time": 41.646979000000044,
          "velocity": 0.6299212598425197,
          "duration": 0.3514699145833333
        },
        {
          "name": "A3",
          "midi": 57,
          "time": 41.646979000000044,
          "velocity": 0.6299212598425197,
          "duration": 0.3514699145833333
        },
        {
          "name": "F3",
          "midi": 53,
          "time": 41.99991950000005,
          "velocity": 0.6299212598425197,
          "duration": 0.3514699145833333
        },
        {
          "name": "A#2",
          "midi": 46,
          "time": 42.35286000000005,
          "velocity": 0.6299212598425197,
          "duration": 0.3514699145833333
        },
        {
          "name": "F3",
          "midi": 53,
          "time": 42.70580050000005,
          "velocity": 0.6299212598425197,
          "duration": 0.3514699145833333
        },
        {
          "name": "F4",
          "midi": 65,
          "time": 43.058741000000055,
          "velocity": 0.6299212598425197,
          "duration": 0.3514699145833333
        },
        {
          "name": "C#4",
          "midi": 61,
          "time": 43.058741000000055,
          "velocity": 0.6299212598425197,
          "duration": 0.3514699145833333
        },
        {
          "name": "F3",
          "midi": 53,
          "time": 43.41168150000006,
          "velocity": 0.6299212598425197,
          "duration": 0.3514699145833333
        },
        {
          "name": "D#4",
          "midi": 63,
          "time": 43.76462200000006,
          "velocity": 0.6299212598425197,
          "duration": 0.3514699145833333
        },
        {
          "name": "C4",
          "midi": 60,
          "time": 43.76462200000006,
          "velocity": 0.6299212598425197,
          "duration": 0.3514699145833333
        },
        {
          "name": "F3",
          "midi": 53,
          "time": 44.11756250000006,
          "velocity": 0.6299212598425197,
          "duration": 0.3514699145833333
        },
        {
          "name": "F#4",
          "midi": 66,
          "time": 44.470503000000065,
          "velocity": 0.6299212598425197,
          "duration": 0.3514699145833333
        },
        {
          "name": "D#4",
          "midi": 63,
          "time": 44.470503000000065,
          "velocity": 0.6299212598425197,
          "duration": 0.3514699145833333
        },
        {
          "name": "F3",
          "midi": 53,
          "time": 44.82344350000007,
          "velocity": 0.6299212598425197,
          "duration": 0.3514699145833333
        },
        {
          "name": "F4",
          "midi": 65,
          "time": 45.17638400000007,
          "velocity": 0.6299212598425197,
          "duration": 0.3514699145833333
        },
        {
          "name": "C#4",
          "midi": 61,
          "time": 45.17638400000007,
          "velocity": 0.6299212598425197,
          "duration": 0.3514699145833333
        },
        {
          "name": "F3",
          "midi": 53,
          "time": 45.52932450000007,
          "velocity": 0.6299212598425197,
          "duration": 0.3514699145833333
        },
        {
          "name": "F4",
          "midi": 65,
          "time": 45.882265000000075,
          "velocity": 0.6299212598425197,
          "duration": 0.3514699145833333
        },
        {
          "name": "C#4",
          "midi": 61,
          "time": 45.882265000000075,
          "velocity": 0.6299212598425197,
          "duration": 0.3514699145833333
        },
        {
          "name": "A#3",
          "midi": 58,
          "time": 45.882265000000075,
          "velocity": 0.6299212598425197,
          "duration": 0.3514699145833333
        },
        {
          "name": "F3",
          "midi": 53,
          "time": 46.23520550000008,
          "velocity": 0.6299212598425197,
          "duration": 0.3514699145833333
        },
        {
          "name": "D#4",
          "midi": 63,
          "time": 46.58814600000008,
          "velocity": 0.6299212598425197,
          "duration": 0.3514699145833333
        },
        {
          "name": "A3",
          "midi": 57,
          "time": 46.58814600000008,
          "velocity": 0.6299212598425197,
          "duration": 0.3514699145833333
        },
        {
          "name": "F3",
          "midi": 53,
          "time": 46.94108650000008,
          "velocity": 0.6299212598425197,
          "duration": 0.3514699145833333
        },
        {
          "name": "F4",
          "midi": 65,
          "time": 47.294027000000085,
          "velocity": 0.6299212598425197,
          "duration": 0.3514699145833333
        },
        {
          "name": "F3",
          "midi": 53,
          "time": 47.64696750000009,
          "velocity": 0.6299212598425197,
          "duration": 0.3514699145833333
        },
        {
          "name": "A#2",
          "midi": 46,
          "time": 47.99990800000009,
          "velocity": 0.6299212598425197,
          "duration": 0.3514699145833333
        },
        {
          "name": "F3",
          "midi": 53,
          "time": 48.35284850000009,
          "velocity": 0.6299212598425197,
          "duration": 0.3514699145833333
        },
        {
          "name": "D#4",
          "midi": 63,
          "time": 48.705789000000095,
          "velocity": 0.6299212598425197,
          "duration": 0.3514699145833333
        },
        {
          "name": "C4",
          "midi": 60,
          "time": 48.705789000000095,
          "velocity": 0.6299212598425197,
          "duration": 0.3514699145833333
        },
        {
          "name": "F3",
          "midi": 53,
          "time": 49.0587295000001,
          "velocity": 0.6299212598425197,
          "duration": 0.3514699145833333
        },
        {
          "name": "F4",
          "midi": 65,
          "time": 49.4116700000001,
          "velocity": 0.6299212598425197,
          "duration": 0.3514699145833333
        },
        {
          "name": "C#4",
          "midi": 61,
          "time": 49.4116700000001,
          "velocity": 0.6299212598425197,
          "duration": 0.3514699145833333
        },
        {
          "name": "F3",
          "midi": 53,
          "time": 49.7646105000001,
          "velocity": 0.6299212598425197,
          "duration": 0.3514699145833333
        },
        {
          "name": "D#4",
          "midi": 63,
          "time": 50.117551000000105,
          "velocity": 0.6299212598425197,
          "duration": 0.3514699145833333
        },
        {
          "name": "C4",
          "midi": 60,
          "time": 50.117551000000105,
          "velocity": 0.6299212598425197,
          "duration": 0.3514699145833333
        },
        {
          "name": "F3",
          "midi": 53,
          "time": 50.47049150000011,
          "velocity": 0.6299212598425197,
          "duration": 0.3514699145833333
        },
        {
          "name": "G#3",
          "midi": 56,
          "time": 50.82343200000011,
          "velocity": 0.6299212598425197,
          "duration": 0.3514699145833333
        },
        {
          "name": "F3",
          "midi": 53,
          "time": 51.17637250000011,
          "velocity": 0.6299212598425197,
          "duration": 0.3514699145833333
        },
        {
          "name": "F3",
          "midi": 53,
          "time": 51.529313000000116,
          "velocity": 0.6299212598425197,
          "duration": 0.3514699145833333
        },
        {
          "name": "F3",
          "midi": 53,
          "time": 51.88225350000012,
          "velocity": 0.6299212598425197,
          "duration": 0.3514699145833333
        },
        {
          "name": "F4",
          "midi": 65,
          "time": 52.23519400000012,
          "velocity": 0.6299212598425197,
          "duration": 0.3514699145833333
        },
        {
          "name": "C#4",
          "midi": 61,
          "time": 52.23519400000012,
          "velocity": 0.6299212598425197,
          "duration": 0.3514699145833333
        },
        {
          "name": "F3",
          "midi": 53,
          "time": 52.58813450000012,
          "velocity": 0.6299212598425197,
          "duration": 0.3514699145833333
        },
        {
          "name": "D#4",
          "midi": 63,
          "time": 52.941075000000126,
          "velocity": 0.6299212598425197,
          "duration": 0.3514699145833333
        },
        {
          "name": "C4",
          "midi": 60,
          "time": 52.941075000000126,
          "velocity": 0.6299212598425197,
          "duration": 0.3514699145833333
        },
        {
          "name": "F3",
          "midi": 53,
          "time": 53.29401550000013,
          "velocity": 0.6299212598425197,
          "duration": 0.3514699145833333
        },
        {
          "name": "C#3",
          "midi": 49,
          "time": 53.64695600000013,
          "velocity": 0.6299212598425197,
          "duration": 0.3514699145833333
        },
        {
          "name": "G#3",
          "midi": 56,
          "time": 53.99989650000013,
          "velocity": 0.6299212598425197,
          "duration": 0.3514699145833333
        },
        {
          "name": "G#3",
          "midi": 56,
          "time": 54.352837000000136,
          "velocity": 0.6299212598425197,
          "duration": 0.3514699145833333
        },
        {
          "name": "G#3",
          "midi": 56,
          "time": 54.70577750000014,
          "velocity": 0.6299212598425197,
          "duration": 0.3514699145833333
        },
        {
          "name": "G#3",
          "midi": 56,
          "time": 55.05871800000014,
          "velocity": 0.6299212598425197,
          "duration": 0.3514699145833333
        },
        {
          "name": "G#3",
          "midi": 56,
          "time": 55.411658500000144,
          "velocity": 0.6299212598425197,
          "duration": 0.3514699145833333
        },
        {
          "name": "F4",
          "midi": 65,
          "time": 55.764599000000146,
          "velocity": 0.6299212598425197,
          "duration": 0.3514699145833333
        },
        {
          "name": "C#4",
          "midi": 61,
          "time": 55.764599000000146,
          "velocity": 0.6299212598425197,
          "duration": 0.3514699145833333
        },
        {
          "name": "G#3",
          "midi": 56,
          "time": 56.11753950000015,
          "velocity": 0.6299212598425197,
          "duration": 0.3514699145833333
        },
        {
          "name": "G#3",
          "midi": 56,
          "time": 56.47048000000015,
          "velocity": 0.6299212598425197,
          "duration": 0.3514699145833333
        },
        {
          "name": "G#3",
          "midi": 56,
          "time": 56.823420500000154,
          "velocity": 0.6299212598425197,
          "duration": 0.3514699145833333
        },
        {
          "name": "G#3",
          "midi": 56,
          "time": 57.176361000000156,
          "velocity": 0.6299212598425197,
          "duration": 0.3514699145833333
        },
        {
          "name": "G#3",
          "midi": 56,
          "time": 57.52930150000016,
          "velocity": 0.6299212598425197,
          "duration": 0.3514699145833333
        },
        {
          "name": "G#3",
          "midi": 56,
          "time": 57.88224200000016,
          "velocity": 0.6299212598425197,
          "duration": 0.3514699145833333
        },
        {
          "name": "G#3",
          "midi": 56,
          "time": 58.235182500000164,
          "velocity": 0.6299212598425197,
          "duration": 0.3514699145833333
        },
        {
          "name": "F4",
          "midi": 65,
          "time": 58.58812300000017,
          "velocity": 0.6299212598425197,
          "duration": 0.3514699145833333
        },
        {
          "name": "C#4",
          "midi": 61,
          "time": 58.58812300000017,
          "velocity": 0.6299212598425197,
          "duration": 0.3514699145833333
        },
        {
          "name": "G#3",
          "midi": 56,
          "time": 58.94106350000017,
          "velocity": 0.6299212598425197,
          "duration": 0.3514699145833333
        },
        {
          "name": "C4",
          "midi": 60,
          "time": 59.29400400000017,
          "velocity": 0.6299212598425197,
          "duration": 0.3514699145833333
        },
        {
          "name": "G#3",
          "midi": 56,
          "time": 59.646944500000174,
          "velocity": 0.6299212598425197,
          "duration": 0.7044104145833359
        },
        {
          "name": "G#3",
          "midi": 56,
          "time": 60.35282550000018,
          "velocity": 0.6299212598425197,
          "duration": 0.3514699145833333
        },
        {
          "name": "G#3",
          "midi": 56,
          "time": 60.70576600000018,
          "velocity": 0.6299212598425197,
          "duration": 0.3514699145833333
        },
        {
          "name": "G#3",
          "midi": 56,
          "time": 61.058706500000184,
          "velocity": 0.6299212598425197,
          "duration": 0.3514699145833333
        },
        {
          "name": "C#4",
          "midi": 61,
          "time": 61.41164700000019,
          "velocity": 0.6299212598425197,
          "duration": 0.3514699145833333
        },
        {
          "name": "G#3",
          "midi": 56,
          "time": 61.76458750000019,
          "velocity": 0.6299212598425197,
          "duration": 0.3514699145833333
        },
        {
          "name": "C4",
          "midi": 60,
          "time": 62.11752800000019,
          "velocity": 0.6299212598425197,
          "duration": 0.3514699145833333
        },
        {
          "name": "G#3",
          "midi": 56,
          "time": 62.470468500000194,
          "velocity": 0.6299212598425197,
          "duration": 0.3514699145833333
        },
        {
          "name": "F#4",
          "midi": 66,
          "time": 62.8234090000002,
          "velocity": 0.6299212598425197,
          "duration": 0.3514699145833333
        },
        {
          "name": "C4",
          "midi": 60,
          "time": 62.8234090000002,
          "velocity": 0.6299212598425197,
          "duration": 0.3514699145833333
        },
        {
          "name": "G#3",
          "midi": 56,
          "time": 63.1763495000002,
          "velocity": 0.6299212598425197,
          "duration": 0.3514699145833333
        },
        {
          "name": "F4",
          "midi": 65,
          "time": 63.5292900000002,
          "velocity": 0.6299212598425197,
          "duration": 0.3514699145833333
        },
        {
          "name": "C#4",
          "midi": 61,
          "time": 63.5292900000002,
          "velocity": 0.6299212598425197,
          "duration": 0.3514699145833333
        },
        {
          "name": "G#3",
          "midi": 56,
          "time": 63.882230500000205,
          "velocity": 0.6299212598425197,
          "duration": 0.3514699145833333
        },
        {
          "name": "F#4",
          "midi": 66,
          "time": 64.23517100000021,
          "velocity": 0.6299212598425197,
          "duration": 0.3514699145833333
        },
        {
          "name": "C4",
          "midi": 60,
          "time": 64.23517100000021,
          "velocity": 0.6299212598425197,
          "duration": 0.3514699145833333
        },
        {
          "name": "G#3",
          "midi": 56,
          "time": 64.58811150000021,
          "velocity": 0.6299212598425197,
          "duration": 0.3514699145833333
        },
        {
          "name": "C#3",
          "midi": 49,
          "time": 64.94105200000021,
          "velocity": 0.6299212598425197,
          "duration": 0.3514699145833333
        },
        {
          "name": "G#3",
          "midi": 56,
          "time": 65.29399250000021,
          "velocity": 0.6299212598425197,
          "duration": 0.3514699145833333
        },
        {
          "name": "G#3",
          "midi": 56,
          "time": 65.64693300000022,
          "velocity": 0.6299212598425197,
          "duration": 0.3514699145833333
        },
        {
          "name": "G#3",
          "midi": 56,
          "time": 65.99987350000022,
          "velocity": 0.6299212598425197,
          "duration": 0.3514699145833333
        },
        {
          "name": "G#3",
          "midi": 56,
          "time": 66.35281400000022,
          "velocity": 0.6299212598425197,
          "duration": 0.3514699145833333
        },
        {
          "name": "G#3",
          "midi": 56,
          "time": 66.70575450000022,
          "velocity": 0.6299212598425197,
          "duration": 0.3514699145833333
        },
        {
          "name": "G#3",
          "midi": 56,
          "time": 67.05869500000023,
          "velocity": 0.6299212598425197,
          "duration": 0.3514699145833333
        },
        {
          "name": "G#3",
          "midi": 56,
          "time": 67.41163550000023,
          "velocity": 0.6299212598425197,
          "duration": 0.3514699145833333
        },
        {
          "name": "G#3",
          "midi": 56,
          "time": 67.76457600000023,
          "velocity": 0.6299212598425197,
          "duration": 0.3514699145833333
        },
        {
          "name": "G#3",
          "midi": 56,
          "time": 68.11751650000024,
          "velocity": 0.6299212598425197,
          "duration": 0.3514699145833333
        },
        {
          "name": "G#3",
          "midi": 56,
          "time": 68.47045700000024,
          "velocity": 0.6299212598425197,
          "duration": 0.3514699145833333
        },
        {
          "name": "G#3",
          "midi": 56,
          "time": 68.82339750000024,
          "velocity": 0.6299212598425197,
          "duration": 0.3514699145833333
        },
        {
          "name": "A#3",
          "midi": 58,
          "time": 69.17633800000024,
          "velocity": 0.6299212598425197,
          "duration": 0.3514699145833333
        },
        {
          "name": "G#3",
          "midi": 56,
          "time": 69.52927850000025,
          "velocity": 0.6299212598425197,
          "duration": 0.3514699145833333
        },
        {
          "name": "F4",
          "midi": 65,
          "time": 69.88221900000025,
          "velocity": 0.6299212598425197,
          "duration": 0.3514699145833333
        },
        {
          "name": "C#4",
          "midi": 61,
          "time": 69.88221900000025,
          "velocity": 0.6299212598425197,
          "duration": 0.3514699145833333
        },
        {
          "name": "G#3",
          "midi": 56,
          "time": 70.23515950000025,
          "velocity": 0.6299212598425197,
          "duration": 0.3514699145833333
        },
        {
          "name": "C4",
          "midi": 60,
          "time": 70.58810000000025,
          "velocity": 0.6299212598425197,
          "duration": 0.3514699145833333
        },
        {
          "name": "G#3",
          "midi": 56,
          "time": 70.94104050000026,
          "velocity": 0.6299212598425197,
          "duration": 0.7044104145833359
        },
        {
          "name": "G#3",
          "midi": 56,
          "time": 71.64692150000026,
          "velocity": 0.6299212598425197,
          "duration": 0.3514699145833333
        },
        {
          "name": "G#3",
          "midi": 56,
          "time": 71.99986200000026,
          "velocity": 0.6299212598425197,
          "duration": 0.3514699145833333
        },
        {
          "name": "G#3",
          "midi": 56,
          "time": 72.35280250000027,
          "velocity": 0.6299212598425197,
          "duration": 0.3514699145833333
        },
        {
          "name": "D#4",
          "midi": 63,
          "time": 72.70574300000027,
          "velocity": 0.6299212598425197,
          "duration": 0.3514699145833333
        },
        {
          "name": "G#3",
          "midi": 56,
          "time": 73.05868350000027,
          "velocity": 0.6299212598425197,
          "duration": 0.3514699145833333
        },
        {
          "name": "G#3",
          "midi": 56,
          "time": 73.41162400000027,
          "velocity": 0.6299212598425197,
          "duration": 0.3514699145833333
        },
        {
          "name": "G#3",
          "midi": 56,
          "time": 73.76456450000028,
          "velocity": 0.6299212598425197,
          "duration": 0.3514699145833333
        },
        {
          "name": "G#3",
          "midi": 56,
          "time": 74.11750500000028,
          "velocity": 0.6299212598425197,
          "duration": 0.3514699145833333
        },
        {
          "name": "G#3",
          "midi": 56,
          "time": 74.47044550000028,
          "velocity": 0.6299212598425197,
          "duration": 0.3514699145833333
        },
        {
          "name": "G#3",
          "midi": 56,
          "time": 74.82338600000028,
          "velocity": 0.6299212598425197,
          "duration": 0.3514699145833333
        },
        {
          "name": "G#3",
          "midi": 56,
          "time": 75.17632650000029,
          "velocity": 0.6299212598425197,
          "duration": 0.3514699145833333
        },
        {
          "name": "G#3",
          "midi": 56,
          "time": 75.52926700000029,
          "velocity": 0.6299212598425197,
          "duration": 0.3514699145833333
        },
        {
          "name": "G#3",
          "midi": 56,
          "time": 75.88220750000029,
          "velocity": 0.6299212598425197,
          "duration": 0.3514699145833333
        },
        {
          "name": "G#2",
          "midi": 44,
          "time": 76.2351480000003,
          "velocity": 0.6299212598425197,
          "duration": 0.7044104145833359
        },
        {
          "name": "C#2",
          "midi": 37,
          "time": 76.2351480000003,
          "velocity": 0.6299212598425197,
          "duration": 0.7044104145833359
        },
        {
          "name": "G#2",
          "midi": 44,
          "time": 76.9410290000003,
          "velocity": 0.6299212598425197,
          "duration": 0.7044104145833359
        },
        {
          "name": "D#2",
          "midi": 39,
          "time": 76.9410290000003,
          "velocity": 0.6299212598425197,
          "duration": 0.7044104145833359
        },
        {
          "name": "C#3",
          "midi": 49,
          "time": 77.6469100000003,
          "velocity": 0.6299212598425197,
          "duration": 0.7044104145833359
        },
        {
          "name": "E2",
          "midi": 40,
          "time": 77.6469100000003,
          "velocity": 0.6299212598425197,
          "duration": 0.7044104145833359
        },
        {
          "name": "C3",
          "midi": 48,
          "time": 78.35279100000031,
          "velocity": 0.6299212598425197,
          "duration": 0.7044104145833359
        },
        {
          "name": "D#2",
          "midi": 39,
          "time": 78.35279100000031,
          "velocity": 0.6299212598425197,
          "duration": 0.7044104145833359
        },
        {
          "name": "G#2",
          "midi": 44,
          "time": 79.05867200000031,
          "velocity": 0.6299212598425197,
          "duration": 0.7044104145833359
        },
        {
          "name": "D#2",
          "midi": 39,
          "time": 79.05867200000031,
          "velocity": 0.6299212598425197,
          "duration": 0.7044104145833359
        },
        {
          "name": "G#2",
          "midi": 44,
          "time": 79.76455300000032,
          "velocity": 0.6299212598425197,
          "duration": 0.7044104145833359
        },
        {
          "name": "E2",
          "midi": 40,
          "time": 79.76455300000032,
          "velocity": 0.6299212598425197,
          "duration": 0.7044104145833359
        },
        {
          "name": "D#3",
          "midi": 51,
          "time": 80.47043400000032,
          "velocity": 0.6299212598425197,
          "duration": 0.7044104145833359
        },
        {
          "name": "F#2",
          "midi": 42,
          "time": 80.47043400000032,
          "velocity": 0.6299212598425197,
          "duration": 0.7044104145833359
        },
        {
          "name": "C#3",
          "midi": 49,
          "time": 81.17631500000033,
          "velocity": 0.6299212598425197,
          "duration": 0.7044104145833359
        },
        {
          "name": "E2",
          "midi": 40,
          "time": 81.17631500000033,
          "velocity": 0.6299212598425197,
          "duration": 0.7044104145833359
        },
        {
          "name": "C#3",
          "midi": 49,
          "time": 81.88219600000033,
          "velocity": 0.6299212598425197,
          "duration": 0.7044104145833359
        },
        {
          "name": "E2",
          "midi": 40,
          "time": 81.88219600000033,
          "velocity": 0.6299212598425197,
          "duration": 0.7044104145833359
        },
        {
          "name": "D#3",
          "midi": 51,
          "time": 82.58807700000034,
          "velocity": 0.6299212598425197,
          "duration": 0.7044104145833359
        },
        {
          "name": "G#2",
          "midi": 44,
          "time": 82.58807700000034,
          "velocity": 0.6299212598425197,
          "duration": 0.7044104145833359
        },
        {
          "name": "E3",
          "midi": 52,
          "time": 83.29395800000034,
          "velocity": 0.6299212598425197,
          "duration": 0.7044104145833359
        },
        {
          "name": "C#3",
          "midi": 49,
          "time": 83.29395800000034,
          "velocity": 0.6299212598425197,
          "duration": 0.7044104145833359
        },
        {
          "name": "D#3",
          "midi": 51,
          "time": 83.99983900000035,
          "velocity": 0.6299212598425197,
          "duration": 0.7044104145833359
        },
        {
          "name": "G#2",
          "midi": 44,
          "time": 83.99983900000035,
          "velocity": 0.6299212598425197,
          "duration": 0.7044104145833359
        },
        {
          "name": "D#3",
          "midi": 51,
          "time": 84.70572000000035,
          "velocity": 0.6299212598425197,
          "duration": 3.527934414583328
        },
        {
          "name": "G#2",
          "midi": 44,
          "time": 84.70572000000035,
          "velocity": 0.6299212598425197,
          "duration": 3.527934414583328
        },
        {
          "name": "E3",
          "midi": 52,
          "time": 88.23512500000035,
          "velocity": 0.6299212598425197,
          "duration": 0.7044104145833359
        },
        {
          "name": "C#3",
          "midi": 49,
          "time": 88.23512500000035,
          "velocity": 0.6299212598425197,
          "duration": 0.7044104145833359
        },
        {
          "name": "D#3",
          "midi": 51,
          "time": 88.94100600000036,
          "velocity": 0.6299212598425197,
          "duration": 0.7044104145833359
        },
        {
          "name": "G#2",
          "midi": 44,
          "time": 88.94100600000036,
          "velocity": 0.6299212598425197,
          "duration": 0.7044104145833359
        },
        {
          "name": "C#3",
          "midi": 49,
          "time": 89.64688700000036,
          "velocity": 0.6299212598425197,
          "duration": 0.7044104145833359
        },
        {
          "name": "E2",
          "midi": 40,
          "time": 89.64688700000036,
          "velocity": 0.6299212598425197,
          "duration": 0.7044104145833359
        },
        {
          "name": "D#3",
          "midi": 51,
          "time": 90.35276800000037,
          "velocity": 0.6299212598425197,
          "duration": 0.7044104145833359
        },
        {
          "name": "G#2",
          "midi": 44,
          "time": 90.35276800000037,
          "velocity": 0.6299212598425197,
          "duration": 0.7044104145833359
        },
        {
          "name": "C#3",
          "midi": 49,
          "time": 91.05864900000037,
          "velocity": 0.6299212598425197,
          "duration": 0.7044104145833359
        },
        {
          "name": "E2",
          "midi": 40,
          "time": 91.05864900000037,
          "velocity": 0.6299212598425197,
          "duration": 0.7044104145833359
        },
        {
          "name": "C3",
          "midi": 48,
          "time": 91.76453000000038,
          "velocity": 0.6299212598425197,
          "duration": 0.7044104145833359
        },
        {
          "name": "D#2",
          "midi": 39,
          "time": 91.76453000000038,
          "velocity": 0.6299212598425197,
          "duration": 0.7044104145833359
        },
        {
          "name": "C#3",
          "midi": 49,
          "time": 92.47041100000038,
          "velocity": 0.6299212598425197,
          "duration": 0.7044104145833359
        },
        {
          "name": "E2",
          "midi": 40,
          "time": 92.47041100000038,
          "velocity": 0.6299212598425197,
          "duration": 0.7044104145833359
        },
        {
          "name": "C3",
          "midi": 48,
          "time": 93.17629200000039,
          "velocity": 0.6299212598425197,
          "duration": 0.7044104145833359
        },
        {
          "name": "D#2",
          "midi": 39,
          "time": 93.17629200000039,
          "velocity": 0.6299212598425197,
          "duration": 0.7044104145833359
        },
        {
          "name": "C#3",
          "midi": 49,
          "time": 93.88217300000039,
          "velocity": 0.6299212598425197,
          "duration": 0.7044104145833359
        },
        {
          "name": "E2",
          "midi": 40,
          "time": 93.88217300000039,
          "velocity": 0.6299212598425197,
          "duration": 0.7044104145833359
        },
        {
          "name": "D#3",
          "midi": 51,
          "time": 94.5880540000004,
          "velocity": 0.6299212598425197,
          "duration": 0.7044104145833359
        },
        {
          "name": "D#2",
          "midi": 39,
          "time": 94.5880540000004,
          "velocity": 0.6299212598425197,
          "duration": 0.7044104145833359
        },
        {
          "name": "E3",
          "midi": 52,
          "time": 95.2939350000004,
          "velocity": 0.6299212598425197,
          "duration": 0.7044104145833359
        },
        {
          "name": "C#2",
          "midi": 37,
          "time": 95.2939350000004,
          "velocity": 0.6299212598425197,
          "duration": 0.7044104145833359
        },
        {
          "name": "D#3",
          "midi": 51,
          "time": 95.99981600000041,
          "velocity": 0.6299212598425197,
          "duration": 2.822053414583337
        },
        {
          "name": "G#2",
          "midi": 44,
          "time": 95.99981600000041,
          "velocity": 0.6299212598425197,
          "duration": 2.822053414583337
        },
        {
          "name": "G#2",
          "midi": 44,
          "time": 98.82334000000041,
          "velocity": 0.6299212598425197,
          "duration": 0.7044104145833359
        },
        {
          "name": "C#2",
          "midi": 37,
          "time": 98.82334000000041,
          "velocity": 0.6299212598425197,
          "duration": 0.7044104145833359
        },
        {
          "name": "G#2",
          "midi": 44,
          "time": 99.52922100000042,
          "velocity": 0.6299212598425197,
          "duration": 0.7044104145833359
        },
        {
          "name": "D#2",
          "midi": 39,
          "time": 99.52922100000042,
          "velocity": 0.6299212598425197,
          "duration": 0.7044104145833359
        },
        {
          "name": "C#3",
          "midi": 49,
          "time": 100.23510200000042,
          "velocity": 0.6299212598425197,
          "duration": 0.7044104145833359
        },
        {
          "name": "E2",
          "midi": 40,
          "time": 100.23510200000042,
          "velocity": 0.6299212598425197,
          "duration": 0.7044104145833359
        },
        {
          "name": "C3",
          "midi": 48,
          "time": 100.94098300000043,
          "velocity": 0.6299212598425197,
          "duration": 0.7044104145833359
        },
        {
          "name": "D#2",
          "midi": 39,
          "time": 100.94098300000043,
          "velocity": 0.6299212598425197,
          "duration": 0.7044104145833359
        },
        {
          "name": "G#2",
          "midi": 44,
          "time": 101.64686400000043,
          "velocity": 0.6299212598425197,
          "duration": 0.7044104145833359
        },
        {
          "name": "D#2",
          "midi": 39,
          "time": 101.64686400000043,
          "velocity": 0.6299212598425197,
          "duration": 0.7044104145833359
        },
        {
          "name": "G#2",
          "midi": 44,
          "time": 102.35274500000044,
          "velocity": 0.6299212598425197,
          "duration": 0.7044104145833359
        },
        {
          "name": "E2",
          "midi": 40,
          "time": 102.35274500000044,
          "velocity": 0.6299212598425197,
          "duration": 0.7044104145833359
        },
        {
          "name": "D#3",
          "midi": 51,
          "time": 103.05862600000044,
          "velocity": 0.6299212598425197,
          "duration": 0.7044104145833359
        },
        {
          "name": "F#2",
          "midi": 42,
          "time": 103.05862600000044,
          "velocity": 0.6299212598425197,
          "duration": 0.7044104145833359
        },
        {
          "name": "C#3",
          "midi": 49,
          "time": 103.76450700000045,
          "velocity": 0.6299212598425197,
          "duration": 0.7044104145833359
        },
        {
          "name": "E2",
          "midi": 40,
          "time": 103.76450700000045,
          "velocity": 0.6299212598425197,
          "duration": 0.7044104145833359
        },
        {
          "name": "C#3",
          "midi": 49,
          "time": 104.47038800000045,
          "velocity": 0.6299212598425197,
          "duration": 0.7044104145833359
        },
        {
          "name": "F#2",
          "midi": 42,
          "time": 104.47038800000045,
          "velocity": 0.6299212598425197,
          "duration": 0.7044104145833359
        },
        {
          "name": "D#3",
          "midi": 51,
          "time": 105.17626900000046,
          "velocity": 0.6299212598425197,
          "duration": 0.7044104145833359
        },
        {
          "name": "G#2",
          "midi": 44,
          "time": 105.17626900000046,
          "velocity": 0.6299212598425197,
          "duration": 0.7044104145833359
        },
        {
          "name": "E3",
          "midi": 52,
          "time": 105.88215000000046,
          "velocity": 0.6299212598425197,
          "duration": 0.7044104145833359
        },
        {
          "name": "C#3",
          "midi": 49,
          "time": 105.88215000000046,
          "velocity": 0.6299212598425197,
          "duration": 0.7044104145833359
        },
        {
          "name": "G#1",
          "midi": 32,
          "time": 106.58803100000047,
          "velocity": 0.6299212598425197,
          "duration": 0.7044104145833359
        },
        {
          "name": "D#3",
          "midi": 51,
          "time": 106.58803100000047,
          "velocity": 0.6299212598425197,
          "duration": 0.7044104145833359
        },
        {
          "name": "G#2",
          "midi": 44,
          "time": 106.58803100000047,
          "velocity": 0.6299212598425197,
          "duration": 0.7044104145833359
        },
        {
          "name": "D#3",
          "midi": 51,
          "time": 107.29391200000047,
          "velocity": 0.6299212598425197,
          "duration": 2.822053414583337
        },
        {
          "name": "G#2",
          "midi": 44,
          "time": 107.29391200000047,
          "velocity": 0.6299212598425197,
          "duration": 2.822053414583337
        },
        {
          "name": "E2",
          "midi": 40,
          "time": 110.11743600000048,
          "velocity": 0.6299212598425197,
          "duration": 1.4102914145833267
        },
        {
          "name": "E1",
          "midi": 28,
          "time": 110.11743600000048,
          "velocity": 0.6299212598425197,
          "duration": 1.4102914145833267
        },
        {
          "name": "B2",
          "midi": 47,
          "time": 111.52919800000048,
          "velocity": 0.6299212598425197,
          "duration": 1.4102914145833267
        },
        {
          "name": "B1",
          "midi": 35,
          "time": 111.52919800000048,
          "velocity": 0.6299212598425197,
          "duration": 1.4102914145833267
        },
        {
          "name": "E2",
          "midi": 40,
          "time": 112.94096000000047,
          "velocity": 0.6299212598425197,
          "duration": 1.4102914145833267
        },
        {
          "name": "E1",
          "midi": 28,
          "time": 112.94096000000047,
          "velocity": 0.6299212598425197,
          "duration": 1.4102914145833267
        },
        {
          "name": "B2",
          "midi": 47,
          "time": 114.35272200000047,
          "velocity": 0.6299212598425197,
          "duration": 1.0573509145833384
        },
        {
          "name": "B1",
          "midi": 35,
          "time": 114.35272200000047,
          "velocity": 0.6299212598425197,
          "duration": 1.0573509145833384
        },
        {
          "name": "A#2",
          "midi": 46,
          "time": 115.41154350000048,
          "velocity": 0.6299212598425197,
          "duration": 0.3514699145833333
        },
        {
          "name": "G#1",
          "midi": 32,
          "time": 115.41154350000048,
          "velocity": 0.6299212598425197,
          "duration": 0.3514699145833333
        },
        {
          "name": "G#2",
          "midi": 44,
          "time": 115.76448400000048,
          "velocity": 0.6299212598425197,
          "duration": 1.4102914145833267
        },
        {
          "name": "G#1",
          "midi": 32,
          "time": 115.76448400000048,
          "velocity": 0.6299212598425197,
          "duration": 1.4102914145833267
        },
        {
          "name": "D#3",
          "midi": 51,
          "time": 117.17624600000048,
          "velocity": 0.6299212598425197,
          "duration": 1.4102914145833267
        },
        {
          "name": "D#2",
          "midi": 39,
          "time": 117.17624600000048,
          "velocity": 0.6299212598425197,
          "duration": 1.4102914145833267
        },
        {
          "name": "G#2",
          "midi": 44,
          "time": 118.58800800000047,
          "velocity": 0.6299212598425197,
          "duration": 1.4102914145833267
        },
        {
          "name": "G#1",
          "midi": 32,
          "time": 118.58800800000047,
          "velocity": 0.6299212598425197,
          "duration": 1.4102914145833267
        },
        {
          "name": "G#2",
          "midi": 44,
          "time": 121.41153200000046,
          "velocity": 0.6299212598425197,
          "duration": 0.7044104145833359
        },
        {
          "name": "C#2",
          "midi": 37,
          "time": 121.41153200000046,
          "velocity": 0.6299212598425197,
          "duration": 0.7044104145833359
        },
        {
          "name": "G#2",
          "midi": 44,
          "time": 122.11741300000047,
          "velocity": 0.6299212598425197,
          "duration": 0.7044104145833359
        },
        {
          "name": "D#2",
          "midi": 39,
          "time": 122.11741300000047,
          "velocity": 0.6299212598425197,
          "duration": 0.7044104145833359
        },
        {
          "name": "C#3",
          "midi": 49,
          "time": 122.82329400000047,
          "velocity": 0.6299212598425197,
          "duration": 0.7044104145833359
        },
        {
          "name": "E2",
          "midi": 40,
          "time": 122.82329400000047,
          "velocity": 0.6299212598425197,
          "duration": 0.7044104145833359
        },
        {
          "name": "C3",
          "midi": 48,
          "time": 123.52917500000048,
          "velocity": 0.6299212598425197,
          "duration": 0.7044104145833359
        },
        {
          "name": "D#2",
          "midi": 39,
          "time": 123.52917500000048,
          "velocity": 0.6299212598425197,
          "duration": 0.7044104145833359
        },
        {
          "name": "G#2",
          "midi": 44,
          "time": 124.23505600000048,
          "velocity": 0.6299212598425197,
          "duration": 0.7044104145833359
        },
        {
          "name": "D#2",
          "midi": 39,
          "time": 124.23505600000048,
          "velocity": 0.6299212598425197,
          "duration": 0.7044104145833359
        },
        {
          "name": "G#2",
          "midi": 44,
          "time": 124.94093700000049,
          "velocity": 0.6299212598425197,
          "duration": 0.7044104145833359
        },
        {
          "name": "E2",
          "midi": 40,
          "time": 124.94093700000049,
          "velocity": 0.6299212598425197,
          "duration": 0.7044104145833359
        },
        {
          "name": "D#3",
          "midi": 51,
          "time": 125.6468180000005,
          "velocity": 0.6299212598425197,
          "duration": 0.7044104145833359
        },
        {
          "name": "F#2",
          "midi": 42,
          "time": 125.6468180000005,
          "velocity": 0.6299212598425197,
          "duration": 0.7044104145833359
        },
        {
          "name": "C#3",
          "midi": 49,
          "time": 126.3526990000005,
          "velocity": 0.6299212598425197,
          "duration": 0.7044104145833359
        },
        {
          "name": "E2",
          "midi": 40,
          "time": 126.3526990000005,
          "velocity": 0.6299212598425197,
          "duration": 0.7044104145833359
        },
        {
          "name": "C#3",
          "midi": 49,
          "time": 127.0585800000005,
          "velocity": 0.6299212598425197,
          "duration": 0.7044104145833359
        },
        {
          "name": "E2",
          "midi": 40,
          "time": 127.0585800000005,
          "velocity": 0.6299212598425197,
          "duration": 0.7044104145833359
        },
        {
          "name": "D#3",
          "midi": 51,
          "time": 127.76446100000051,
          "velocity": 0.6299212598425197,
          "duration": 0.7044104145833359
        },
        {
          "name": "G#2",
          "midi": 44,
          "time": 127.76446100000051,
          "velocity": 0.6299212598425197,
          "duration": 0.7044104145833359
        },
        {
          "name": "E3",
          "midi": 52,
          "time": 128.4703420000005,
          "velocity": 0.6299212598425197,
          "duration": 0.7044104145833217
        },
        {
          "name": "C#3",
          "midi": 49,
          "time": 128.4703420000005,
          "velocity": 0.6299212598425197,
          "duration": 0.7044104145833217
        },
        {
          "name": "D#3",
          "midi": 51,
          "time": 129.17622300000048,
          "velocity": 0.6299212598425197,
          "duration": 0.7044104145833217
        },
        {
          "name": "G#2",
          "midi": 44,
          "time": 129.17622300000048,
          "velocity": 0.6299212598425197,
          "duration": 0.7044104145833217
        },
        {
          "name": "D#3",
          "midi": 51,
          "time": 129.88210400000045,
          "velocity": 0.6299212598425197,
          "duration": 3.527934414583342
        },
        {
          "name": "G#2",
          "midi": 44,
          "time": 129.88210400000045,
          "velocity": 0.6299212598425197,
          "duration": 3.527934414583342
        },
        {
          "name": "E3",
          "midi": 52,
          "time": 133.41150900000045,
          "velocity": 0.6299212598425197,
          "duration": 0.7044104145833217
        },
        {
          "name": "C#3",
          "midi": 49,
          "time": 133.41150900000045,
          "velocity": 0.6299212598425197,
          "duration": 0.7044104145833217
        },
        {
          "name": "D#3",
          "midi": 51,
          "time": 134.11739000000043,
          "velocity": 0.6299212598425197,
          "duration": 0.7044104145833217
        },
        {
          "name": "G#2",
          "midi": 44,
          "time": 134.11739000000043,
          "velocity": 0.6299212598425197,
          "duration": 0.7044104145833217
        },
        {
          "name": "C#3",
          "midi": 49,
          "time": 134.8232710000004,
          "velocity": 0.6299212598425197,
          "duration": 0.7044104145833217
        },
        {
          "name": "E2",
          "midi": 40,
          "time": 134.8232710000004,
          "velocity": 0.6299212598425197,
          "duration": 0.7044104145833217
        },
        {
          "name": "D#3",
          "midi": 51,
          "time": 135.52915200000038,
          "velocity": 0.6299212598425197,
          "duration": 0.7044104145833217
        },
        {
          "name": "G#2",
          "midi": 44,
          "time": 135.52915200000038,
          "velocity": 0.6299212598425197,
          "duration": 0.7044104145833217
        },
        {
          "name": "C#3",
          "midi": 49,
          "time": 136.23503300000036,
          "velocity": 0.6299212598425197,
          "duration": 0.7044104145833217
        },
        {
          "name": "E2",
          "midi": 40,
          "time": 136.23503300000036,
          "velocity": 0.6299212598425197,
          "duration": 0.7044104145833217
        },
        {
          "name": "C3",
          "midi": 48,
          "time": 136.94091400000033,
          "velocity": 0.6299212598425197,
          "duration": 0.7044104145833217
        },
        {
          "name": "D#2",
          "midi": 39,
          "time": 136.94091400000033,
          "velocity": 0.6299212598425197,
          "duration": 0.7044104145833217
        },
        {
          "name": "C#3",
          "midi": 49,
          "time": 137.6467950000003,
          "velocity": 0.6299212598425197,
          "duration": 0.7044104145833217
        },
        {
          "name": "E2",
          "midi": 40,
          "time": 137.6467950000003,
          "velocity": 0.6299212598425197,
          "duration": 0.7044104145833217
        },
        {
          "name": "C3",
          "midi": 48,
          "time": 138.3526760000003,
          "velocity": 0.6299212598425197,
          "duration": 0.7044104145833217
        },
        {
          "name": "D#2",
          "midi": 39,
          "time": 138.3526760000003,
          "velocity": 0.6299212598425197,
          "duration": 0.7044104145833217
        },
        {
          "name": "C#3",
          "midi": 49,
          "time": 139.05855700000026,
          "velocity": 0.6299212598425197,
          "duration": 0.7044104145833217
        },
        {
          "name": "E2",
          "midi": 40,
          "time": 139.05855700000026,
          "velocity": 0.6299212598425197,
          "duration": 0.7044104145833217
        },
        {
          "name": "D#3",
          "midi": 51,
          "time": 139.76443800000024,
          "velocity": 0.6299212598425197,
          "duration": 0.7044104145833217
        },
        {
          "name": "D#2",
          "midi": 39,
          "time": 139.76443800000024,
          "velocity": 0.6299212598425197,
          "duration": 0.7044104145833217
        },
        {
          "name": "E3",
          "midi": 52,
          "time": 140.47031900000022,
          "velocity": 0.6299212598425197,
          "duration": 0.7044104145833217
        },
        {
          "name": "C#2",
          "midi": 37,
          "time": 140.47031900000022,
          "velocity": 0.6299212598425197,
          "duration": 0.7044104145833217
        },
        {
          "name": "D#3",
          "midi": 51,
          "time": 141.1762000000002,
          "velocity": 0.6299212598425197,
          "duration": 2.822053414583337
        },
        {
          "name": "G#2",
          "midi": 44,
          "time": 141.1762000000002,
          "velocity": 0.6299212598425197,
          "duration": 2.822053414583337
        },
        {
          "name": "G#2",
          "midi": 44,
          "time": 143.99972400000019,
          "velocity": 0.6299212598425197,
          "duration": 0.7044104145833217
        },
        {
          "name": "C#2",
          "midi": 37,
          "time": 143.99972400000019,
          "velocity": 0.6299212598425197,
          "duration": 0.7044104145833217
        },
        {
          "name": "G#2",
          "midi": 44,
          "time": 144.70560500000016,
          "velocity": 0.6299212598425197,
          "duration": 0.7044104145833217
        },
        {
          "name": "D#2",
          "midi": 39,
          "time": 144.70560500000016,
          "velocity": 0.6299212598425197,
          "duration": 0.7044104145833217
        },
        {
          "name": "C#3",
          "midi": 49,
          "time": 145.41148600000014,
          "velocity": 0.6299212598425197,
          "duration": 0.7044104145833217
        },
        {
          "name": "E2",
          "midi": 40,
          "time": 145.41148600000014,
          "velocity": 0.6299212598425197,
          "duration": 0.7044104145833217
        },
        {
          "name": "C3",
          "midi": 48,
          "time": 146.11736700000012,
          "velocity": 0.6299212598425197,
          "duration": 0.7044104145833217
        },
        {
          "name": "D#2",
          "midi": 39,
          "time": 146.11736700000012,
          "velocity": 0.6299212598425197,
          "duration": 0.7044104145833217
        },
        {
          "name": "G#2",
          "midi": 44,
          "time": 146.8232480000001,
          "velocity": 0.6299212598425197,
          "duration": 0.7044104145833217
        },
        {
          "name": "D#2",
          "midi": 39,
          "time": 146.8232480000001,
          "velocity": 0.6299212598425197,
          "duration": 0.7044104145833217
        },
        {
          "name": "G#2",
          "midi": 44,
          "time": 147.52912900000007,
          "velocity": 0.6299212598425197,
          "duration": 0.7044104145833217
        },
        {
          "name": "E2",
          "midi": 40,
          "time": 147.52912900000007,
          "velocity": 0.6299212598425197,
          "duration": 0.7044104145833217
        },
        {
          "name": "D#3",
          "midi": 51,
          "time": 148.23501000000005,
          "velocity": 0.6299212598425197,
          "duration": 0.7044104145833217
        },
        {
          "name": "F#2",
          "midi": 42,
          "time": 148.23501000000005,
          "velocity": 0.6299212598425197,
          "duration": 0.7044104145833217
        },
        {
          "name": "C#3",
          "midi": 49,
          "time": 148.94089100000002,
          "velocity": 0.6299212598425197,
          "duration": 0.7044104145833217
        },
        {
          "name": "E2",
          "midi": 40,
          "time": 148.94089100000002,
          "velocity": 0.6299212598425197,
          "duration": 0.7044104145833217
        },
        {
          "name": "C#3",
          "midi": 49,
          "time": 149.646772,
          "velocity": 0.6299212598425197,
          "duration": 0.7044104145833217
        },
        {
          "name": "F#2",
          "midi": 42,
          "time": 149.646772,
          "velocity": 0.6299212598425197,
          "duration": 0.7044104145833217
        },
        {
          "name": "D#3",
          "midi": 51,
          "time": 150.35265299999998,
          "velocity": 0.6299212598425197,
          "duration": 0.7044104145833217
        },
        {
          "name": "G#2",
          "midi": 44,
          "time": 150.35265299999998,
          "velocity": 0.6299212598425197,
          "duration": 0.7044104145833217
        },
        {
          "name": "E3",
          "midi": 52,
          "time": 151.05853399999995,
          "velocity": 0.6299212598425197,
          "duration": 0.7044104145833217
        },
        {
          "name": "C#3",
          "midi": 49,
          "time": 151.05853399999995,
          "velocity": 0.6299212598425197,
          "duration": 0.7044104145833217
        },
        {
          "name": "G#1",
          "midi": 32,
          "time": 151.76441499999993,
          "velocity": 0.6299212598425197,
          "duration": 0.7044104145833217
        },
        {
          "name": "D#3",
          "midi": 51,
          "time": 151.76441499999993,
          "velocity": 0.6299212598425197,
          "duration": 0.7044104145833217
        },
        {
          "name": "G#2",
          "midi": 44,
          "time": 151.76441499999993,
          "velocity": 0.6299212598425197,
          "duration": 0.7044104145833217
        },
        {
          "name": "D#3",
          "midi": 51,
          "time": 152.4702959999999,
          "velocity": 0.6299212598425197,
          "duration": 2.822053414583337
        },
        {
          "name": "G#2",
          "midi": 44,
          "time": 152.4702959999999,
          "velocity": 0.6299212598425197,
          "duration": 2.822053414583337
        },
        {
          "name": "E2",
          "midi": 40,
          "time": 155.2938199999999,
          "velocity": 0.6299212598425197,
          "duration": 1.4102914145833267
        },
        {
          "name": "E1",
          "midi": 28,
          "time": 155.2938199999999,
          "velocity": 0.6299212598425197,
          "duration": 1.4102914145833267
        },
        {
          "name": "B2",
          "midi": 47,
          "time": 156.70558199999988,
          "velocity": 0.6299212598425197,
          "duration": 1.4102914145833267
        },
        {
          "name": "B1",
          "midi": 35,
          "time": 156.70558199999988,
          "velocity": 0.6299212598425197,
          "duration": 1.4102914145833267
        },
        {
          "name": "E2",
          "midi": 40,
          "time": 158.11734399999986,
          "velocity": 0.6299212598425197,
          "duration": 1.4102914145833267
        },
        {
          "name": "E1",
          "midi": 28,
          "time": 158.11734399999986,
          "velocity": 0.6299212598425197,
          "duration": 1.4102914145833267
        },
        {
          "name": "B2",
          "midi": 47,
          "time": 159.52910599999984,
          "velocity": 0.6299212598425197,
          "duration": 1.0573509145833384
        },
        {
          "name": "B1",
          "midi": 35,
          "time": 159.52910599999984,
          "velocity": 0.6299212598425197,
          "duration": 1.0573509145833384
        },
        {
          "name": "A#2",
          "midi": 46,
          "time": 160.58792749999984,
          "velocity": 0.6299212598425197,
          "duration": 0.3514699145833333
        },
        {
          "name": "G#1",
          "midi": 32,
          "time": 160.58792749999984,
          "velocity": 0.6299212598425197,
          "duration": 0.3514699145833333
        },
        {
          "name": "G#2",
          "midi": 44,
          "time": 160.94086799999982,
          "velocity": 0.6299212598425197,
          "duration": 1.4102914145833267
        },
        {
          "name": "G#1",
          "midi": 32,
          "time": 160.94086799999982,
          "velocity": 0.6299212598425197,
          "duration": 1.4102914145833267
        },
        {
          "name": "D#3",
          "midi": 51,
          "time": 162.3526299999998,
          "velocity": 0.6299212598425197,
          "duration": 1.4102914145833267
        },
        {
          "name": "D#2",
          "midi": 39,
          "time": 162.3526299999998,
          "velocity": 0.6299212598425197,
          "duration": 1.4102914145833267
        },
        {
          "name": "G#2",
          "midi": 44,
          "time": 163.7643919999998,
          "velocity": 0.6299212598425197,
          "duration": 1.4102914145833267
        },
        {
          "name": "G#1",
          "midi": 32,
          "time": 163.7643919999998,
          "velocity": 0.6299212598425197,
          "duration": 1.4102914145833267
        },
        {
          "name": "F#3",
          "midi": 54,
          "time": 166.58791599999978,
          "velocity": 0.6299212598425197,
          "duration": 1.4102914145833267
        },
        {
          "name": "G#2",
          "midi": 44,
          "time": 166.58791599999978,
          "velocity": 0.6299212598425197,
          "duration": 1.4102914145833267
        },
        {
          "name": "F#2",
          "midi": 42,
          "time": 166.58791599999978,
          "velocity": 0.6299212598425197,
          "duration": 1.4102914145833267
        },
        {
          "name": "E3",
          "midi": 52,
          "time": 167.99967799999976,
          "velocity": 0.6299212598425197,
          "duration": 0.7044104145833217
        },
        {
          "name": "E2",
          "midi": 40,
          "time": 167.99967799999976,
          "velocity": 0.6299212598425197,
          "duration": 0.7044104145833217
        },
        {
          "name": "G#2",
          "midi": 44,
          "time": 167.99967799999976,
          "velocity": 0.6299212598425197,
          "duration": 1.4102914145832983
        },
        {
          "name": "C#3",
          "midi": 49,
          "time": 168.70555899999974,
          "velocity": 0.6299212598425197,
          "duration": 0.7044104145833217
        },
        {
          "name": "C#2",
          "midi": 37,
          "time": 168.70555899999974,
          "velocity": 0.6299212598425197,
          "duration": 0.7044104145833217
        },
        {
          "name": "G#2",
          "midi": 44,
          "time": 169.41143999999971,
          "velocity": 0.6299212598425197,
          "duration": 2.116172414583332
        },
        {
          "name": "G#1",
          "midi": 32,
          "time": 169.41143999999971,
          "velocity": 0.6299212598425197,
          "duration": 2.116172414583332
        },
        {
          "name": "G#3",
          "midi": 56,
          "time": 171.5290829999997,
          "velocity": 0.6299212598425197,
          "duration": 0.7044104145833217
        },
        {
          "name": "G#2",
          "midi": 44,
          "time": 171.5290829999997,
          "velocity": 0.6299212598425197,
          "duration": 0.7044104145833217
        },
        {
          "name": "G#3",
          "midi": 56,
          "time": 172.23496399999968,
          "velocity": 0.6299212598425197,
          "duration": 1.4102914145833267
        },
        {
          "name": "C#3",
          "midi": 49,
          "time": 172.23496399999968,
          "velocity": 0.6299212598425197,
          "duration": 1.4102914145833267
        },
        {
          "name": "G#2",
          "midi": 44,
          "time": 173.64672599999966,
          "velocity": 0.6299212598425197,
          "duration": 1.4102914145833267
        },
        {
          "name": "A3",
          "midi": 57,
          "time": 175.05848799999964,
          "velocity": 0.6299212598425197,
          "duration": 1.4102914145833267
        },
        {
          "name": "A2",
          "midi": 45,
          "time": 175.05848799999964,
          "velocity": 0.6299212598425197,
          "duration": 1.4102914145833267
        },
        {
          "name": "G#3",
          "midi": 56,
          "time": 176.47024999999962,
          "velocity": 0.6299212598425197,
          "duration": 0.7044104145833217
        },
        {
          "name": "G#2",
          "midi": 44,
          "time": 176.47024999999962,
          "velocity": 0.6299212598425197,
          "duration": 0.7044104145833217
        },
        {
          "name": "F#3",
          "midi": 54,
          "time": 177.1761309999996,
          "velocity": 0.6299212598425197,
          "duration": 0.7044104145833217
        },
        {
          "name": "F#2",
          "midi": 42,
          "time": 177.1761309999996,
          "velocity": 0.6299212598425197,
          "duration": 0.7044104145833217
        },
        {
          "name": "G#2",
          "midi": 44,
          "time": 177.88201199999958,
          "velocity": 0.6299212598425197,
          "duration": 1.4102914145833267
        },
        {
          "name": "G#2",
          "midi": 44,
          "time": 179.29377399999956,
          "velocity": 0.6299212598425197,
          "duration": 1.4102914145833267
        },
        {
          "name": "C#2",
          "midi": 37,
          "time": 179.29377399999956,
          "velocity": 0.6299212598425197,
          "duration": 1.4102914145833267
        },
        {
          "name": "G#2",
          "midi": 44,
          "time": 180.70553599999954,
          "velocity": 0.6299212598425197,
          "duration": 0.7044104145833217
        },
        {
          "name": "G#1",
          "midi": 32,
          "time": 180.70553599999954,
          "velocity": 0.6299212598425197,
          "duration": 0.7044104145833217
        },
        {
          "name": "G#2",
          "midi": 44,
          "time": 181.41141699999952,
          "velocity": 0.6299212598425197,
          "duration": 2.116172414583332
        },
        {
          "name": "C#2",
          "midi": 37,
          "time": 181.41141699999952,
          "velocity": 0.6299212598425197,
          "duration": 2.116172414583332
        },
        {
          "name": "G#2",
          "midi": 44,
          "time": 183.5290599999995,
          "velocity": 0.6299212598425197,
          "duration": 0.7044104145833217
        },
        {
          "name": "C#2",
          "midi": 37,
          "time": 183.5290599999995,
          "velocity": 0.6299212598425197,
          "duration": 0.7044104145833217
        },
        {
          "name": "G#2",
          "midi": 44,
          "time": 184.23494099999948,
          "velocity": 0.6299212598425197,
          "duration": 1.4102914145833267
        },
        {
          "name": "G#1",
          "midi": 32,
          "time": 184.23494099999948,
          "velocity": 0.6299212598425197,
          "duration": 1.4102914145833267
        },
        {
          "name": "G#2",
          "midi": 44,
          "time": 185.64670299999946,
          "velocity": 0.6299212598425197,
          "duration": 0.7044104145833217
        },
        {
          "name": "C#2",
          "midi": 37,
          "time": 185.64670299999946,
          "velocity": 0.6299212598425197,
          "duration": 0.7044104145833217
        },
        {
          "name": "G#2",
          "midi": 44,
          "time": 186.35258399999944,
          "velocity": 0.6299212598425197,
          "duration": 2.822053414583337
        },
        {
          "name": "G#1",
          "midi": 32,
          "time": 186.35258399999944,
          "velocity": 0.6299212598425197,
          "duration": 2.822053414583337
        },
        {
          "name": "F#3",
          "midi": 54,
          "time": 189.17610799999943,
          "velocity": 0.6299212598425197,
          "duration": 1.4102914145832983
        },
        {
          "name": "F#2",
          "midi": 42,
          "time": 189.17610799999943,
          "velocity": 0.6299212598425197,
          "duration": 1.4102914145832983
        },
        {
          "name": "G#2",
          "midi": 44,
          "time": 189.17610799999943,
          "velocity": 0.6299212598425197,
          "duration": 0.3514699145833333
        },
        {
          "name": "G#2",
          "midi": 44,
          "time": 189.52904849999942,
          "velocity": 0.6299212598425197,
          "duration": 0.3514699145833333
        },
        {
          "name": "G#2",
          "midi": 44,
          "time": 189.8819889999994,
          "velocity": 0.6299212598425197,
          "duration": 0.3514699145833333
        },
        {
          "name": "G#2",
          "midi": 44,
          "time": 190.2349294999994,
          "velocity": 0.6299212598425197,
          "duration": 0.3514699145833333
        },
        {
          "name": "E3",
          "midi": 52,
          "time": 190.58786999999938,
          "velocity": 0.6299212598425197,
          "duration": 0.7044104145833217
        },
        {
          "name": "G#2",
          "midi": 44,
          "time": 190.58786999999938,
          "velocity": 0.6299212598425197,
          "duration": 0.7044104145833217
        },
        {
          "name": "E2",
          "midi": 40,
          "time": 190.58786999999938,
          "velocity": 0.6299212598425197,
          "duration": 0.7044104145833217
        },
        {
          "name": "C#3",
          "midi": 49,
          "time": 191.29375099999936,
          "velocity": 0.6299212598425197,
          "duration": 0.7044104145833217
        },
        {
          "name": "C#2",
          "midi": 37,
          "time": 191.29375099999936,
          "velocity": 0.6299212598425197,
          "duration": 0.7044104145833217
        },
        {
          "name": "G#2",
          "midi": 44,
          "time": 191.99963199999934,
          "velocity": 0.6299212598425197,
          "duration": 2.822053414583337
        },
        {
          "name": "F#1",
          "midi": 30,
          "time": 191.99963199999934,
          "velocity": 0.6299212598425197,
          "duration": 2.822053414583337
        },
        {
          "name": "G#2",
          "midi": 44,
          "time": 194.82315599999933,
          "velocity": 0.6299212598425197,
          "duration": 1.4102914145833267
        },
        {
          "name": "C#2",
          "midi": 37,
          "time": 194.82315599999933,
          "velocity": 0.6299212598425197,
          "duration": 1.4102914145833267
        },
        {
          "name": "G#3",
          "midi": 56,
          "time": 196.2349179999993,
          "velocity": 0.6299212598425197,
          "duration": 1.4102914145833267
        },
        {
          "name": "G#2",
          "midi": 44,
          "time": 196.2349179999993,
          "velocity": 0.6299212598425197,
          "duration": 1.4102914145833267
        },
        {
          "name": "F3",
          "midi": 53,
          "time": 197.6466799999993,
          "velocity": 0.6299212598425197,
          "duration": 1.4102914145833267
        },
        {
          "name": "F2",
          "midi": 41,
          "time": 197.6466799999993,
          "velocity": 0.6299212598425197,
          "duration": 1.4102914145833267
        },
        {
          "name": "F#3",
          "midi": 54,
          "time": 199.05844199999927,
          "velocity": 0.6299212598425197,
          "duration": 1.4102914145833267
        },
        {
          "name": "F#2",
          "midi": 42,
          "time": 199.05844199999927,
          "velocity": 0.6299212598425197,
          "duration": 1.4102914145833267
        },
        {
          "name": "C3",
          "midi": 48,
          "time": 200.47020399999926,
          "velocity": 0.6299212598425197,
          "duration": 1.4102914145833267
        },
        {
          "name": "B1",
          "midi": 35,
          "time": 200.47020399999926,
          "velocity": 0.6299212598425197,
          "duration": 1.4102914145833267
        },
        {
          "name": "C#3",
          "midi": 49,
          "time": 201.88196599999924,
          "velocity": 0.6299212598425197,
          "duration": 1.4102914145833267
        },
        {
          "name": "C#2",
          "midi": 37,
          "time": 201.88196599999924,
          "velocity": 0.6299212598425197,
          "duration": 1.4102914145833267
        },
        {
          "name": "G#2",
          "midi": 44,
          "time": 203.29372799999922,
          "velocity": 0.6299212598425197,
          "duration": 2.116172414583332
        },
        {
          "name": "G#1",
          "midi": 32,
          "time": 203.29372799999922,
          "velocity": 0.6299212598425197,
          "duration": 2.116172414583332
        },
        {
          "name": "G#2",
          "midi": 44,
          "time": 205.4113709999992,
          "velocity": 0.6299212598425197,
          "duration": 0.7044104145833217
        },
        {
          "name": "C#2",
          "midi": 37,
          "time": 205.4113709999992,
          "velocity": 0.6299212598425197,
          "duration": 0.7044104145833217
        },
        {
          "name": "G#2",
          "midi": 44,
          "time": 206.11725199999918,
          "velocity": 0.6299212598425197,
          "duration": 2.116172414583332
        },
        {
          "name": "G#1",
          "midi": 32,
          "time": 206.11725199999918,
          "velocity": 0.6299212598425197,
          "duration": 2.116172414583332
        },
        {
          "name": "G#2",
          "midi": 44,
          "time": 208.23489499999917,
          "velocity": 0.6299212598425197,
          "duration": 0.7044104145833217
        },
        {
          "name": "C#2",
          "midi": 37,
          "time": 208.23489499999917,
          "velocity": 0.6299212598425197,
          "duration": 0.7044104145833217
        },
        {
          "name": "G#2",
          "midi": 44,
          "time": 208.94077599999915,
          "velocity": 0.6299212598425197,
          "duration": 0.7044104145833217
        },
        {
          "name": "G#1",
          "midi": 32,
          "time": 208.94077599999915,
          "velocity": 0.6299212598425197,
          "duration": 0.7044104145833217
        },
        {
          "name": "G#2",
          "midi": 44,
          "time": 209.64665699999912,
          "velocity": 0.6299212598425197,
          "duration": 0.7044104145833217
        },
        {
          "name": "G#3",
          "midi": 56,
          "time": 210.3525379999991,
          "velocity": 0.6299212598425197,
          "duration": 0.3514699145833333
        },
        {
          "name": "F3",
          "midi": 53,
          "time": 210.7054784999991,
          "velocity": 0.6299212598425197,
          "duration": 0.3514699145833333
        },
        {
          "name": "F#3",
          "midi": 54,
          "time": 211.05841899999908,
          "velocity": 0.6299212598425197,
          "duration": 0.3514699145833333
        },
        {
          "name": "D#3",
          "midi": 51,
          "time": 211.41135949999907,
          "velocity": 0.6299212598425197,
          "duration": 0.3514699145833333
        },
        {
          "name": "C#3",
          "midi": 49,
          "time": 211.76429999999905,
          "velocity": 0.6299212598425197,
          "duration": 0.3514699145833333
        },
        {
          "name": "G#3",
          "midi": 56,
          "time": 212.11724049999904,
          "velocity": 0.6299212598425197,
          "duration": 0.3514699145833333
        },
        {
          "name": "G#3",
          "midi": 56,
          "time": 212.47018099999903,
          "velocity": 0.6299212598425197,
          "duration": 0.3514699145833333
        },
        {
          "name": "G#3",
          "midi": 56,
          "time": 212.82312149999902,
          "velocity": 0.6299212598425197,
          "duration": 0.3514699145833333
        },
        {
          "name": "G#3",
          "midi": 56,
          "time": 213.176061999999,
          "velocity": 0.6299212598425197,
          "duration": 0.3514699145833333
        },
        {
          "name": "G#3",
          "midi": 56,
          "time": 213.529002499999,
          "velocity": 0.6299212598425197,
          "duration": 0.3514699145833333
        },
        {
          "name": "G#3",
          "midi": 56,
          "time": 213.88194299999898,
          "velocity": 0.6299212598425197,
          "duration": 0.3514699145833333
        },
        {
          "name": "G#3",
          "midi": 56,
          "time": 214.23488349999897,
          "velocity": 0.6299212598425197,
          "duration": 0.3514699145833333
        },
        {
          "name": "G#3",
          "midi": 56,
          "time": 214.58782399999896,
          "velocity": 0.6299212598425197,
          "duration": 0.3514699145833333
        },
        {
          "name": "G#3",
          "midi": 56,
          "time": 214.94076449999895,
          "velocity": 0.6299212598425197,
          "duration": 0.3514699145833333
        },
        {
          "name": "G#3",
          "midi": 56,
          "time": 215.29370499999894,
          "velocity": 0.6299212598425197,
          "duration": 0.3514699145833333
        },
        {
          "name": "G#3",
          "midi": 56,
          "time": 215.64664549999893,
          "velocity": 0.6299212598425197,
          "duration": 0.3514699145833333
        },
        {
          "name": "A#3",
          "midi": 58,
          "time": 215.9995859999989,
          "velocity": 0.6299212598425197,
          "duration": 0.3514699145833333
        },
        {
          "name": "G#3",
          "midi": 56,
          "time": 216.3525264999989,
          "velocity": 0.6299212598425197,
          "duration": 0.3514699145833333
        },
        {
          "name": "G#3",
          "midi": 56,
          "time": 216.7054669999989,
          "velocity": 0.6299212598425197,
          "duration": 0.3514699145833333
        },
        {
          "name": "G#3",
          "midi": 56,
          "time": 217.05840749999888,
          "velocity": 0.6299212598425197,
          "duration": 0.3514699145833333
        },
        {
          "name": "C4",
          "midi": 60,
          "time": 217.41134799999887,
          "velocity": 0.6299212598425197,
          "duration": 0.3514699145833333
        },
        {
          "name": "G#3",
          "midi": 56,
          "time": 217.76428849999886,
          "velocity": 0.6299212598425197,
          "duration": 0.7044104145833217
        },
        {
          "name": "G#3",
          "midi": 56,
          "time": 218.47016949999883,
          "velocity": 0.6299212598425197,
          "duration": 0.3514699145833333
        },
        {
          "name": "G#3",
          "midi": 56,
          "time": 218.82310999999882,
          "velocity": 0.6299212598425197,
          "duration": 0.3514699145833333
        },
        {
          "name": "G#3",
          "midi": 56,
          "time": 219.1760504999988,
          "velocity": 0.6299212598425197,
          "duration": 0.3514699145833333
        },
        {
          "name": "C#4",
          "midi": 61,
          "time": 219.5289909999988,
          "velocity": 0.6299212598425197,
          "duration": 0.3514699145833333
        },
        {
          "name": "G#3",
          "midi": 56,
          "time": 219.88193149999879,
          "velocity": 0.6299212598425197,
          "duration": 0.3514699145833333
        },
        {
          "name": "C4",
          "midi": 60,
          "time": 220.23487199999877,
          "velocity": 0.6299212598425197,
          "duration": 0.3514699145833333
        },
        {
          "name": "G#3",
          "midi": 56,
          "time": 220.58781249999876,
          "velocity": 0.6299212598425197,
          "duration": 0.3514699145833333
        },
        {
          "name": "F#4",
          "midi": 66,
          "time": 220.94075299999875,
          "velocity": 0.6299212598425197,
          "duration": 0.3514699145833333
        },
        {
          "name": "G#3",
          "midi": 56,
          "time": 221.29369349999874,
          "velocity": 0.6299212598425197,
          "duration": 0.3514699145833333
        },
        {
          "name": "F4",
          "midi": 65,
          "time": 221.64663399999873,
          "velocity": 0.6299212598425197,
          "duration": 0.3514699145833333
        },
        {
          "name": "C#4",
          "midi": 61,
          "time": 221.64663399999873,
          "velocity": 0.6299212598425197,
          "duration": 0.3514699145833333
        },
        {
          "name": "G#3",
          "midi": 56,
          "time": 221.99957449999872,
          "velocity": 0.6299212598425197,
          "duration": 0.3514699145833333
        },
        {
          "name": "F#4",
          "midi": 66,
          "time": 222.3525149999987,
          "velocity": 0.6299212598425197,
          "duration": 0.3514699145833333
        },
        {
          "name": "C4",
          "midi": 60,
          "time": 222.3525149999987,
          "velocity": 0.6299212598425197,
          "duration": 0.3514699145833333
        },
        {
          "name": "G#3",
          "midi": 56,
          "time": 222.7054554999987,
          "velocity": 0.6299212598425197,
          "duration": 0.3514699145833333
        },
        {
          "name": "C#3",
          "midi": 49,
          "time": 223.05839599999868,
          "velocity": 0.6299212598425197,
          "duration": 0.3514699145833333
        },
        {
          "name": "G#3",
          "midi": 56,
          "time": 223.41133649999867,
          "velocity": 0.6299212598425197,
          "duration": 0.3514699145833333
        },
        {
          "name": "G#3",
          "midi": 56,
          "time": 223.76427699999866,
          "velocity": 0.6299212598425197,
          "duration": 0.3514699145833333
        },
        {
          "name": "G#3",
          "midi": 56,
          "time": 224.11721749999865,
          "velocity": 0.6299212598425197,
          "duration": 0.3514699145833333
        },
        {
          "name": "G#3",
          "midi": 56,
          "time": 224.47015799999863,
          "velocity": 0.6299212598425197,
          "duration": 0.3514699145833333
        },
        {
          "name": "G#3",
          "midi": 56,
          "time": 224.82309849999862,
          "velocity": 0.6299212598425197,
          "duration": 0.3514699145833333
        },
        {
          "name": "G#3",
          "midi": 56,
          "time": 225.1760389999986,
          "velocity": 0.6299212598425197,
          "duration": 0.3514699145833333
        },
        {
          "name": "G#3",
          "midi": 56,
          "time": 225.5289794999986,
          "velocity": 0.6299212598425197,
          "duration": 0.3514699145833333
        },
        {
          "name": "F#4",
          "midi": 66,
          "time": 225.8819199999986,
          "velocity": 0.6299212598425197,
          "duration": 0.3514699145833333
        },
        {
          "name": "D#4",
          "midi": 63,
          "time": 225.8819199999986,
          "velocity": 0.6299212598425197,
          "duration": 0.3514699145833333
        },
        {
          "name": "G#3",
          "midi": 56,
          "time": 226.23486049999858,
          "velocity": 0.6299212598425197,
          "duration": 0.3514699145833333
        },
        {
          "name": "G#3",
          "midi": 56,
          "time": 226.58780099999856,
          "velocity": 0.6299212598425197,
          "duration": 0.3514699145833333
        },
        {
          "name": "G#3",
          "midi": 56,
          "time": 226.94074149999855,
          "velocity": 0.6299212598425197,
          "duration": 0.3514699145833333
        },
        {
          "name": "A#3",
          "midi": 58,
          "time": 227.29368199999854,
          "velocity": 0.6299212598425197,
          "duration": 0.3514699145833333
        },
        {
          "name": "G#3",
          "midi": 56,
          "time": 227.64662249999853,
          "velocity": 0.6299212598425197,
          "duration": 0.3514699145833333
        },
        {
          "name": "G#2",
          "midi": 44,
          "time": 234.35249199999853,
          "velocity": 0.6299212598425197,
          "duration": 2.8220534145832517
        },
        {
          "name": "G#3",
          "midi": 56,
          "time": 234.70543249999852,
          "velocity": 0.6299212598425197,
          "duration": 0.3514699145833333
        },
        {
          "name": "G#3",
          "midi": 56,
          "time": 235.0583729999985,
          "velocity": 0.6299212598425197,
          "duration": 0.3514699145833333
        },
        {
          "name": "G#3",
          "midi": 56,
          "time": 235.4113134999985,
          "velocity": 0.6299212598425197,
          "duration": 0.3514699145833333
        },
        {
          "name": "G#3",
          "midi": 56,
          "time": 235.7642539999985,
          "velocity": 0.6299212598425197,
          "duration": 0.3514699145833333
        },
        {
          "name": "G#3",
          "midi": 56,
          "time": 236.11719449999848,
          "velocity": 0.6299212598425197,
          "duration": 0.3514699145833333
        },
        {
          "name": "G#3",
          "midi": 56,
          "time": 236.47013499999846,
          "velocity": 0.6299212598425197,
          "duration": 0.3514699145833333
        },
        {
          "name": "G#3",
          "midi": 56,
          "time": 236.82307549999845,
          "velocity": 0.6299212598425197,
          "duration": 0.3514699145833333
        },
        {
          "name": "C#3",
          "midi": 49,
          "time": 237.17601599999844,
          "velocity": 0.6299212598425197,
          "duration": 2.8220534145832517
        },
        {
          "name": "G#3",
          "midi": 56,
          "time": 237.17601599999844,
          "velocity": 0.6299212598425197,
          "duration": 0.3514699145833333
        },
        {
          "name": "G#3",
          "midi": 56,
          "time": 237.52895649999843,
          "velocity": 0.6299212598425197,
          "duration": 0.3514699145833333
        },
        {
          "name": "G#3",
          "midi": 56,
          "time": 237.88189699999842,
          "velocity": 0.6299212598425197,
          "duration": 0.3514699145833333
        },
        {
          "name": "G#3",
          "midi": 56,
          "time": 238.2348374999984,
          "velocity": 0.6299212598425197,
          "duration": 0.3514699145833333
        },
        {
          "name": "G#3",
          "midi": 56,
          "time": 238.5877779999984,
          "velocity": 0.6299212598425197,
          "duration": 0.3514699145833333
        },
        {
          "name": "G#3",
          "midi": 56,
          "time": 238.94071849999838,
          "velocity": 0.6299212598425197,
          "duration": 0.3514699145833333
        },
        {
          "name": "G#3",
          "midi": 56,
          "time": 239.29365899999837,
          "velocity": 0.6299212598425197,
          "duration": 0.3514699145833333
        },
        {
          "name": "G#3",
          "midi": 56,
          "time": 239.64659949999836,
          "velocity": 0.6299212598425197,
          "duration": 0.3514699145833333
        },
        {
          "name": "G#2",
          "midi": 44,
          "time": 239.99953999999835,
          "velocity": 0.6299212598425197,
          "duration": 2.8220534145832517
        },
        {
          "name": "G#3",
          "midi": 56,
          "time": 239.99953999999835,
          "velocity": 0.6299212598425197,
          "duration": 0.3514699145833333
        },
        {
          "name": "G#3",
          "midi": 56,
          "time": 240.35248049999834,
          "velocity": 0.6299212598425197,
          "duration": 0.3514699145833333
        },
        {
          "name": "G#3",
          "midi": 56,
          "time": 240.70542099999832,
          "velocity": 0.6299212598425197,
          "duration": 0.3514699145833333
        },
        {
          "name": "G#3",
          "midi": 56,
          "time": 241.0583614999983,
          "velocity": 0.6299212598425197,
          "duration": 0.3514699145833333
        },
        {
          "name": "G#3",
          "midi": 56,
          "time": 241.4113019999983,
          "velocity": 0.6299212598425197,
          "duration": 0.3514699145833333
        },
        {
          "name": "G#3",
          "midi": 56,
          "time": 241.7642424999983,
          "velocity": 0.6299212598425197,
          "duration": 0.3514699145833333
        },
        {
          "name": "G#3",
          "midi": 56,
          "time": 242.11718299999828,
          "velocity": 0.6299212598425197,
          "duration": 0.3514699145833333
        },
        {
          "name": "G#3",
          "midi": 56,
          "time": 242.47012349999827,
          "velocity": 0.6299212598425197,
          "duration": 0.3514699145833333
        },
        {
          "name": "G#2",
          "midi": 44,
          "time": 242.82306399999825,
          "velocity": 0.6299212598425197,
          "duration": 2.8220534145832517
        },
        {
          "name": "G#3",
          "midi": 56,
          "time": 242.82306399999825,
          "velocity": 0.6299212598425197,
          "duration": 0.3514699145833333
        },
        {
          "name": "G#3",
          "midi": 56,
          "time": 243.17600449999824,
          "velocity": 0.6299212598425197,
          "duration": 0.3514699145833333
        },
        {
          "name": "G#3",
          "midi": 56,
          "time": 243.52894499999823,
          "velocity": 0.6299212598425197,
          "duration": 0.3514699145833333
        },
        {
          "name": "G#3",
          "midi": 56,
          "time": 243.88188549999822,
          "velocity": 0.6299212598425197,
          "duration": 0.3514699145833333
        },
        {
          "name": "G#3",
          "midi": 56,
          "time": 244.2348259999982,
          "velocity": 0.6299212598425197,
          "duration": 0.3514699145833333
        },
        {
          "name": "G#3",
          "midi": 56,
          "time": 244.5877664999982,
          "velocity": 0.6299212598425197,
          "duration": 0.3514699145833333
        },
        {
          "name": "G#3",
          "midi": 56,
          "time": 244.94070699999818,
          "velocity": 0.6299212598425197,
          "duration": 0.3514699145833333
        },
        {
          "name": "G#3",
          "midi": 56,
          "time": 245.29364749999817,
          "velocity": 0.6299212598425197,
          "duration": 0.3514699145833333
        },
        {
          "name": "C#3",
          "midi": 49,
          "time": 245.64658799999816,
          "velocity": 0.6299212598425197,
          "duration": 1.4102914145833267
        },
        {
          "name": "G#2",
          "midi": 44,
          "time": 247.05834999999814,
          "velocity": 0.6299212598425197,
          "duration": 1.4102914145833267
        },
        {
          "name": "C#2",
          "midi": 37,
          "time": 248.47011199999812,
          "velocity": 0.6299212598425197,
          "duration": 2.822053414583337
        }
      ],
      "controlChanges": {},
      "id": 1,
      "channelNumber": 0,
      "isPercussion": false
    }
  ]
}