{
  "header": {
    "PPQ": 480,
    "timeSignature": [
      3,
      4
    ],
    "bpm": 60,
    "name": ""
  },
  "startTime": 0,
  "duration": 233.99791666666667,
  "tracks": [
    {
      "startTime": 1,
      "duration": 233.99791666666667,
      "length": 279,
      "notes": [
        {
          "name": "F#4",
          "midi": 66,
          "time": 1,
          "velocity": 0.25984251968503935,
          "duration": 1.9979166666666668
        },
        {
          "name": "D4",
          "midi": 62,
          "time": 1,
          "velocity": 0.25984251968503935,
          "duration": 1.9979166666666668
        },
        {
          "name": "B3",
          "midi": 59,
          "time": 1,
          "velocity": 0.25984251968503935,
          "duration": 1.9979166666666668
        },
        {
          "name": "F#4",
          "midi": 66,
          "time": 4,
          "velocity": 0.25984251968503935,
          "duration": 1.9979166666666668
        },
        {
          "name": "C#4",
          "midi": 61,
          "time": 4,
          "velocity": 0.25984251968503935,
          "duration": 1.9979166666666668
        },
        {
          "name": "A3",
          "midi": 57,
          "time": 4,
          "velocity": 0.25984251968503935,
          "duration": 1.9979166666666668
        },
        {
          "name": "F#4",
          "midi": 66,
          "time": 7,
          "velocity": 0.25984251968503935,
          "duration": 1.9979166666666668
        },
        {
          "name": "D4",
          "midi": 62,
          "time": 7,
          "velocity": 0.25984251968503935,
          "duration": 1.9979166666666668
        },
        {
          "name": "B3",
          "midi": 59,
          "time": 7,
          "velocity": 0.25984251968503935,
          "duration": 1.9979166666666668
        },
        {
          "name": "F#4",
          "midi": 66,
          "time": 10,
          "velocity": 0.25984251968503935,
          "duration": 1.9979166666666668
        },
        {
          "name": "C#4",
          "midi": 61,
          "time": 10,
          "velocity": 0.25984251968503935,
          "duration": 1.9979166666666668
        },
        {
          "name": "A3",
          "midi": 57,
          "time": 10,
          "velocity": 0.25984251968503935,
          "duration": 1.9979166666666668
        },
        {
          "name": "F#4",
          "midi": 66,
          "time": 13,
          "velocity": 0.25984251968503935,
          "duration": 1.9979166666666668
        },
        {
          "name": "D4",
          "midi": 62,
          "time": 13,
          "velocity": 0.25984251968503935,
          "duration": 1.9979166666666668
        },
        {
          "name": "B3",
          "midi": 59,
          "time": 13,
          "velocity": 0.25984251968503935,
          "duration": 1.9979166666666668
        },
        {
          "name": "F#5",
          "midi": 78,
          "time": 13,
          "velocity": 0.25984251968503935,
          "duration": 0.9979166666666668
        },
        {
          "name": "A5",
          "midi": 81,
          "time": 14,
          "velocity": 0.2992125984251969,
          "duration": 0.9979166666666668
        },
        {
          "name": "G5",
          "midi": 79,
          "time": 15,
          "velocity": 0.31496062992125984,
          "duration": 0.9979166666666668
        },
        {
          "name": "F#4",
          "midi": 66,
          "time": 16,
          "velocity": 0.25984251968503935,
          "duration": 1.997916666666665
        },
        {
          "name": "C#4",
          "midi": 61,
          "time": 16,
          "velocity": 0.25984251968503935,
          "duration": 1.997916666666665
        },
        {
          "name": "A3",
          "midi": 57,
          "time": 16,
          "velocity": 0.25984251968503935,
          "duration": 1.997916666666665
        },
        {
          "name": "F#5",
          "midi": 78,
          "time": 16,
          "velocity": 0.33070866141732286,
          "duration": 0.997916666666665
        },
        {
          "name": "C#5",
          "midi": 73,
          "time": 17,
          "velocity": 0.3464566929133858,
          "duration": 0.997916666666665
        },
        {
          "name": "B4",
          "midi": 71,
          "time": 18,
          "velocity": 0.3700787401574803,
          "duration": 0.997916666666665
        },
        {
          "name": "F#4",
          "midi": 66,
          "time": 19,
          "velocity": 0.25984251968503935,
          "duration": 1.997916666666665
        },
        {
          "name": "D4",
          "midi": 62,
          "time": 19,
          "velocity": 0.25984251968503935,
          "duration": 1.997916666666665
        },
        {
          "name": "B3",
          "midi": 59,
          "time": 19,
          "velocity": 0.25984251968503935,
          "duration": 1.997916666666665
        },
        {
          "name": "C#5",
          "midi": 73,
          "time": 19,
          "velocity": 0.3858267716535433,
          "duration": 0.997916666666665
        },
        {
          "name": "D5",
          "midi": 74,
          "time": 20,
          "velocity": 0.3228346456692913,
          "duration": 0.997916666666665
        },
        {
          "name": "A4",
          "midi": 69,
          "time": 21,
          "velocity": 0.29133858267716534,
          "duration": 2.997916666666665
        },
        {
          "name": "F#4",
          "midi": 66,
          "time": 22,
          "velocity": 0.25984251968503935,
          "duration": 1.997916666666665
        },
        {
          "name": "C#4",
          "midi": 61,
          "time": 22,
          "velocity": 0.25984251968503935,
          "duration": 1.997916666666665
        },
        {
          "name": "A3",
          "midi": 57,
          "time": 22,
          "velocity": 0.25984251968503935,
          "duration": 1.997916666666665
        },
        {
          "name": "F#4",
          "midi": 66,
          "time": 24,
          "velocity": 0.25984251968503935,
          "duration": 2.997916666666665
        },
        {
          "name": "F#4",
          "midi": 66,
          "time": 25,
          "velocity": 0.5039370078740157,
          "duration": 4.997916666666665
        },
        {
          "name": "D4",
          "midi": 62,
          "time": 25,
          "velocity": 0.5039370078740157,
          "duration": 1.997916666666665
        },
        {
          "name": "B3",
          "midi": 59,
          "time": 25,
          "velocity": 0.5039370078740157,
          "duration": 1.997916666666665
        },
        {
          "name": "F#4",
          "midi": 66,
          "time": 28,
          "velocity": 0.3937007874015748,
          "duration": 4.997916666666669
        },
        {
          "name": "C#4",
          "midi": 61,
          "time": 28,
          "velocity": 0.3937007874015748,
          "duration": 1.997916666666665
        },
        {
          "name": "A3",
          "midi": 57,
          "time": 28,
          "velocity": 0.3937007874015748,
          "duration": 1.997916666666665
        },
        {
          "name": "F#4",
          "midi": 66,
          "time": 31,
          "velocity": 0.31496062992125984,
          "duration": 4.997916666666669
        },
        {
          "name": "D4",
          "midi": 62,
          "time": 31,
          "velocity": 0.31496062992125984,
          "duration": 1.9979166666666686
        },
        {
          "name": "B3",
          "midi": 59,
          "time": 31,
          "velocity": 0.31496062992125984,
          "duration": 1.9979166666666686
        },
        {
          "name": "F#4",
          "midi": 66,
          "time": 34,
          "velocity": 0.31496062992125984,
          "duration": 1.9979166666666686
        },
        {
          "name": "C#4",
          "midi": 61,
          "time": 34,
          "velocity": 0.31496062992125984,
          "duration": 1.9979166666666686
        },
        {
          "name": "A3",
          "midi": 57,
          "time": 34,
          "velocity": 0.31496062992125984,
          "duration": 1.9979166666666686
        },
        {
          "name": "F#4",
          "midi": 66,
          "time": 37,
          "velocity": 0.25984251968503935,
          "duration": 1.9979166666666686
        },
        {
          "name": "D4",
          "midi": 62,
          "time": 37,
          "velocity": 0.25984251968503935,
          "duration": 1.9979166666666686
        },
        {
          "name": "B3",
          "midi": 59,
          "time": 37,
          "velocity": 0.25984251968503935,
          "duration": 1.9979166666666686
        },
        {
          "name": "F#5",
          "midi": 78,
          "time": 37,
          "velocity": 0.25984251968503935,
          "duration": 0.9979166666666686
        },
        {
          "name": "A5",
          "midi": 81,
          "time": 38,
          "velocity": 0.3228346456692913,
          "duration": 0.9979166666666686
        },
        {
          "name": "G5",
          "midi": 79,
          "time": 39,
          "velocity": 0.3543307086614173,
          "duration": 0.9979166666666686
        },
        {
          "name": "F#4",
          "midi": 66,
          "time": 40,
          "velocity": 0.25984251968503935,
          "duration": 1.9979166666666686
        },
        {
          "name": "C#4",
          "midi": 61,
          "time": 40,
          "velocity": 0.25984251968503935,
          "duration": 1.9979166666666686
        },
        {
          "name": "A3",
          "midi": 57,
          "time": 40,
          "velocity": 0.25984251968503935,
          "duration": 1.9979166666666686
        },
        {
          "name": "F#5",
          "midi": 78,
          "time": 40,
          "velocity": 0.3858267716535433,
          "duration": 0.9979166666666686
        },
        {
          "name": "C#5",
          "midi": 73,
          "time": 41,
          "velocity": 0.4094488188976378,
          "duration": 0.9979166666666686
        },
        {
          "name": "B4",
          "midi": 71,
          "time": 42,
          "velocity": 0.4409448818897638,
          "duration": 0.9979166666666686
        },
        {
          "name": "F#4",
          "midi": 66,
          "time": 43,
          "velocity": 0.25984251968503935,
          "duration": 1.9979166666666686
        },
        {
          "name": "D4",
          "midi": 62,
          "time": 43,
          "velocity": 0.25984251968503935,
          "duration": 1.9979166666666686
        },
        {
          "name": "B3",
          "midi": 59,
          "time": 43,
          "velocity": 0.25984251968503935,
          "duration": 1.9979166666666686
        },
        {
          "name": "C#5",
          "midi": 73,
          "time": 43,
          "velocity": 0.47244094488188976,
          "duration": 0.9979166666666686
        },
        {
          "name": "D5",
          "midi": 74,
          "time": 44,
          "velocity": 0.5039370078740157,
          "duration": 0.9979166666666686
        },
        {
          "name": "A4",
          "midi": 69,
          "time": 45,
          "velocity": 0.4094488188976378,
          "duration": 2.9979166666666686
        },
        {
          "name": "F#4",
          "midi": 66,
          "time": 46,
          "velocity": 0.25984251968503935,
          "duration": 1.9979166666666686
        },
        {
          "name": "C#4",
          "midi": 61,
          "time": 46,
          "velocity": 0.25984251968503935,
          "duration": 1.9979166666666686
        },
        {
          "name": "A3",
          "midi": 57,
          "time": 46,
          "velocity": 0.25984251968503935,
          "duration": 1.9979166666666686
        },
        {
          "name": "C#5",
          "midi": 73,
          "time": 48,
          "velocity": 0.3543307086614173,
          "duration": 2.9979166666666686
        },
        {
          "name": "F#4",
          "midi": 66,
          "time": 49,
          "velocity": 0.25984251968503935,
          "duration": 1.9979166666666686
        },
        {
          "name": "C#4",
          "midi": 61,
          "time": 49,
          "velocity": 0.25984251968503935,
          "duration": 1.9979166666666686
        },
        {
          "name": "A3",
          "midi": 57,
          "time": 49,
          "velocity": 0.25984251968503935,
          "duration": 1.9979166666666686
        },
        {
          "name": "F#5",
          "midi": 78,
          "time": 51,
          "velocity": 0.30708661417322836,
          "duration": 2.9979166666666686
        },
        {
          "name": "F#4",
          "midi": 66,
          "time": 52,
          "velocity": 0.25984251968503935,
          "duration": 1.9979166666666686
        },
        {
          "name": "D4",
          "midi": 62,
          "time": 52,
          "velocity": 0.25984251968503935,
          "duration": 1.9979166666666686
        },
        {
          "name": "B3",
          "midi": 59,
          "time": 52,
          "velocity": 0.25984251968503935,
          "duration": 1.9979166666666686
        },
        {
          "name": "E4",
          "midi": 64,
          "time": 54,
          "velocity": 0.25984251968503935,
          "duration": 8.997916666666669
        },
        {
          "name": "A4",
          "midi": 69,
          "time": 63,
          "velocity": 0.3858267716535433,
          "duration": 0.9979166666666686
        },
        {
          "name": "B4",
          "midi": 71,
          "time": 64,
          "velocity": 0.4094488188976378,
          "duration": 0.9979166666666686
        },
        {
          "name": "C5",
          "midi": 72,
          "time": 65,
          "velocity": 0.4251968503937008,
          "duration": 0.9979166666666686
        },
        {
          "name": "E5",
          "midi": 76,
          "time": 66,
          "velocity": 0.4409448818897638,
          "duration": 0.9979166666666686
        },
        {
          "name": "D5",
          "midi": 74,
          "time": 67,
          "velocity": 0.44881889763779526,
          "duration": 0.9979166666666686
        },
        {
          "name": "B4",
          "midi": 71,
          "time": 68,
          "velocity": 0.4645669291338583,
          "duration": 0.9979166666666686
        },
        {
          "name": "D5",
          "midi": 74,
          "time": 69,
          "velocity": 0.48031496062992124,
          "duration": 0.9979166666666686
        },
        {
          "name": "C5",
          "midi": 72,
          "time": 70,
          "velocity": 0.4881889763779528,
          "duration": 0.9979166666666686
        },
        {
          "name": "B4",
          "midi": 71,
          "time": 71,
          "velocity": 0.5039370078740157,
          "duration": 0.9979166666666686
        },
        {
          "name": "D5",
          "midi": 74,
          "time": 72,
          "velocity": 0.44881889763779526,
          "duration": 4.997916666666669
        },
        {
          "name": "D5",
          "midi": 74,
          "time": 77,
          "velocity": 0.3858267716535433,
          "duration": 0.9979166666666686
        },
        {
          "name": "E5",
          "midi": 76,
          "time": 78,
          "velocity": 0.41732283464566927,
          "duration": 0.9979166666666686
        },
        {
          "name": "F5",
          "midi": 77,
          "time": 79,
          "velocity": 0.4330708661417323,
          "duration": 0.9979166666666686
        },
        {
          "name": "G5",
          "midi": 79,
          "time": 80,
          "velocity": 0.4566929133858268,
          "duration": 0.9979166666666686
        },
        {
          "name": "A5",
          "midi": 81,
          "time": 81,
          "velocity": 0.47244094488188976,
          "duration": 0.9979166666666686
        },
        {
          "name": "C5",
          "midi": 72,
          "time": 82,
          "velocity": 0.4881889763779528,
          "duration": 0.9979166666666686
        },
        {
          "name": "D5",
          "midi": 74,
          "time": 83,
          "velocity": 0.5039370078740157,
          "duration": 0.9979166666666686
        },
        {
          "name": "E5",
          "midi": 76,
          "time": 84,
          "velocity": 0.47244094488188976,
          "duration": 0.9979166666666686
        },
        {
          "name": "D5",
          "midi": 74,
          "time": 85,
          "velocity": 0.4566929133858268,
          "duration": 0.9979166666666686
        },
        {
          "name": "B4",
          "midi": 71,
          "time": 86,
          "velocity": 0.4330708661417323,
          "duration": 0.9979166666666686
        },
        {
          "name": "D5",
          "midi": 74,
          "time": 87,
          "velocity": 0.41732283464566927,
          "duration": 4.997916666666669
        },
        {
          "name": "D5",
          "midi": 74,
          "time": 92,
          "velocity": 0.3858267716535433,
          "duration": 0.9979166666666686
        },
        {
          "name": "G5",
          "midi": 79,
          "time": 93,
          "velocity": 0.3858267716535433,
          "duration": 2.9979166666666686
        },
        {
          "name": "G4",
          "midi": 67,
          "time": 94,
          "velocity": 0.3858267716535433,
          "duration": 1.9979166666666686
        },
        {
          "name": "E4",
          "midi": 64,
          "time": 94,
          "velocity": 0.3858267716535433,
          "duration": 1.9979166666666686
        },
        {
          "name": "B3",
          "midi": 59,
          "time": 94,
          "velocity": 0.3858267716535433,
          "duration": 1.9979166666666686
        },
        {
          "name": "F#5",
          "midi": 78,
          "time": 96,
          "velocity": 0.3858267716535433,
          "duration": 2.9979166666666686
        },
        {
          "name": "F#4",
          "midi": 66,
          "time": 97,
          "velocity": 0.3858267716535433,
          "duration": 1.9979166666666686
        },
        {
          "name": "C#4",
          "midi": 61,
          "time": 97,
          "velocity": 0.3858267716535433,
          "duration": 1.9979166666666686
        },
        {
          "name": "A3",
          "midi": 57,
          "time": 97,
          "velocity": 0.3858267716535433,
          "duration": 1.9979166666666686
        },
        {
          "name": "B4",
          "midi": 71,
          "time": 99,
          "velocity": 0.3858267716535433,
          "duration": 0.9979166666666686
        },
        {
          "name": "F#4",
          "midi": 66,
          "time": 100,
          "velocity": 0.3858267716535433,
          "duration": 1.9979166666666686
        },
        {
          "name": "D4",
          "midi": 62,
          "time": 100,
          "velocity": 0.3858267716535433,
          "duration": 1.9979166666666686
        },
        {
          "name": "B3",
          "midi": 59,
          "time": 100,
          "velocity": 0.3858267716535433,
          "duration": 1.9979166666666686
        },
        {
          "name": "A4",
          "midi": 69,
          "time": 100,
          "velocity": 0.3858267716535433,
          "duration": 0.9979166666666686
        },
        {
          "name": "B4",
          "midi": 71,
          "time": 101,
          "velocity": 0.3858267716535433,
          "duration": 0.9979166666666686
        },
        {
          "name": "C#5",
          "midi": 73,
          "time": 102,
          "velocity": 0.3858267716535433,
          "duration": 0.9979166666666686
        },
        {
          "name": "A4",
          "midi": 69,
          "time": 103,
          "velocity": 0.3858267716535433,
          "duration": 1.9979166666666686
        },
        {
          "name": "E4",
          "midi": 64,
          "time": 103,
          "velocity": 0.3858267716535433,
          "duration": 1.9979166666666686
        },
        {
          "name": "C#4",
          "midi": 61,
          "time": 103,
          "velocity": 0.3858267716535433,
          "duration": 1.9979166666666686
        },
        {
          "name": "D5",
          "midi": 74,
          "time": 103,
          "velocity": 0.3858267716535433,
          "duration": 0.9979166666666686
        },
        {
          "name": "E5",
          "midi": 76,
          "time": 104,
          "velocity": 0.3858267716535433,
          "duration": 0.9979166666666686
        },
        {
          "name": "C#5",
          "midi": 73,
          "time": 105,
          "velocity": 0.3858267716535433,
          "duration": 0.9979166666666686
        },
        {
          "name": "A4",
          "midi": 69,
          "time": 106,
          "velocity": 0.3858267716535433,
          "duration": 1.9979166666666686
        },
        {
          "name": "F#4",
          "midi": 66,
          "time": 106,
          "velocity": 0.3858267716535433,
          "duration": 1.9979166666666686
        },
        {
          "name": "C#4",
          "midi": 61,
          "time": 106,
          "velocity": 0.3858267716535433,
          "duration": 1.9979166666666686
        },
        {
          "name": "A3",
          "midi": 57,
          "time": 106,
          "velocity": 0.3858267716535433,
          "duration": 1.9979166666666686
        },
        {
          "name": "D5",
          "midi": 74,
          "time": 106,
          "velocity": 0.3858267716535433,
          "duration": 0.9979166666666686
        },
        {
          "name": "E5",
          "midi": 76,
          "time": 107,
          "velocity": 0.3858267716535433,
          "duration": 0.9979166666666686
        },
        {
          "name": "F#4",
          "midi": 66,
          "time": 108,
          "velocity": 0.3858267716535433,
          "duration": 2.9979166666666686
        },
        {
          "name": "D4",
          "midi": 62,
          "time": 109,
          "velocity": 0.3858267716535433,
          "duration": 0.9979166666666686
        },
        {
          "name": "A3",
          "midi": 57,
          "time": 109,
          "velocity": 0.3858267716535433,
          "duration": 0.9979166666666686
        },
        {
          "name": "G4",
          "midi": 67,
          "time": 110,
          "velocity": 0.3858267716535433,
          "duration": 0.9979166666666686
        },
        {
          "name": "D4",
          "midi": 62,
          "time": 110,
          "velocity": 0.3858267716535433,
          "duration": 0.9979166666666686
        },
        {
          "name": "B3",
          "midi": 59,
          "time": 110,
          "velocity": 0.3858267716535433,
          "duration": 0.9979166666666686
        },
        {
          "name": "C5",
          "midi": 72,
          "time": 111,
          "velocity": 0.3858267716535433,
          "duration": 2.9979166666666686
        },
        {
          "name": "A4",
          "midi": 69,
          "time": 111,
          "velocity": 0.3858267716535433,
          "duration": 2.9979166666666686
        },
        {
          "name": "E4",
          "midi": 64,
          "time": 111,
          "velocity": 0.3858267716535433,
          "duration": 2.9979166666666686
        },
        {
          "name": "C4",
          "midi": 60,
          "time": 111,
          "velocity": 0.3858267716535433,
          "duration": 2.9979166666666686
        },
        {
          "name": "D5",
          "midi": 74,
          "time": 114,
          "velocity": 0.3858267716535433,
          "duration": 2.9979166666666686
        },
        {
          "name": "A4",
          "midi": 69,
          "time": 114,
          "velocity": 0.3858267716535433,
          "duration": 2.9979166666666686
        },
        {
          "name": "F#4",
          "midi": 66,
          "time": 114,
          "velocity": 0.3858267716535433,
          "duration": 2.9979166666666686
        },
        {
          "name": "D4",
          "midi": 62,
          "time": 114,
          "velocity": 0.3858267716535433,
          "duration": 2.9979166666666686
        },
        {
          "name": "F#4",
          "midi": 66,
          "time": 118,
          "velocity": 0.25984251968503935,
          "duration": 1.9979166666666686
        },
        {
          "name": "D4",
          "midi": 62,
          "time": 118,
          "velocity": 0.25984251968503935,
          "duration": 1.9979166666666686
        },
        {
          "name": "B3",
          "midi": 59,
          "time": 118,
          "velocity": 0.25984251968503935,
          "duration": 1.9979166666666686
        },
        {
          "name": "F#4",
          "midi": 66,
          "time": 121,
          "velocity": 0.25984251968503935,
          "duration": 1.9979166666666686
        },
        {
          "name": "C#4",
          "midi": 61,
          "time": 121,
          "velocity": 0.25984251968503935,
          "duration": 1.9979166666666686
        },
        {
          "name": "A3",
          "midi": 57,
          "time": 121,
          "velocity": 0.25984251968503935,
          "duration": 1.9979166666666686
        },
        {
          "name": "F#4",
          "midi": 66,
          "time": 124,
          "velocity": 0.25984251968503935,
          "duration": 1.9979166666666686
        },
        {
          "name": "D4",
          "midi": 62,
          "time": 124,
          "velocity": 0.25984251968503935,
          "duration": 1.9979166666666686
        },
        {
          "name": "B3",
          "midi": 59,
          "time": 124,
          "velocity": 0.25984251968503935,
          "duration": 1.9979166666666686
        },
        {
          "name": "F#4",
          "midi": 66,
          "time": 127,
          "velocity": 0.25984251968503935,
          "duration": 1.9979166666666686
        },
        {
          "name": "C#4",
          "midi": 61,
          "time": 127,
          "velocity": 0.25984251968503935,
          "duration": 1.9979166666666686
        },
        {
          "name": "A3",
          "midi": 57,
          "time": 127,
          "velocity": 0.25984251968503935,
          "duration": 1.9979166666666686
        },
        {
          "name": "F#4",
          "midi": 66,
          "time": 130,
          "velocity": 0.25984251968503935,
          "duration": 1.9979166666666686
        },
        {
          "name": "D4",
          "midi": 62,
          "time": 130,
          "velocity": 0.25984251968503935,
          "duration": 1.9979166666666686
        },
        {
          "name": "B3",
          "midi": 59,
          "time": 130,
          "velocity": 0.25984251968503935,
          "duration": 1.9979166666666686
        },
        {
          "name": "F#5",
          "midi": 78,
          "time": 130,
          "velocity": 0.25984251968503935,
          "duration": 0.9979166666666686
        },
        {
          "name": "A5",
          "midi": 81,
          "time": 131,
          "velocity": 0.2992125984251969,
          "duration": 0.9979166666666686
        },
        {
          "name": "G5",
          "midi": 79,
          "time": 132,
          "velocity": 0.31496062992125984,
          "duration": 0.9979166666666686
        },
        {
          "name": "F#4",
          "midi": 66,
          "time": 133,
          "velocity": 0.25984251968503935,
          "duration": 1.9979166666666686
        },
        {
          "name": "C#4",
          "midi": 61,
          "time": 133,
          "velocity": 0.25984251968503935,
          "duration": 1.9979166666666686
        },
        {
          "name": "A3",
          "midi": 57,
          "time": 133,
          "velocity": 0.25984251968503935,
          "duration": 1.9979166666666686
        },
        {
          "name": "F#5",
          "midi": 78,
          "time": 133,
          "velocity": 0.33070866141732286,
          "duration": 0.9979166666666686
        },
        {
          "name": "C#5",
          "midi": 73,
          "time": 134,
          "velocity": 0.3464566929133858,
          "duration": 0.9979166666666686
        },
        {
          "name": "B4",
          "midi": 71,
          "time": 135,
          "velocity": 0.3700787401574803,
          "duration": 0.9979166666666686
        },
        {
          "name": "F#4",
          "midi": 66,
          "time": 136,
          "velocity": 0.25984251968503935,
          "duration": 1.9979166666666686
        },
        {
          "name": "D4",
          "midi": 62,
          "time": 136,
          "velocity": 0.25984251968503935,
          "duration": 1.9979166666666686
        },
        {
          "name": "B3",
          "midi": 59,
          "time": 136,
          "velocity": 0.25984251968503935,
          "duration": 1.9979166666666686
        },
        {
          "name": "C#5",
          "midi": 73,
          "time": 136,
          "velocity": 0.3858267716535433,
          "duration": 0.9979166666666686
        },
        {
          "name": "D5",
          "midi": 74,
          "time": 137,
          "velocity": 0.3228346456692913,
          "duration": 0.9979166666666686
        },
        {
          "name": "A4",
          "midi": 69,
          "time": 138,
          "velocity": 0.29133858267716534,
          "duration": 2.9979166666666686
        },
        {
          "name": "F#4",
          "midi": 66,
          "time": 139,
          "velocity": 0.25984251968503935,
          "duration": 1.9979166666666686
        },
        {
          "name": "C#4",
          "midi": 61,
          "time": 139,
          "velocity": 0.25984251968503935,
          "duration": 1.9979166666666686
        },
        {
          "name": "A3",
          "midi": 57,
          "time": 139,
          "velocity": 0.25984251968503935,
          "duration": 1.9979166666666686
        },
        {
          "name": "F#4",
          "midi": 66,
          "time": 141,
          "velocity": 0.25984251968503935,
          "duration": 2.9979166666666686
        },
        {
          "name": "F#4",
          "midi": 66,
          "time": 142,
          "velocity": 0.5039370078740157,
          "duration": 4.997916666666669
        },
        {
          "name": "D4",
          "midi": 62,
          "time": 142,
          "velocity": 0.5039370078740157,
          "duration": 1.9979166666666686
        },
        {
          "name": "B3",
          "midi": 59,
          "time": 142,
          "velocity": 0.5039370078740157,
          "duration": 1.9979166666666686
        },
        {
          "name": "F#4",
          "midi": 66,
          "time": 145,
          "velocity": 0.3937007874015748,
          "duration": 4.997916666666669
        },
        {
          "name": "C#4",
          "midi": 61,
          "time": 145,
          "velocity": 0.3937007874015748,
          "duration": 1.9979166666666686
        },
        {
          "name": "A3",
          "midi": 57,
          "time": 145,
          "velocity": 0.3937007874015748,
          "duration": 1.9979166666666686
        },
        {
          "name": "F#4",
          "midi": 66,
          "time": 148,
          "velocity": 0.31496062992125984,
          "duration": 4.997916666666669
        },
        {
          "name": "D4",
          "midi": 62,
          "time": 148,
          "velocity": 0.31496062992125984,
          "duration": 1.9979166666666686
        },
        {
          "name": "B3",
          "midi": 59,
          "time": 148,
          "velocity": 0.31496062992125984,
          "duration": 1.9979166666666686
        },
        {
          "name": "F#4",
          "midi": 66,
          "time": 151,
          "velocity": 0.31496062992125984,
          "duration": 1.9979166666666686
        },
        {
          "name": "C#4",
          "midi": 61,
          "time": 151,
          "velocity": 0.31496062992125984,
          "duration": 1.9979166666666686
        },
        {
          "name": "A3",
          "midi": 57,
          "time": 151,
          "velocity": 0.31496062992125984,
          "duration": 1.9979166666666686
        },
        {
          "name": "F#4",
          "midi": 66,
          "time": 154,
          "velocity": 0.25984251968503935,
          "duration": 1.9979166666666686
        },
        {
          "name": "D4",
          "midi": 62,
          "time": 154,
          "velocity": 0.25984251968503935,
          "duration": 1.9979166666666686
        },
        {
          "name": "B3",
          "midi": 59,
          "time": 154,
          "velocity": 0.25984251968503935,
          "duration": 1.9979166666666686
        },
        {
          "name": "F#5",
          "midi": 78,
          "time": 154,
          "velocity": 0.25984251968503935,
          "duration": 0.9979166666666686
        },
        {
          "name": "A5",
          "midi": 81,
          "time": 155,
          "velocity": 0.3228346456692913,
          "duration": 0.9979166666666686
        },
        {
          "name": "G5",
          "midi": 79,
          "time": 156,
          "velocity": 0.3543307086614173,
          "duration": 0.9979166666666686
        },
        {
          "name": "F#4",
          "midi": 66,
          "time": 157,
          "velocity": 0.25984251968503935,
          "duration": 1.9979166666666686
        },
        {
          "name": "C#4",
          "midi": 61,
          "time": 157,
          "velocity": 0.25984251968503935,
          "duration": 1.9979166666666686
        },
        {
          "name": "A3",
          "midi": 57,
          "time": 157,
          "velocity": 0.25984251968503935,
          "duration": 1.9979166666666686
        },
        {
          "name": "F#5",
          "midi": 78,
          "time": 157,
          "velocity": 0.3858267716535433,
          "duration": 0.9979166666666686
        },
        {
          "name": "C#5",
          "midi": 73,
          "time": 158,
          "velocity": 0.4094488188976378,
          "duration": 0.9979166666666686
        },
        {
          "name": "B4",
          "midi": 71,
          "time": 159,
          "velocity": 0.4409448818897638,
          "duration": 0.9979166666666686
        },
        {
          "name": "F#4",
          "midi": 66,
          "time": 160,
          "velocity": 0.25984251968503935,
          "duration": 1.9979166666666686
        },
        {
          "name": "D4",
          "midi": 62,
          "time": 160,
          "velocity": 0.25984251968503935,
          "duration": 1.9979166666666686
        },
        {
          "name": "B3",
          "midi": 59,
          "time": 160,
          "velocity": 0.25984251968503935,
          "duration": 1.9979166666666686
        },
        {
          "name": "C#5",
          "midi": 73,
          "time": 160,
          "velocity": 0.47244094488188976,
          "duration": 0.9979166666666686
        },
        {
          "name": "D5",
          "midi": 74,
          "time": 161,
          "velocity": 0.5039370078740157,
          "duration": 0.9979166666666686
        },
        {
          "name": "A4",
          "midi": 69,
          "time": 162,
          "velocity": 0.4094488188976378,
          "duration": 2.9979166666666686
        },
        {
          "name": "F#4",
          "midi": 66,
          "time": 163,
          "velocity": 0.25984251968503935,
          "duration": 1.9979166666666686
        },
        {
          "name": "C#4",
          "midi": 61,
          "time": 163,
          "velocity": 0.25984251968503935,
          "duration": 1.9979166666666686
        },
        {
          "name": "A3",
          "midi": 57,
          "time": 163,
          "velocity": 0.25984251968503935,
          "duration": 1.9979166666666686
        },
        {
          "name": "C#5",
          "midi": 73,
          "time": 165,
          "velocity": 0.3543307086614173,
          "duration": 2.9979166666666686
        },
        {
          "name": "F#4",
          "midi": 66,
          "time": 166,
          "velocity": 0.25984251968503935,
          "duration": 1.9979166666666686
        },
        {
          "name": "C#4",
          "midi": 61,
          "time": 166,
          "velocity": 0.25984251968503935,
          "duration": 1.9979166666666686
        },
        {
          "name": "A3",
          "midi": 57,
          "time": 166,
          "velocity": 0.25984251968503935,
          "duration": 1.9979166666666686
        },
        {
          "name": "F#5",
          "midi": 78,
          "time": 168,
          "velocity": 0.30708661417322836,
          "duration": 2.9979166666666686
        },
        {
          "name": "F#4",
          "midi": 66,
          "time": 169,
          "velocity": 0.25984251968503935,
          "duration": 1.9979166666666686
        },
        {
          "name": "D4",
          "midi": 62,
          "time": 169,
          "velocity": 0.25984251968503935,
          "duration": 1.9979166666666686
        },
        {
          "name": "B3",
          "midi": 59,
          "time": 169,
          "velocity": 0.25984251968503935,
          "duration": 1.9979166666666686
        },
        {
          "name": "E4",
          "midi": 64,
          "time": 171,
          "velocity": 0.25984251968503935,
          "duration": 8.997916666666669
        },
        {
          "name": "A4",
          "midi": 69,
          "time": 180,
          "velocity": 0.3858267716535433,
          "duration": 0.9979166666666686
        },
        {
          "name": "B4",
          "midi": 71,
          "time": 181,
          "velocity": 0.4094488188976378,
          "duration": 0.9979166666666686
        },
        {
          "name": "C5",
          "midi": 72,
          "time": 182,
          "velocity": 0.4251968503937008,
          "duration": 0.9979166666666686
        },
        {
          "name": "E5",
          "midi": 76,
          "time": 183,
          "velocity": 0.4409448818897638,
          "duration": 0.9979166666666686
        },
        {
          "name": "D5",
          "midi": 74,
          "time": 184,
          "velocity": 0.44881889763779526,
          "duration": 0.9979166666666686
        },
        {
          "name": "B4",
          "midi": 71,
          "time": 185,
          "velocity": 0.4645669291338583,
          "duration": 0.9979166666666686
        },
        {
          "name": "D5",
          "midi": 74,
          "time": 186,
          "velocity": 0.48031496062992124,
          "duration": 0.9979166666666686
        },
        {
          "name": "C5",
          "midi": 72,
          "time": 187,
          "velocity": 0.4881889763779528,
          "duration": 0.9979166666666686
        },
        {
          "name": "B4",
          "midi": 71,
          "time": 188,
          "velocity": 0.5039370078740157,
          "duration": 0.9979166666666686
        },
        {
          "name": "D5",
          "midi": 74,
          "time": 189,
          "velocity": 0.44881889763779526,
          "duration": 4.997916666666669
        },
        {
          "name": "D5",
          "midi": 74,
          "time": 194,
          "velocity": 0.3858267716535433,
          "duration": 0.9979166666666686
        },
        {
          "name": "E5",
          "midi": 76,
          "time": 195,
          "velocity": 0.41732283464566927,
          "duration": 0.9979166666666686
        },
        {
          "name": "F5",
          "midi": 77,
          "time": 196,
          "velocity": 0.4330708661417323,
          "duration": 0.9979166666666686
        },
        {
          "name": "G5",
          "midi": 79,
          "time": 197,
          "velocity": 0.4566929133858268,
          "duration": 0.9979166666666686
        },
        {
          "name": "A5",
          "midi": 81,
          "time": 198,
          "velocity": 0.47244094488188976,
          "duration": 0.9979166666666686
        },
        {
          "name": "C5",
          "midi": 72,
          "time": 199,
          "velocity": 0.4881889763779528,
          "duration": 0.9979166666666686
        },
        {
          "name": "D5",
          "midi": 74,
          "time": 200,
          "velocity": 0.5039370078740157,
          "duration": 0.9979166666666686
        },
        {
          "name": "E5",
          "midi": 76,
          "time": 201,
          "velocity": 0.47244094488188976,
          "duration": 0.9979166666666686
        },
        {
          "name": "D5",
          "midi": 74,
          "time": 202,
          "velocity": 0.4566929133858268,
          "duration": 0.9979166666666686
        },
        {
          "name": "B4",
          "midi": 71,
          "time": 203,
          "velocity": 0.4330708661417323,
          "duration": 0.9979166666666686
        },
        {
          "name": "D5",
          "midi": 74,
          "time": 204,
          "velocity": 0.41732283464566927,
          "duration": 4.997916666666669
        },
        {
          "name": "D5",
          "midi": 74,
          "time": 209,
          "velocity": 0.3858267716535433,
          "duration": 0.9979166666666686
        },
        {
          "name": "G5",
          "midi": 79,
          "time": 210,
          "velocity": 0.3858267716535433,
          "duration": 2.9979166666666686
        },
        {
          "name": "G4",
          "midi": 67,
          "time": 211,
          "velocity": 0.3858267716535433,
          "duration": 1.9979166666666686
        },
        {
          "name": "E4",
          "midi": 64,
          "time": 211,
          "velocity": 0.3858267716535433,
          "duration": 1.9979166666666686
        },
        {
          "name": "B3",
          "midi": 59,
          "time": 211,
          "velocity": 0.3858267716535433,
          "duration": 1.9979166666666686
        },
        {
          "name": "F5",
          "midi": 77,
          "time": 213,
          "velocity": 0.3858267716535433,
          "duration": 2.9979166666666686
        },
        {
          "name": "A4",
          "midi": 69,
          "time": 214,
          "velocity": 0.3858267716535433,
          "duration": 1.9979166666666686
        },
        {
          "name": "F4",
          "midi": 65,
          "time": 214,
          "velocity": 0.3858267716535433,
          "duration": 1.9979166666666686
        },
        {
          "name": "D4",
          "midi": 62,
          "time": 214,
          "velocity": 0.3858267716535433,
          "duration": 1.9979166666666686
        },
        {
          "name": "A3",
          "midi": 57,
          "time": 214,
          "velocity": 0.3858267716535433,
          "duration": 1.9979166666666686
        },
        {
          "name": "B4",
          "midi": 71,
          "time": 216,
          "velocity": 0.3858267716535433,
          "duration": 0.9979166666666686
        },
        {
          "name": "F4",
          "midi": 65,
          "time": 217,
          "velocity": 0.3858267716535433,
          "duration": 1.9979166666666686
        },
        {
          "name": "C4",
          "midi": 60,
          "time": 217,
          "velocity": 0.3858267716535433,
          "duration": 1.9979166666666686
        },
        {
          "name": "A3",
          "midi": 57,
          "time": 217,
          "velocity": 0.3858267716535433,
          "duration": 1.9979166666666686
        },
        {
          "name": "C5",
          "midi": 72,
          "time": 217,
          "velocity": 0.3858267716535433,
          "duration": 0.9979166666666686
        },
        {
          "name": "F5",
          "midi": 77,
          "time": 218,
          "velocity": 0.3858267716535433,
          "duration": 0.9979166666666686
        },
        {
          "name": "E5",
          "midi": 76,
          "time": 219,
          "velocity": 0.3858267716535433,
          "duration": 0.9979166666666686
        },
        {
          "name": "A4",
          "midi": 69,
          "time": 220,
          "velocity": 0.3858267716535433,
          "duration": 1.9979166666666686
        },
        {
          "name": "E4",
          "midi": 64,
          "time": 220,
          "velocity": 0.3858267716535433,
          "duration": 1.9979166666666686
        },
        {
          "name": "C#4",
          "midi": 61,
          "time": 220,
          "velocity": 0.3858267716535433,
          "duration": 1.9979166666666686
        },
        {
          "name": "D5",
          "midi": 74,
          "time": 220,
          "velocity": 0.3858267716535433,
          "duration": 0.9979166666666686
        },
        {
          "name": "C5",
          "midi": 72,
          "time": 221,
          "velocity": 0.3858267716535433,
          "duration": 0.9979166666666686
        },
        {
          "name": "E5",
          "midi": 76,
          "time": 222,
          "velocity": 0.3858267716535433,
          "duration": 0.9979166666666686
        },
        {
          "name": "A4",
          "midi": 69,
          "time": 223,
          "velocity": 0.3858267716535433,
          "duration": 1.9979166666666686
        },
        {
          "name": "F4",
          "midi": 65,
          "time": 223,
          "velocity": 0.3858267716535433,
          "duration": 1.9979166666666686
        },
        {
          "name": "C4",
          "midi": 60,
          "time": 223,
          "velocity": 0.3858267716535433,
          "duration": 1.9979166666666686
        },
        {
          "name": "A3",
          "midi": 57,
          "time": 223,
          "velocity": 0.3858267716535433,
          "duration": 1.9979166666666686
        },
        {
          "name": "D5",
          "midi": 74,
          "time": 223,
          "velocity": 0.3858267716535433,
          "duration": 0.9979166666666686
        },
        {
          "name": "C5",
          "midi": 72,
          "time": 224,
          "velocity": 0.3858267716535433,
          "duration": 0.9979166666666686
        },
        {
          "name": "F4",
          "midi": 65,
          "time": 225,
          "velocity": 0.3858267716535433,
          "duration": 2.9979166666666686
        },
        {
          "name": "D4",
          "midi": 62,
          "time": 226,
          "velocity": 0.3858267716535433,
          "duration": 0.9979166666666686
        },
        {
          "name": "A3",
          "midi": 57,
          "time": 226,
          "velocity": 0.3858267716535433,
          "duration": 0.9979166666666686
        },
        {
          "name": "G4",
          "midi": 67,
          "time": 227,
          "velocity": 0.3858267716535433,
          "duration": 0.9979166666666686
        },
        {
          "name": "D4",
          "midi": 62,
          "time": 227,
          "velocity": 0.3858267716535433,
          "duration": 0.9979166666666686
        },
        {
          "name": "B3",
          "midi": 59,
          "time": 227,
          "velocity": 0.3858267716535433,
          "duration": 0.9979166666666686
        },
        {
          "name": "C5",
          "midi": 72,
          "time": 228,
          "velocity": 0.3858267716535433,
          "duration": 2.9979166666666686
        },
        {
          "name": "A4",
          "midi": 69,
          "time": 228,
          "velocity": 0.3858267716535433,
          "duration": 2.9979166666666686
        },
        {
          "name": "E4",
          "midi": 64,
          "time": 228,
          "velocity": 0.3858267716535433,
          "duration": 2.9979166666666686
        },
        {
          "name": "C4",
          "midi": 60,
          "time": 228,
          "velocity": 0.3858267716535433,
          "duration": 2.9979166666666686
        },
        {
          "name": "D5",
          "midi": 74,
          "time": 231,
          "velocity": 0.3858267716535433,
          "duration": 2.9979166666666686
        },
        {
          "name": "A4",
          "midi": 69,
          "time": 231,
          "velocity": 0.3858267716535433,
          "duration": 2.9979166666666686
        },
        {
          "name": "F4",
          "midi": 65,
          "time": 231,
          "velocity": 0.3858267716535433,
          "duration": 2.9979166666666686
        },
        {
          "name": "D4",
          "midi": 62,
          "time": 231,
          "velocity": 0.3858267716535433,
          "duration": 2.9979166666666686
        }
      ],
      "controlChanges": {
        "7": [
          {
            "number": 7,
            "time": 0.004166666666666667,
            "value": 0.968503937007874
          }
        ],
        "10": [
          {
            "number": 10,
            "time": 0.008333333333333333,
            "value": 0.5039370078740157
          }
        ],
        "91": [
          {
            "number": 91,
            "time": 0.0125,
            "value": 0.23622047244094488
          }
        ],
        "93": [
          {
            "number": 93,
            "time": 0.016666666666666666,
            "value": 0.23622047244094488
          }
        ]
      },
      "id": 0,
      "instrumentNumber": 0,
      "instrument": "acoustic grand piano",
      "instrumentFamily": "piano",
      "channelNumber": 0,
      "isPercussion": false
    },
    {
      "startTime": 0,
      "duration": 233.99791666666667,
      "length": 176,
      "notes": [
        {
          "name": "G2",
          "midi": 43,
          "time": 0,
          "velocity": 0.25984251968503935,
          "duration": 2.997916666666667
        },
        {
          "name": "D2",
          "midi": 38,
          "time": 3,
          "velocity": 0.25984251968503935,
          "duration": 2.997916666666667
        },
        {
          "name": "G2",
          "midi": 43,
          "time": 6,
          "velocity": 0.25984251968503935,
          "duration": 2.997916666666667
        },
        {
          "name": "D2",
          "midi": 38,
          "time": 9,
          "velocity": 0.25984251968503935,
          "duration": 2.997916666666667
        },
        {
          "name": "G2",
          "midi": 43,
          "time": 12,
          "velocity": 0.25984251968503935,
          "duration": 2.997916666666667
        },
        {
          "name": "D2",
          "midi": 38,
          "time": 15,
          "velocity": 0.25984251968503935,
          "duration": 2.9979166666666686
        },
        {
          "name": "G2",
          "midi": 43,
          "time": 18.000000000000004,
          "velocity": 0.25984251968503935,
          "duration": 2.997916666666665
        },
        {
          "name": "D2",
          "midi": 38,
          "time": 21.000000000000004,
          "velocity": 0.25984251968503935,
          "duration": 2.997916666666665
        },
        {
          "name": "G2",
          "midi": 43,
          "time": 24.000000000000004,
          "velocity": 0.25984251968503935,
          "duration": 2.997916666666665
        },
        {
          "name": "D2",
          "midi": 38,
          "time": 27.000000000000004,
          "velocity": 0.3858267716535433,
          "duration": 2.997916666666665
        },
        {
          "name": "G2",
          "midi": 43,
          "time": 30.000000000000004,
          "velocity": 0.31496062992125984,
          "duration": 2.997916666666665
        },
        {
          "name": "D2",
          "midi": 38,
          "time": 33,
          "velocity": 0.31496062992125984,
          "duration": 2.9979166666666686
        },
        {
          "name": "G2",
          "midi": 43,
          "time": 36,
          "velocity": 0.25984251968503935,
          "duration": 2.9979166666666686
        },
        {
          "name": "D2",
          "midi": 38,
          "time": 39,
          "velocity": 0.25984251968503935,
          "duration": 2.9979166666666686
        },
        {
          "name": "G2",
          "midi": 43,
          "time": 42,
          "velocity": 0.25984251968503935,
          "duration": 2.9979166666666686
        },
        {
          "name": "D2",
          "midi": 38,
          "time": 45,
          "velocity": 0.25984251968503935,
          "duration": 2.9979166666666686
        },
        {
          "name": "F#2",
          "midi": 42,
          "time": 48,
          "velocity": 0.25984251968503935,
          "duration": 2.9979166666666686
        },
        {
          "name": "B1",
          "midi": 35,
          "time": 51,
          "velocity": 0.25984251968503935,
          "duration": 2.9979166666666686
        },
        {
          "name": "E2",
          "midi": 40,
          "time": 54,
          "velocity": 0.25984251968503935,
          "duration": 2.9979166666666686
        },
        {
          "name": "B3",
          "midi": 59,
          "time": 55,
          "velocity": 0.25984251968503935,
          "duration": 1.9979166666666686
        },
        {
          "name": "G3",
          "midi": 55,
          "time": 55,
          "velocity": 0.25984251968503935,
          "duration": 1.9979166666666686
        },
        {
          "name": "E2",
          "midi": 40,
          "time": 57,
          "velocity": 0.25984251968503935,
          "duration": 2.9979166666666686
        },
        {
          "name": "G4",
          "midi": 67,
          "time": 58,
          "velocity": 0.25984251968503935,
          "duration": 1.9979166666666686
        },
        {
          "name": "D4",
          "midi": 62,
          "time": 58,
          "velocity": 0.25984251968503935,
          "duration": 1.9979166666666686
        },
        {
          "name": "B3",
          "midi": 59,
          "time": 58,
          "velocity": 0.25984251968503935,
          "duration": 1.9979166666666686
        },
        {
          "name": "D2",
          "midi": 38,
          "time": 60,
          "velocity": 0.25984251968503935,
          "duration": 2.9979166666666686
        },
        {
          "name": "D4",
          "midi": 62,
          "time": 61,
          "velocity": 0.25984251968503935,
          "duration": 1.9979166666666686
        },
        {
          "name": "A3",
          "midi": 57,
          "time": 61,
          "velocity": 0.25984251968503935,
          "duration": 1.9979166666666686
        },
        {
          "name": "F3",
          "midi": 53,
          "time": 61,
          "velocity": 0.25984251968503935,
          "duration": 1.9979166666666686
        },
        {
          "name": "A1",
          "midi": 33,
          "time": 63,
          "velocity": 0.3858267716535433,
          "duration": 2.9979166666666686
        },
        {
          "name": "E4",
          "midi": 64,
          "time": 64,
          "velocity": 0.3858267716535433,
          "duration": 1.9979166666666686
        },
        {
          "name": "C4",
          "midi": 60,
          "time": 64,
          "velocity": 0.3858267716535433,
          "duration": 1.9979166666666686
        },
        {
          "name": "A3",
          "midi": 57,
          "time": 64,
          "velocity": 0.3858267716535433,
          "duration": 1.9979166666666686
        },
        {
          "name": "D2",
          "midi": 38,
          "time": 66,
          "velocity": 0.3858267716535433,
          "duration": 2.9979166666666686
        },
        {
          "name": "E4",
          "midi": 64,
          "time": 67,
          "velocity": 0.3858267716535433,
          "duration": 1.9979166666666686
        },
        {
          "name": "B3",
          "midi": 59,
          "time": 67,
          "velocity": 0.3858267716535433,
          "duration": 1.9979166666666686
        },
        {
          "name": "G3",
          "midi": 55,
          "time": 67,
          "velocity": 0.3858267716535433,
          "duration": 1.9979166666666686
        },
        {
          "name": "D2",
          "midi": 38,
          "time": 69,
          "velocity": 0.3858267716535433,
          "duration": 2.9979166666666686
        },
        {
          "name": "E4",
          "midi": 64,
          "time": 70,
          "velocity": 0.3858267716535433,
          "duration": 1.9979166666666686
        },
        {
          "name": "B3",
          "midi": 59,
          "time": 70,
          "velocity": 0.3858267716535433,
          "duration": 1.9979166666666686
        },
        {
          "name": "G3",
          "midi": 55,
          "time": 70,
          "velocity": 0.3858267716535433,
          "duration": 1.9979166666666686
        },
        {
          "name": "D3",
          "midi": 50,
          "time": 70,
          "velocity": 0.3858267716535433,
          "duration": 1.9979166666666686
        },
        {
          "name": "D2",
          "midi": 38,
          "time": 72,
          "velocity": 0.3858267716535433,
          "duration": 2.9979166666666686
        },
        {
          "name": "D4",
          "midi": 62,
          "time": 73,
          "velocity": 0.3858267716535433,
          "duration": 1.9979166666666686
        },
        {
          "name": "A3",
          "midi": 57,
          "time": 73,
          "velocity": 0.3858267716535433,
          "duration": 1.9979166666666686
        },
        {
          "name": "E3",
          "midi": 52,
          "time": 73,
          "velocity": 0.3858267716535433,
          "duration": 1.9979166666666686
        },
        {
          "name": "C3",
          "midi": 48,
          "time": 73,
          "velocity": 0.3858267716535433,
          "duration": 1.9979166666666686
        },
        {
          "name": "D2",
          "midi": 38,
          "time": 75,
          "velocity": 0.3858267716535433,
          "duration": 2.9979166666666686
        },
        {
          "name": "D4",
          "midi": 62,
          "time": 76,
          "velocity": 0.3858267716535433,
          "duration": 1.9979166666666686
        },
        {
          "name": "A3",
          "midi": 57,
          "time": 76,
          "velocity": 0.3858267716535433,
          "duration": 1.9979166666666686
        },
        {
          "name": "F#3",
          "midi": 54,
          "time": 76,
          "velocity": 0.3858267716535433,
          "duration": 1.9979166666666686
        },
        {
          "name": "C3",
          "midi": 48,
          "time": 76,
          "velocity": 0.3858267716535433,
          "duration": 1.9979166666666686
        },
        {
          "name": "D2",
          "midi": 38,
          "time": 78,
          "velocity": 0.3858267716535433,
          "duration": 2.9979166666666686
        },
        {
          "name": "F4",
          "midi": 65,
          "time": 79,
          "velocity": 0.3858267716535433,
          "duration": 1.9979166666666686
        },
        {
          "name": "C4",
          "midi": 60,
          "time": 79,
          "velocity": 0.3858267716535433,
          "duration": 1.9979166666666686
        },
        {
          "name": "A3",
          "midi": 57,
          "time": 79,
          "velocity": 0.3858267716535433,
          "duration": 1.9979166666666686
        },
        {
          "name": "D2",
          "midi": 38,
          "time": 81,
          "velocity": 0.3858267716535433,
          "duration": 2.9979166666666686
        },
        {
          "name": "E4",
          "midi": 64,
          "time": 82,
          "velocity": 0.3858267716535433,
          "duration": 1.9979166666666686
        },
        {
          "name": "C4",
          "midi": 60,
          "time": 82,
          "velocity": 0.3858267716535433,
          "duration": 1.9979166666666686
        },
        {
          "name": "A3",
          "midi": 57,
          "time": 82,
          "velocity": 0.3858267716535433,
          "duration": 1.9979166666666686
        },
        {
          "name": "D2",
          "midi": 38,
          "time": 84,
          "velocity": 0.3858267716535433,
          "duration": 2.9979166666666686
        },
        {
          "name": "E4",
          "midi": 64,
          "time": 85,
          "velocity": 0.3858267716535433,
          "duration": 1.9979166666666686
        },
        {
          "name": "B3",
          "midi": 59,
          "time": 85,
          "velocity": 0.3858267716535433,
          "duration": 1.9979166666666686
        },
        {
          "name": "G3",
          "midi": 55,
          "time": 85,
          "velocity": 0.3858267716535433,
          "duration": 1.9979166666666686
        },
        {
          "name": "D3",
          "midi": 50,
          "time": 85,
          "velocity": 0.3858267716535433,
          "duration": 1.9979166666666686
        },
        {
          "name": "D2",
          "midi": 38,
          "time": 87,
          "velocity": 0.3858267716535433,
          "duration": 2.9979166666666686
        },
        {
          "name": "D4",
          "midi": 62,
          "time": 88,
          "velocity": 0.3858267716535433,
          "duration": 1.9979166666666686
        },
        {
          "name": "A3",
          "midi": 57,
          "time": 88,
          "velocity": 0.3858267716535433,
          "duration": 1.9979166666666686
        },
        {
          "name": "E3",
          "midi": 52,
          "time": 88,
          "velocity": 0.3858267716535433,
          "duration": 1.9979166666666686
        },
        {
          "name": "C3",
          "midi": 48,
          "time": 88,
          "velocity": 0.3858267716535433,
          "duration": 1.9979166666666686
        },
        {
          "name": "D2",
          "midi": 38,
          "time": 90,
          "velocity": 0.3858267716535433,
          "duration": 2.9979166666666686
        },
        {
          "name": "D4",
          "midi": 62,
          "time": 91,
          "velocity": 0.3858267716535433,
          "duration": 1.9979166666666686
        },
        {
          "name": "A3",
          "midi": 57,
          "time": 91,
          "velocity": 0.3858267716535433,
          "duration": 1.9979166666666686
        },
        {
          "name": "F#3",
          "midi": 54,
          "time": 91,
          "velocity": 0.3858267716535433,
          "duration": 1.9979166666666686
        },
        {
          "name": "C3",
          "midi": 48,
          "time": 91,
          "velocity": 0.3858267716535433,
          "duration": 1.9979166666666686
        },
        {
          "name": "E2",
          "midi": 40,
          "time": 93,
          "velocity": 0.3858267716535433,
          "duration": 2.9979166666666686
        },
        {
          "name": "F#2",
          "midi": 42,
          "time": 96,
          "velocity": 0.3858267716535433,
          "duration": 2.9979166666666686
        },
        {
          "name": "B1",
          "midi": 35,
          "time": 99,
          "velocity": 0.3858267716535433,
          "duration": 2.9979166666666686
        },
        {
          "name": "E2",
          "midi": 40,
          "time": 102,
          "velocity": 0.3858267716535433,
          "duration": 2.9979166666666686
        },
        {
          "name": "E2",
          "midi": 40,
          "time": 105,
          "velocity": 0.3858267716535433,
          "duration": 2.9979166666666686
        },
        {
          "name": "E2",
          "midi": 40,
          "time": 108,
          "velocity": 0.3858267716535433,
          "duration": 2.9979166666666686
        },
        {
          "name": "B2",
          "midi": 47,
          "time": 109,
          "velocity": 0.3858267716535433,
          "duration": 0.9979166666666686
        },
        {
          "name": "E3",
          "midi": 52,
          "time": 110,
          "velocity": 0.3858267716535433,
          "duration": 0.9979166666666686
        },
        {
          "name": "G3",
          "midi": 55,
          "time": 111,
          "velocity": 0.3858267716535433,
          "duration": 2.9979166666666686
        },
        {
          "name": "A2",
          "midi": 45,
          "time": 111,
          "velocity": 0.3858267716535433,
          "duration": 2.9979166666666686
        },
        {
          "name": "D3",
          "midi": 50,
          "time": 114,
          "velocity": 0.3858267716535433,
          "duration": 2.9979166666666686
        },
        {
          "name": "A2",
          "midi": 45,
          "time": 114,
          "velocity": 0.3858267716535433,
          "duration": 2.9979166666666686
        },
        {
          "name": "D2",
          "midi": 38,
          "time": 114,
          "velocity": 0.3858267716535433,
          "duration": 2.9979166666666686
        },
        {
          "name": "G2",
          "midi": 43,
          "time": 117,
          "velocity": 0.25984251968503935,
          "duration": 2.9979166666666686
        },
        {
          "name": "D2",
          "midi": 38,
          "time": 120,
          "velocity": 0.25984251968503935,
          "duration": 2.9979166666666686
        },
        {
          "name": "G2",
          "midi": 43,
          "time": 123,
          "velocity": 0.25984251968503935,
          "duration": 2.9979166666666686
        },
        {
          "name": "D2",
          "midi": 38,
          "time": 126,
          "velocity": 0.25984251968503935,
          "duration": 2.9979166666666686
        },
        {
          "name": "G2",
          "midi": 43,
          "time": 129,
          "velocity": 0.25984251968503935,
          "duration": 2.9979166666666686
        },
        {
          "name": "D2",
          "midi": 38,
          "time": 132,
          "velocity": 0.25984251968503935,
          "duration": 2.9979166666666686
        },
        {
          "name": "G2",
          "midi": 43,
          "time": 135,
          "velocity": 0.25984251968503935,
          "duration": 2.9979166666666686
        },
        {
          "name": "D2",
          "midi": 38,
          "time": 138,
          "velocity": 0.25984251968503935,
          "duration": 2.9979166666666686
        },
        {
          "name": "G2",
          "midi": 43,
          "time": 141,
          "velocity": 0.25984251968503935,
          "duration": 2.9979166666666686
        },
        {
          "name": "D2",
          "midi": 38,
          "time": 144,
          "velocity": 0.3858267716535433,
          "duration": 2.9979166666666686
        },
        {
          "name": "G2",
          "midi": 43,
          "time": 147,
          "velocity": 0.31496062992125984,
          "duration": 2.9979166666666686
        },
        {
          "name": "D2",
          "midi": 38,
          "time": 150,
          "velocity": 0.31496062992125984,
          "duration": 2.9979166666666686
        },
        {
          "name": "G2",
          "midi": 43,
          "time": 153,
          "velocity": 0.25984251968503935,
          "duration": 2.9979166666666686
        },
        {
          "name": "D2",
          "midi": 38,
          "time": 156,
          "velocity": 0.25984251968503935,
          "duration": 2.9979166666666686
        },
        {
          "name": "G2",
          "midi": 43,
          "time": 159,
          "velocity": 0.25984251968503935,
          "duration": 2.9979166666666686
        },
        {
          "name": "D2",
          "midi": 38,
          "time": 162,
          "velocity": 0.25984251968503935,
          "duration": 2.9979166666666686
        },
        {
          "name": "F#2",
          "midi": 42,
          "time": 165,
          "velocity": 0.25984251968503935,
          "duration": 2.9979166666666686
        },
        {
          "name": "B1",
          "midi": 35,
          "time": 168,
          "velocity": 0.25984251968503935,
          "duration": 2.9979166666666686
        },
        {
          "name": "E2",
          "midi": 40,
          "time": 171,
          "velocity": 0.25984251968503935,
          "duration": 2.9979166666666686
        },
        {
          "name": "B3",
          "midi": 59,
          "time": 172,
          "velocity": 0.25984251968503935,
          "duration": 1.9979166666666686
        },
        {
          "name": "G3",
          "midi": 55,
          "time": 172,
          "velocity": 0.25984251968503935,
          "duration": 1.9979166666666686
        },
        {
          "name": "E2",
          "midi": 40,
          "time": 174,
          "velocity": 0.25984251968503935,
          "duration": 2.9979166666666686
        },
        {
          "name": "G4",
          "midi": 67,
          "time": 175,
          "velocity": 0.25984251968503935,
          "duration": 1.9979166666666686
        },
        {
          "name": "D4",
          "midi": 62,
          "time": 175,
          "velocity": 0.25984251968503935,
          "duration": 1.9979166666666686
        },
        {
          "name": "B3",
          "midi": 59,
          "time": 175,
          "velocity": 0.25984251968503935,
          "duration": 1.9979166666666686
        },
        {
          "name": "D2",
          "midi": 38,
          "time": 177,
          "velocity": 0.25984251968503935,
          "duration": 2.9979166666666686
        },
        {
          "name": "D4",
          "midi": 62,
          "time": 178,
          "velocity": 0.25984251968503935,
          "duration": 1.9979166666666686
        },
        {
          "name": "A3",
          "midi": 57,
          "time": 178,
          "velocity": 0.25984251968503935,
          "duration": 1.9979166666666686
        },
        {
          "name": "F3",
          "midi": 53,
          "time": 178,
          "velocity": 0.25984251968503935,
          "duration": 1.9979166666666686
        },
        {
          "name": "A1",
          "midi": 33,
          "time": 180,
          "velocity": 0.3858267716535433,
          "duration": 2.9979166666666686
        },
        {
          "name": "E4",
          "midi": 64,
          "time": 181,
          "velocity": 0.3858267716535433,
          "duration": 1.9979166666666686
        },
        {
          "name": "C4",
          "midi": 60,
          "time": 181,
          "velocity": 0.3858267716535433,
          "duration": 1.9979166666666686
        },
        {
          "name": "A3",
          "midi": 57,
          "time": 181,
          "velocity": 0.3858267716535433,
          "duration": 1.9979166666666686
        },
        {
          "name": "D2",
          "midi": 38,
          "time": 183,
          "velocity": 0.3858267716535433,
          "duration": 2.9979166666666686
        },
        {
          "name": "E4",
          "midi": 64,
          "time": 184,
          "velocity": 0.3858267716535433,
          "duration": 1.9979166666666686
        },
        {
          "name": "B3",
          "midi": 59,
          "time": 184,
          "velocity": 0.3858267716535433,
          "duration": 1.9979166666666686
        },
        {
          "name": "G3",
          "midi": 55,
          "time": 184,
          "velocity": 0.3858267716535433,
          "duration": 1.9979166666666686
        },
        {
          "name": "D2",
          "midi": 38,
          "time": 186,
          "velocity": 0.3858267716535433,
          "duration": 2.9979166666666686
        },
        {
          "name": "E4",
          "midi": 64,
          "time": 187,
          "velocity": 0.3858267716535433,
          "duration": 1.9979166666666686
        },
        {
          "name": "B3",
          "midi": 59,
          "time": 187,
          "velocity": 0.3858267716535433,
          "duration": 1.9979166666666686
        },
        {
          "name": "G3",
          "midi": 55,
          "time": 187,
          "velocity": 0.3858267716535433,
          "duration": 1.9979166666666686
        },
        {
          "name": "D3",
          "midi": 50,
          "time": 187,
          "velocity": 0.3858267716535433,
          "duration": 1.9979166666666686
        },
        {
          "name": "D2",
          "midi": 38,
          "time": 189,
          "velocity": 0.3858267716535433,
          "duration": 2.9979166666666686
        },
        {
          "name": "D4",
          "midi": 62,
          "time": 190,
          "velocity": 0.3858267716535433,
          "duration": 1.9979166666666686
        },
        {
          "name": "A3",
          "midi": 57,
          "time": 190,
          "velocity": 0.3858267716535433,
          "duration": 1.9979166666666686
        },
        {
          "name": "E3",
          "midi": 52,
          "time": 190,
          "velocity": 0.3858267716535433,
          "duration": 1.9979166666666686
        },
        {
          "name": "C3",
          "midi": 48,
          "time": 190,
          "velocity": 0.3858267716535433,
          "duration": 1.9979166666666686
        },
        {
          "name": "D2",
          "midi": 38,
          "time": 192,
          "velocity": 0.3858267716535433,
          "duration": 2.9979166666666686
        },
        {
          "name": "D4",
          "midi": 62,
          "time": 193,
          "velocity": 0.3858267716535433,
          "duration": 1.9979166666666686
        },
        {
          "name": "A3",
          "midi": 57,
          "time": 193,
          "velocity": 0.3858267716535433,
          "duration": 1.9979166666666686
        },
        {
          "name": "F#3",
          "midi": 54,
          "time": 193,
          "velocity": 0.3858267716535433,
          "duration": 1.9979166666666686
        },
        {
          "name": "C3",
          "midi": 48,
          "time": 193,
          "velocity": 0.3858267716535433,
          "duration": 1.9979166666666686
        },
        {
          "name": "D2",
          "midi": 38,
          "time": 195,
          "velocity": 0.3858267716535433,
          "duration": 2.9979166666666686
        },
        {
          "name": "F4",
          "midi": 65,
          "time": 196,
          "velocity": 0.3858267716535433,
          "duration": 1.9979166666666686
        },
        {
          "name": "C4",
          "midi": 60,
          "time": 196,
          "velocity": 0.3858267716535433,
          "duration": 1.9979166666666686
        },
        {
          "name": "A3",
          "midi": 57,
          "time": 196,
          "velocity": 0.3858267716535433,
          "duration": 1.9979166666666686
        },
        {
          "name": "D2",
          "midi": 38,
          "time": 198,
          "velocity": 0.3858267716535433,
          "duration": 2.9979166666666686
        },
        {
          "name": "E4",
          "midi": 64,
          "time": 199,
          "velocity": 0.3858267716535433,
          "duration": 1.9979166666666686
        },
        {
          "name": "C4",
          "midi": 60,
          "time": 199,
          "velocity": 0.3858267716535433,
          "duration": 1.9979166666666686
        },
        {
          "name": "A3",
          "midi": 57,
          "time": 199,
          "velocity": 0.3858267716535433,
          "duration": 1.9979166666666686
        },
        {
          "name": "D2",
          "midi": 38,
          "time": 201,
          "velocity": 0.3858267716535433,
          "duration": 2.9979166666666686
        },
        {
          "name": "E4",
          "midi": 64,
          "time": 202,
          "velocity": 0.3858267716535433,
          "duration": 1.9979166666666686
        },
        {
          "name": "B3",
          "midi": 59,
          "time": 202,
          "velocity": 0.3858267716535433,
          "duration": 1.9979166666666686
        },
        {
          "name": "G3",
          "midi": 55,
          "time": 202,
          "velocity": 0.3858267716535433,
          "duration": 1.9979166666666686
        },
        {
          "name": "D3",
          "midi": 50,
          "time": 202,
          "velocity": 0.3858267716535433,
          "duration": 1.9979166666666686
        },
        {
          "name": "D2",
          "midi": 38,
          "time": 204,
          "velocity": 0.3858267716535433,
          "duration": 2.9979166666666686
        },
        {
          "name": "D4",
          "midi": 62,
          "time": 205,
          "velocity": 0.3858267716535433,
          "duration": 1.9979166666666686
        },
        {
          "name": "A3",
          "midi": 57,
          "time": 205,
          "velocity": 0.3858267716535433,
          "duration": 1.9979166666666686
        },
        {
          "name": "E3",
          "midi": 52,
          "time": 205,
          "velocity": 0.3858267716535433,
          "duration": 1.9979166666666686
        },
        {
          "name": "C3",
          "midi": 48,
          "time": 205,
          "velocity": 0.3858267716535433,
          "duration": 1.9979166666666686
        },
        {
          "name": "D2",
          "midi": 38,
          "time": 207,
          "velocity": 0.3858267716535433,
          "duration": 2.9979166666666686
        },
        {
          "name": "D4",
          "midi": 62,
          "time": 208,
          "velocity": 0.3858267716535433,
          "duration": 1.9979166666666686
        },
        {
          "name": "A3",
          "midi": 57,
          "time": 208,
          "velocity": 0.3858267716535433,
          "duration": 1.9979166666666686
        },
        {
          "name": "F#3",
          "midi": 54,
          "time": 208,
          "velocity": 0.3858267716535433,
          "duration": 1.9979166666666686
        },
        {
          "name": "C3",
          "midi": 48,
          "time": 208,
          "velocity": 0.3858267716535433,
          "duration": 1.9979166666666686
        },
        {
          "name": "E2",
          "midi": 40,
          "time": 210,
          "velocity": 0.3858267716535433,
          "duration": 2.9979166666666686
        },
        {
          "name": "E2",
          "midi": 40,
          "time": 213,
          "velocity": 0.3858267716535433,
          "duration": 2.9979166666666686
        },
        {
          "name": "E2",
          "midi": 40,
          "time": 216,
          "velocity": 0.3858267716535433,
          "duration": 2.9979166666666686
        },
        {
          "name": "E2",
          "midi": 40,
          "time": 219,
          "velocity": 0.3858267716535433,
          "duration": 2.9979166666666686
        },
        {
          "name": "E2",
          "midi": 40,
          "time": 222,
          "velocity": 0.3858267716535433,
          "duration": 2.9979166666666686
        },
        {
          "name": "E2",
          "midi": 40,
          "time": 225,
          "velocity": 0.3858267716535433,
          "duration": 2.9979166666666686
        },
        {
          "name": "B2",
          "midi": 47,
          "time": 226,
          "velocity": 0.3858267716535433,
          "duration": 0.9979166666666686
        },
        {
          "name": "E3",
          "midi": 52,
          "time": 227,
          "velocity": 0.3858267716535433,
          "duration": 0.9979166666666686
        },
        {
          "name": "G3",
          "midi": 55,
          "time": 228,
          "velocity": 0.3858267716535433,
          "duration": 2.9979166666666686
        },
        {
          "name": "A2",
          "midi": 45,
          "time": 228,
          "velocity": 0.3858267716535433,
          "duration": 2.9979166666666686
        },
        {
          "name": "D3",
          "midi": 50,
          "time": 231,
          "velocity": 0.3858267716535433,
          "duration": 2.9979166666666686
        },
        {
          "name": "A2",
          "midi": 45,
          "time": 231,
          "velocity": 0.3858267716535433,
          "duration": 2.9979166666666686
        },
        {
          "name": "D2",
          "midi": 38,
          "time": 231,
          "velocity": 0.3858267716535433,
          "duration": 2.9979166666666686
        }
      ],
      "controlChanges": {},
      "id": 1,
      "channelNumber": 0,
      "isPercussion": false
    }
  ]
}