{
  "header": {
    "PPQ": 480,
    "timeSignature": [
      2,
      4
    ],
    "bpm": 100.00016666694445,
    "name": ""
  },
  "startTime": 0,
  "duration": 33.59869400208325,
  "tracks": [
    {
      "startTime": 0,
      "duration": 33.59869400208325,
      "length": 124,
      "notes": [
        {
          "name": "G4",
          "midi": 67,
          "time": 0,
          "velocity": 0.6299212598425197,
          "duration": 0.2987495020833333
        },
        {
          "name": "D#4",
          "midi": 63,
          "time": 0.2999995,
          "velocity": 0.6299212598425197,
          "duration": 0.2987495020833333
        },
        {
          "name": "D4",
          "midi": 62,
          "time": 0.599999,
          "velocity": 0.6299212598425197,
          "duration": 0.2987495020833333
        },
        {
          "name": "D#4",
          "midi": 63,
          "time": 0.8999984999999999,
          "velocity": 0.6299212598425197,
          "duration": 0.1487497520833334
        },
        {
          "name": "D4",
          "midi": 62,
          "time": 1.04999825,
          "velocity": 0.6299212598425197,
          "duration": 0.1487497520833334
        },
        {
          "name": "G3",
          "midi": 55,
          "time": 1.1999980000000001,
          "velocity": 0.6299212598425197,
          "duration": 0.2987495020833333
        },
        {
          "name": "C4",
          "midi": 60,
          "time": 1.4999975,
          "velocity": 0.6299212598425197,
          "duration": 0.2987495020833333
        },
        {
          "name": "D4",
          "midi": 62,
          "time": 1.799997,
          "velocity": 0.6299212598425197,
          "duration": 0.5987490020833335
        },
        {
          "name": "G#4",
          "midi": 68,
          "time": 2.3999960000000002,
          "velocity": 0.6299212598425197,
          "duration": 0.2987495020833335
        },
        {
          "name": "G#4",
          "midi": 68,
          "time": 2.6999955000000004,
          "velocity": 0.6299212598425197,
          "duration": 0.2987495020833335
        },
        {
          "name": "G4",
          "midi": 67,
          "time": 2.9999950000000006,
          "velocity": 0.6299212598425197,
          "duration": 0.2987495020833335
        },
        {
          "name": "A4",
          "midi": 69,
          "time": 3.299994500000001,
          "velocity": 0.6299212598425197,
          "duration": 0.1487497520833334
        },
        {
          "name": "A4",
          "midi": 69,
          "time": 3.449994250000001,
          "velocity": 0.6299212598425197,
          "duration": 0.1487497520833334
        },
        {
          "name": "G4",
          "midi": 67,
          "time": 3.599994000000001,
          "velocity": 0.6299212598425197,
          "duration": 0.2987495020833335
        },
        {
          "name": "D#4",
          "midi": 63,
          "time": 3.8999935000000012,
          "velocity": 0.6299212598425197,
          "duration": 0.2987495020833335
        },
        {
          "name": "D4",
          "midi": 62,
          "time": 4.199993000000001,
          "velocity": 0.6299212598425197,
          "duration": 0.5987490020833333
        },
        {
          "name": "C5",
          "midi": 72,
          "time": 4.7999920000000005,
          "velocity": 0.6299212598425197,
          "duration": 0.29874950208333306
        },
        {
          "name": "G#4",
          "midi": 68,
          "time": 5.0999915,
          "velocity": 0.6299212598425197,
          "duration": 0.29874950208333306
        },
        {
          "name": "G4",
          "midi": 67,
          "time": 5.399990999999999,
          "velocity": 0.6299212598425197,
          "duration": 0.29874950208333306
        },
        {
          "name": "A4",
          "midi": 69,
          "time": 5.699990499999998,
          "velocity": 0.6299212598425197,
          "duration": 0.14874975208333296
        },
        {
          "name": "A4",
          "midi": 69,
          "time": 5.849990249999998,
          "velocity": 0.6299212598425197,
          "duration": 0.14874975208333296
        },
        {
          "name": "G4",
          "midi": 67,
          "time": 5.999989999999997,
          "velocity": 0.6299212598425197,
          "duration": 0.29874950208333306
        },
        {
          "name": "D#4",
          "midi": 63,
          "time": 6.299989499999996,
          "velocity": 0.6299212598425197,
          "duration": 0.29874950208333306
        },
        {
          "name": "D4",
          "midi": 62,
          "time": 6.599988999999995,
          "velocity": 0.6299212598425197,
          "duration": 0.5987490020833333
        },
        {
          "name": "F4",
          "midi": 65,
          "time": 7.199987999999995,
          "velocity": 0.6299212598425197,
          "duration": 0.14874975208333296
        },
        {
          "name": "F4",
          "midi": 65,
          "time": 7.349987749999994,
          "velocity": 0.6299212598425197,
          "duration": 0.14874975208333296
        },
        {
          "name": "F4",
          "midi": 65,
          "time": 7.499987499999993,
          "velocity": 0.6299212598425197,
          "duration": 0.14874975208333296
        },
        {
          "name": "F4",
          "midi": 65,
          "time": 7.649987249999993,
          "velocity": 0.6299212598425197,
          "duration": 0.14874975208333296
        },
        {
          "name": "G4",
          "midi": 67,
          "time": 7.799986999999992,
          "velocity": 0.6299212598425197,
          "duration": 0.5987490020833333
        },
        {
          "name": "C4",
          "midi": 60,
          "time": 8.399985999999991,
          "velocity": 0.6299212598425197,
          "duration": 0.14874975208333296
        },
        {
          "name": "C4",
          "midi": 60,
          "time": 8.54998574999999,
          "velocity": 0.6299212598425197,
          "duration": 0.14874975208333296
        },
        {
          "name": "C4",
          "midi": 60,
          "time": 8.69998549999999,
          "velocity": 0.6299212598425197,
          "duration": 0.14874975208333296
        },
        {
          "name": "C4",
          "midi": 60,
          "time": 8.849985249999989,
          "velocity": 0.6299212598425197,
          "duration": 0.14874975208333296
        },
        {
          "name": "D4",
          "midi": 62,
          "time": 8.999984999999988,
          "velocity": 0.6299212598425197,
          "duration": 0.5987490020833341
        },
        {
          "name": "F4",
          "midi": 65,
          "time": 9.599983999999989,
          "velocity": 0.6299212598425197,
          "duration": 0.29874950208333395
        },
        {
          "name": "G4",
          "midi": 67,
          "time": 9.899983499999989,
          "velocity": 0.6299212598425197,
          "duration": 0.29874950208333395
        },
        {
          "name": "G#4",
          "midi": 68,
          "time": 10.199982999999989,
          "velocity": 0.6299212598425197,
          "duration": 0.29874950208333395
        },
        {
          "name": "G4",
          "midi": 67,
          "time": 10.49998249999999,
          "velocity": 0.6299212598425197,
          "duration": 0.29874950208333395
        },
        {
          "name": "F4",
          "midi": 65,
          "time": 10.79998199999999,
          "velocity": 0.6299212598425197,
          "duration": 0.29874950208333395
        },
        {
          "name": "G4",
          "midi": 67,
          "time": 11.09998149999999,
          "velocity": 0.6299212598425197,
          "duration": 0.14874975208333296
        },
        {
          "name": "F4",
          "midi": 65,
          "time": 11.249981249999989,
          "velocity": 0.6299212598425197,
          "duration": 0.14874975208333296
        },
        {
          "name": "C#4",
          "midi": 61,
          "time": 11.399980999999988,
          "velocity": 0.6299212598425197,
          "duration": 0.29874950208333395
        },
        {
          "name": "C4",
          "midi": 60,
          "time": 11.699980499999988,
          "velocity": 0.6299212598425197,
          "duration": 0.29874950208333395
        },
        {
          "name": "C#4",
          "midi": 61,
          "time": 11.999979999999988,
          "velocity": 0.6299212598425197,
          "duration": 0.29874950208333395
        },
        {
          "name": "C#4",
          "midi": 61,
          "time": 12.299979499999989,
          "velocity": 0.6299212598425197,
          "duration": 0.29874950208333395
        },
        {
          "name": "C#4",
          "midi": 61,
          "time": 12.599978999999989,
          "velocity": 0.6299212598425197,
          "duration": 0.29874950208333395
        },
        {
          "name": "C#4",
          "midi": 61,
          "time": 12.899978499999989,
          "velocity": 0.6299212598425197,
          "duration": 0.14874975208333296
        },
        {
          "name": "C4",
          "midi": 60,
          "time": 13.049978249999988,
          "velocity": 0.6299212598425197,
          "duration": 0.14874975208333296
        },
        {
          "name": "G3",
          "midi": 55,
          "time": 13.199977999999987,
          "velocity": 0.6299212598425197,
          "duration": 0.14874975208333296
        },
        {
          "name": "A#3",
          "midi": 58,
          "time": 13.349977749999987,
          "velocity": 0.6299212598425197,
          "duration": 0.14874975208333296
        },
        {
          "name": "C4",
          "midi": 60,
          "time": 13.499977499999986,
          "velocity": 0.6299212598425197,
          "duration": 0.29874950208333395
        },
        {
          "name": "G3",
          "midi": 55,
          "time": 13.799976999999986,
          "velocity": 0.6299212598425197,
          "duration": 0.5987490020833324
        },
        {
          "name": "G3",
          "midi": 55,
          "time": 14.399975999999985,
          "velocity": 0.6299212598425197,
          "duration": 0.14874975208333296
        },
        {
          "name": "G3",
          "midi": 55,
          "time": 14.549975749999984,
          "velocity": 0.6299212598425197,
          "duration": 0.14874975208333296
        },
        {
          "name": "G3",
          "midi": 55,
          "time": 14.699975499999983,
          "velocity": 0.6299212598425197,
          "duration": 0.14874975208333296
        },
        {
          "name": "A#3",
          "midi": 58,
          "time": 14.849975249999982,
          "velocity": 0.6299212598425197,
          "duration": 0.14874975208333296
        },
        {
          "name": "C4",
          "midi": 60,
          "time": 14.999974999999981,
          "velocity": 0.6299212598425197,
          "duration": 0.29874950208333395
        },
        {
          "name": "D4",
          "midi": 62,
          "time": 15.299974499999982,
          "velocity": 0.6299212598425197,
          "duration": 0.14874975208333296
        },
        {
          "name": "D4",
          "midi": 62,
          "time": 15.44997424999998,
          "velocity": 0.6299212598425197,
          "duration": 0.14874975208333296
        },
        {
          "name": "C4",
          "midi": 60,
          "time": 15.59997399999998,
          "velocity": 0.6299212598425197,
          "duration": 0.29874950208333395
        },
        {
          "name": "G3",
          "midi": 55,
          "time": 15.89997349999998,
          "velocity": 0.6299212598425197,
          "duration": 0.2987495020833322
        },
        {
          "name": "G3",
          "midi": 55,
          "time": 16.19997299999998,
          "velocity": 0.6299212598425197,
          "duration": 0.5987490020833341
        },
        {
          "name": "G4",
          "midi": 67,
          "time": 16.79997199999998,
          "velocity": 0.6299212598425197,
          "duration": 0.2987495020833322
        },
        {
          "name": "D#4",
          "midi": 63,
          "time": 17.099971499999977,
          "velocity": 0.6299212598425197,
          "duration": 0.2987495020833322
        },
        {
          "name": "D4",
          "midi": 62,
          "time": 17.399970999999976,
          "velocity": 0.6299212598425197,
          "duration": 0.2987495020833322
        },
        {
          "name": "D#4",
          "midi": 63,
          "time": 17.699970499999974,
          "velocity": 0.6299212598425197,
          "duration": 0.14874975208333296
        },
        {
          "name": "D4",
          "midi": 62,
          "time": 17.849970249999974,
          "velocity": 0.6299212598425197,
          "duration": 0.14874975208333296
        },
        {
          "name": "G3",
          "midi": 55,
          "time": 17.999969999999973,
          "velocity": 0.6299212598425197,
          "duration": 0.2987495020833322
        },
        {
          "name": "C4",
          "midi": 60,
          "time": 18.29996949999997,
          "velocity": 0.6299212598425197,
          "duration": 0.2987495020833322
        },
        {
          "name": "D4",
          "midi": 62,
          "time": 18.59996899999997,
          "velocity": 0.6299212598425197,
          "duration": 0.5987490020833341
        },
        {
          "name": "G#4",
          "midi": 68,
          "time": 19.19996799999997,
          "velocity": 0.6299212598425197,
          "duration": 0.2987495020833322
        },
        {
          "name": "G#4",
          "midi": 68,
          "time": 19.49996749999997,
          "velocity": 0.6299212598425197,
          "duration": 0.2987495020833322
        },
        {
          "name": "G4",
          "midi": 67,
          "time": 19.799966999999967,
          "velocity": 0.6299212598425197,
          "duration": 0.2987495020833322
        },
        {
          "name": "A4",
          "midi": 69,
          "time": 20.099966499999965,
          "velocity": 0.6299212598425197,
          "duration": 0.14874975208333296
        },
        {
          "name": "A4",
          "midi": 69,
          "time": 20.249966249999964,
          "velocity": 0.6299212598425197,
          "duration": 0.14874975208333296
        },
        {
          "name": "G4",
          "midi": 67,
          "time": 20.399965999999964,
          "velocity": 0.6299212598425197,
          "duration": 0.2987495020833322
        },
        {
          "name": "D#4",
          "midi": 63,
          "time": 20.699965499999962,
          "velocity": 0.6299212598425197,
          "duration": 0.2987495020833322
        },
        {
          "name": "D4",
          "midi": 62,
          "time": 20.99996499999996,
          "velocity": 0.6299212598425197,
          "duration": 0.5987490020833341
        },
        {
          "name": "C5",
          "midi": 72,
          "time": 21.59996399999996,
          "velocity": 0.6299212598425197,
          "duration": 0.2987495020833322
        },
        {
          "name": "G#4",
          "midi": 68,
          "time": 21.89996349999996,
          "velocity": 0.6299212598425197,
          "duration": 0.2987495020833322
        },
        {
          "name": "G4",
          "midi": 67,
          "time": 22.199962999999958,
          "velocity": 0.6299212598425197,
          "duration": 0.2987495020833322
        },
        {
          "name": "A4",
          "midi": 69,
          "time": 22.499962499999956,
          "velocity": 0.6299212598425197,
          "duration": 0.14874975208333296
        },
        {
          "name": "A4",
          "midi": 69,
          "time": 22.649962249999955,
          "velocity": 0.6299212598425197,
          "duration": 0.14874975208333296
        },
        {
          "name": "G4",
          "midi": 67,
          "time": 22.799961999999955,
          "velocity": 0.6299212598425197,
          "duration": 0.2987495020833322
        },
        {
          "name": "D#4",
          "midi": 63,
          "time": 23.099961499999953,
          "velocity": 0.6299212598425197,
          "duration": 0.2987495020833322
        },
        {
          "name": "D4",
          "midi": 62,
          "time": 23.39996099999995,
          "velocity": 0.6299212598425197,
          "duration": 0.5987490020833341
        },
        {
          "name": "F4",
          "midi": 65,
          "time": 23.99995999999995,
          "velocity": 0.6299212598425197,
          "duration": 0.14874975208333296
        },
        {
          "name": "F4",
          "midi": 65,
          "time": 24.14995974999995,
          "velocity": 0.6299212598425197,
          "duration": 0.14874975208333296
        },
        {
          "name": "F4",
          "midi": 65,
          "time": 24.29995949999995,
          "velocity": 0.6299212598425197,
          "duration": 0.14874975208333296
        },
        {
          "name": "F4",
          "midi": 65,
          "time": 24.44995924999995,
          "velocity": 0.6299212598425197,
          "duration": 0.14874975208333296
        },
        {
          "name": "G4",
          "midi": 67,
          "time": 24.59995899999995,
          "velocity": 0.6299212598425197,
          "duration": 0.5987490020833341
        },
        {
          "name": "C4",
          "midi": 60,
          "time": 25.19995799999995,
          "velocity": 0.6299212598425197,
          "duration": 0.14874975208333296
        },
        {
          "name": "C4",
          "midi": 60,
          "time": 25.349957749999948,
          "velocity": 0.6299212598425197,
          "duration": 0.14874975208333296
        },
        {
          "name": "C4",
          "midi": 60,
          "time": 25.499957499999947,
          "velocity": 0.6299212598425197,
          "duration": 0.14874975208333296
        },
        {
          "name": "C4",
          "midi": 60,
          "time": 25.649957249999947,
          "velocity": 0.6299212598425197,
          "duration": 0.14874975208333296
        },
        {
          "name": "D4",
          "midi": 62,
          "time": 25.799956999999946,
          "velocity": 0.6299212598425197,
          "duration": 0.5987490020833341
        },
        {
          "name": "F4",
          "midi": 65,
          "time": 26.399955999999946,
          "velocity": 0.6299212598425197,
          "duration": 0.2987495020833322
        },
        {
          "name": "G4",
          "midi": 67,
          "time": 26.699955499999945,
          "velocity": 0.6299212598425197,
          "duration": 0.2987495020833322
        },
        {
          "name": "G#4",
          "midi": 68,
          "time": 26.999954999999943,
          "velocity": 0.6299212598425197,
          "duration": 0.2987495020833322
        },
        {
          "name": "G4",
          "midi": 67,
          "time": 27.29995449999994,
          "velocity": 0.6299212598425197,
          "duration": 0.2987495020833322
        },
        {
          "name": "F4",
          "midi": 65,
          "time": 27.59995399999994,
          "velocity": 0.6299212598425197,
          "duration": 0.2987495020833322
        },
        {
          "name": "G4",
          "midi": 67,
          "time": 27.89995349999994,
          "velocity": 0.6299212598425197,
          "duration": 0.14874975208333296
        },
        {
          "name": "F4",
          "midi": 65,
          "time": 28.049953249999938,
          "velocity": 0.6299212598425197,
          "duration": 0.14874975208333296
        },
        {
          "name": "C#4",
          "midi": 61,
          "time": 28.199952999999937,
          "velocity": 0.6299212598425197,
          "duration": 0.2987495020833322
        },
        {
          "name": "C4",
          "midi": 60,
          "time": 28.499952499999935,
          "velocity": 0.6299212598425197,
          "duration": 0.2987495020833322
        },
        {
          "name": "C#4",
          "midi": 61,
          "time": 28.799951999999934,
          "velocity": 0.6299212598425197,
          "duration": 0.2987495020833322
        },
        {
          "name": "C#4",
          "midi": 61,
          "time": 29.099951499999932,
          "velocity": 0.6299212598425197,
          "duration": 0.2987495020833322
        },
        {
          "name": "C#4",
          "midi": 61,
          "time": 29.39995099999993,
          "velocity": 0.6299212598425197,
          "duration": 0.2987495020833322
        },
        {
          "name": "C#4",
          "midi": 61,
          "time": 29.69995049999993,
          "velocity": 0.6299212598425197,
          "duration": 0.14874975208333296
        },
        {
          "name": "C4",
          "midi": 60,
          "time": 29.849950249999928,
          "velocity": 0.6299212598425197,
          "duration": 0.14874975208333296
        },
        {
          "name": "G3",
          "midi": 55,
          "time": 29.999949999999927,
          "velocity": 0.6299212598425197,
          "duration": 0.14874975208333296
        },
        {
          "name": "A#3",
          "midi": 58,
          "time": 30.149949749999926,
          "velocity": 0.6299212598425197,
          "duration": 0.14874975208333296
        },
        {
          "name": "C4",
          "midi": 60,
          "time": 30.299949499999926,
          "velocity": 0.6299212598425197,
          "duration": 0.2987495020833322
        },
        {
          "name": "G3",
          "midi": 55,
          "time": 30.599948999999924,
          "velocity": 0.6299212598425197,
          "duration": 0.5987490020833341
        },
        {
          "name": "G3",
          "midi": 55,
          "time": 31.199947999999925,
          "velocity": 0.6299212598425197,
          "duration": 0.14874975208333296
        },
        {
          "name": "G3",
          "midi": 55,
          "time": 31.349947749999924,
          "velocity": 0.6299212598425197,
          "duration": 0.14874975208333296
        },
        {
          "name": "G3",
          "midi": 55,
          "time": 31.499947499999923,
          "velocity": 0.6299212598425197,
          "duration": 0.14874975208333296
        },
        {
          "name": "A#3",
          "midi": 58,
          "time": 31.649947249999922,
          "velocity": 0.6299212598425197,
          "duration": 0.14874975208333296
        },
        {
          "name": "C4",
          "midi": 60,
          "time": 31.79994699999992,
          "velocity": 0.6299212598425197,
          "duration": 0.2987495020833357
        },
        {
          "name": "D4",
          "midi": 62,
          "time": 32.09994649999992,
          "velocity": 0.6299212598425197,
          "duration": 0.14874975208333296
        },
        {
          "name": "D4",
          "midi": 62,
          "time": 32.24994624999992,
          "velocity": 0.6299212598425197,
          "duration": 0.14874975208333296
        },
        {
          "name": "C4",
          "midi": 60,
          "time": 32.39994599999992,
          "velocity": 0.6299212598425197,
          "duration": 0.2987495020833322
        },
        {
          "name": "G3",
          "midi": 55,
          "time": 32.69994549999992,
          "velocity": 0.6299212598425197,
          "duration": 0.2987495020833322
        },
        {
          "name": "G3",
          "midi": 55,
          "time": 32.99994499999992,
          "velocity": 0.6299212598425197,
          "duration": 0.5987490020833306
        }
      ],
      "controlChanges": {
        "7": [
          {
            "number": 7,
            "time": 0,
            "value": 0.7874015748031497
          }
        ],
        "10": [
          {
            "number": 10,
            "time": 0,
            "value": 0.5039370078740157
          }
        ],
        "91": [
          {
            "number": 91,
            "time": 0,
            "value": 0
          }
        ],
        "93": [
          {
            "number": 93,
            "time": 0,
            "value": 0
          }
        ],
        "121": [
          {
            "number": 121,
            "time": 0,
            "value": 0
          }
        ]
      },
      "id": 0,
      "instrumentNumber": 106,
      "instrument": "shamisen",
      "instrumentFamily": "ethnic",
      "channelNumber": 0,
      "isPercussion": false
    }
  ]
}